<?xml version="1.0" standalone="no"?>
<!DOCTYPE svg PUBLIC "-//W3C//DTD SVG 1.1//EN" "http://www.w3.org/Graphics/SVG/1.1/DTD/svg11.dtd" >
<svg xmlns="http://www.w3.org/2000/svg" xmlns:xlink="http://www.w3.org/1999/xlink" version="1.1">
<metadata>
Created by FontForge 20170731 at Fri Mar 29 08:03:42 2013
 By Aleksey,,,
Created by JB with FontForge 2.0 (http://fontforge.sf.net) and TypeTool 3 - February 2013 
</metadata>
<defs>
<font id="ChemyRetro" horiz-adv-x="58" >
  <font-face 
    font-family="ChemyRetro"
    font-weight="900"
    font-stretch="normal"
    units-per-em="1000"
    panose-1="2 0 10 3 0 0 0 0 0 0"
    ascent="800"
    descent="-200"
    x-height="547"
    cap-height="801"
    bbox="-116 -200 1019 994"
    underline-thickness="50"
    underline-position="-250"
    unicode-range="U+0001-2122"
  />
<missing-glyph 
 />
    <glyph glyph-name=".notdef" 
 />
    <glyph glyph-name="uni0000" 
 />
    <glyph glyph-name="uni0000" 
 />
    <glyph glyph-name="uni000D" unicode="&#xd;" 
 />
    <glyph glyph-name="uni0001" 
 />
    <glyph glyph-name="uni0002" 
 />
    <glyph glyph-name="uni0003" 
 />
    <glyph glyph-name="uni0004" 
 />
    <glyph glyph-name="uni0005" 
 />
    <glyph glyph-name="uni0006" 
 />
    <glyph glyph-name="uni0007" 
 />
    <glyph glyph-name="uni0008" 
 />
    <glyph glyph-name="uni0009" unicode="&#x9;" 
 />
    <glyph glyph-name="uni000A" unicode="&#xa;" 
 />
    <glyph glyph-name="uni000B" 
 />
    <glyph glyph-name="uni000C" 
 />
    <glyph glyph-name="uni000E" 
 />
    <glyph glyph-name="uni000F" 
 />
    <glyph glyph-name="uni0010" 
 />
    <glyph glyph-name="uni0011" 
 />
    <glyph glyph-name="uni0012" 
 />
    <glyph glyph-name="uni0013" 
 />
    <glyph glyph-name="uni0014" 
 />
    <glyph glyph-name="uni0015" 
 />
    <glyph glyph-name="uni0016" 
 />
    <glyph glyph-name="uni0017" 
 />
    <glyph glyph-name="uni0018" 
 />
    <glyph glyph-name="uni0019" 
 />
    <glyph glyph-name="uni001A" 
 />
    <glyph glyph-name="uni001B" 
 />
    <glyph glyph-name="uni001C" 
 />
    <glyph glyph-name="uni001D" 
 />
    <glyph glyph-name="uni001E" 
 />
    <glyph glyph-name="uni001F" 
 />
    <glyph glyph-name="space" unicode=" " horiz-adv-x="415" 
 />
    <glyph glyph-name="exclam" unicode="!" horiz-adv-x="287" 
d="M152 166q41 0 69.5 -24.5t28.5 -58.5t-28.5 -58.5t-69.5 -24.5t-70 24.5t-29 58.5t29 58.5t70 24.5zM22 800h243l-30 -569h-183z" />
    <glyph glyph-name="quotedbl" unicode="&#x22;" horiz-adv-x="348" 
d="M23 800h141l-23 -299h-95zM184 800h141l-23 -299h-95z" />
    <glyph glyph-name="numbersign" unicode="#" horiz-adv-x="474" 
d="M226 748l-8 -85h58l7 85h101l-7 -85h72v-95h-79l-5 -66h85v-95h-92l-8 -107h-101l8 107h-58l-8 -107h-101l8 107h-74v95h82l5 66h-87v95h94l7 85h101zM268 568h-58l-5 -66h58z" />
    <glyph glyph-name="dollar" unicode="$" horiz-adv-x="598" 
d="M574 349l1 -6q0 -247 -208 -279v-65h-166v65q-44 5 -88.5 14.5t-66.5 15.5l-22 7v333l8 -3q187 -62 275 -62q66 0 66 37q0 23 -35 32.5t-84.5 12t-99.5 10t-85 35.5t-35 79q0 14 1 21q6 47 51 79t114 46v79h166v-72l175 -17v-168q-154 42 -240 42q-58 0 -58 -24
q0 -13 24.5 -21t61.5 -11t79.5 -13.5t79.5 -26.5t61.5 -52t24.5 -88z" />
    <glyph glyph-name="percent" unicode="%" horiz-adv-x="822" 
d="M604 800h95l-480 -800h-95zM225 732q-25 0 -42.5 -18.5t-17.5 -44.5t17.5 -44.5t42.5 -18.5t42.5 18.5t17.5 44.5t-17.5 44.5t-42.5 18.5zM225 799q84 0 143.5 -55.5t59.5 -133.5t-59.5 -133.5t-143.5 -55.5t-143.5 55.5t-59.5 133.5t59.5 133.5t143.5 55.5zM597 312
q-25 0 -42.5 -18.5t-17.5 -44.5t17.5 -44.5t42.5 -18.5t42.5 18.5t17.5 44.5t-17.5 44.5t-42.5 18.5zM597 379q84 0 143.5 -55.5t59.5 -133.5t-59.5 -133.5t-143.5 -55.5t-143.5 55.5t-59.5 133.5t59.5 133.5t143.5 55.5z" />
    <glyph glyph-name="ampersand" unicode="&#x26;" horiz-adv-x="764" 
d="M537 402q-243 16 -307 -26q-34 -22 6 -48q59 -38 191 -38q54 0 110 8v104zM714 402v-400h-177v20q-236 -56 -388 36q-103 63 -128 166.5t43 185.5q57 67 162 93q-154 29 -191 103q-29 60 31 115q79 72 247 80h35q90 0 188 0.5t134.5 0.5t43.5 -1v-186q-26 15 -141 20.5
t-223 -5.5t-112 -35q-3 -11 35.5 -17.5t107.5 -8t130 -1.5t137 1.5t96 1.5v-169h-30z" />
    <glyph glyph-name="quotesingle" unicode="'" horiz-adv-x="187" 
d="M23 800h141l-23 -299h-95z" />
    <glyph glyph-name="parenleft" unicode="(" horiz-adv-x="326" 
d="M304 -129l-1 -2q-90 0 -155.5 78t-96 196.5t-30.5 257.5q0 140 30.5 260t96 200t155.5 80v-37q-61 -1 -110 -87t-72.5 -198.5t-23.5 -216.5q0 -106 22 -214.5t71 -192t114 -84.5v-40z" />
    <glyph glyph-name="parenright" unicode=")" horiz-adv-x="326" 
d="M22 -129l-1 38q49 1 90 50t65.5 124t38 158.5t13.5 160.5q0 76 -14.5 162t-39.5 162.5t-65.5 127.5t-86.5 52v37q90 0 155.5 -80t96 -200t30.5 -260q0 -139 -30.5 -257.5t-96 -196.5t-155.5 -78z" />
    <glyph glyph-name="asterisk" unicode="*" horiz-adv-x="429" 
d="M167 774h95v-76l54 54l67 -67l-54 -54h76v-95h-76l54 -54l-67 -67l-54 54v-76h-95v76l-54 -54l-67 67l54 54h-76v95h76l-54 54l67 67l54 -54v76z" />
    <glyph glyph-name="plus" unicode="+" horiz-adv-x="465" 
d="M177 592h111v-153h153v-112h-153v-153h-111v153h-153v112h153v153z" />
    <glyph glyph-name="comma" unicode="," horiz-adv-x="247" 
d="M222 81l-1 -4q-3 -60 -40.5 -99.5t-92.5 -39.5q-15 0 -30 3v52q14 -6 38 -6q32 0 49 13q-14 -2 -22 -2q-41 0 -69.5 24.5t-28.5 58.5t28.5 58.5t69.5 24.5t70 -24.5t29 -58.5z" />
    <glyph glyph-name="hyphen" unicode="-" horiz-adv-x="474" 
d="M27 334v100h421v-100h-421z" />
    <glyph glyph-name="period" unicode="." horiz-adv-x="246" 
d="M25 80q0 83 98 83t98 -83t-98 -83t-98 83z" />
    <glyph glyph-name="slash" unicode="/" horiz-adv-x="619" 
d="M502 800h95l-480 -800h-95z" />
    <glyph glyph-name="zero" unicode="0" horiz-adv-x="840" 
d="M614 448q0 83 -60 128.5t-142 45.5q-83 0 -144 -46t-61 -127q0 -79 61.5 -124t145.5 -45q82 0 141 44t59 124zM420 800q165 0 281.5 -117t116.5 -283t-116.5 -283t-281.5 -117t-281.5 117t-116.5 283t116.5 283t281.5 117z" />
    <glyph glyph-name="one" unicode="1" horiz-adv-x="354" 
d="M25 741l304 60v-800h-304v740z" />
    <glyph glyph-name="two" unicode="2" horiz-adv-x="785" 
d="M320 299h441v-299h-737v299q1 0 35 11t73 25t92.5 34.5t101 44t89 48.5t66.5 52.5t25 52.5q0 66 -132 66q-85 0 -196 -24t-154 -42v207q3 0 21.5 3t49 6.5t71.5 7.5t101 6.5t125 2.5q186 0 277.5 -46.5t91.5 -164.5q0 -65 -45.5 -118.5t-110.5 -84t-129.5 -51.5
t-109.5 -29z" />
    <glyph glyph-name="three" unicode="3" horiz-adv-x="780" 
d="M267 398v129h4q37 0 86.5 5.5t97.5 21t48 38.5q0 58 -125 58q-93 0 -210 -29t-144 -54v207q3 0 21.5 3t49 6.5t71.5 7.5t101 6.5t125 2.5q146 0 234.5 -57t88.5 -132q0 -54 -50.5 -97.5t-149.5 -62.5q120 -3 181.5 -54t61.5 -127q0 -102 -101.5 -186t-264.5 -84
q-65 0 -125 2.5t-101 6.5t-71.5 7.5t-49 6.5t-21.5 3v352q35 -37 144.5 -65.5t207.5 -28.5q125 0 132 50v6q0 61 -155 61q-23 0 -53 -1.5t-33 -1.5z" />
    <glyph glyph-name="four" unicode="4" horiz-adv-x="781" 
d="M383 797h304v-341h72v-129h-72v-330h-304v330h-360v129zM308 456h75v77z" />
    <glyph glyph-name="five" unicode="5" horiz-adv-x="779" 
d="M260 536q37 8 76 13t60 6l20 1q163 -1 252 -79.5t89 -187.5q0 -54 -24 -105t-68 -92.5t-115.5 -66.5t-158.5 -25q-65 0 -125 2.5t-101 6.5t-71.5 7.5t-49 6.5t-21.5 3v308q28 -16 117.5 -32.5t173.5 -16.5q187 0 187 89q0 53 -144 53q-118 0 -292 -29l-15 402h3h646v-188
h-442z" />
    <glyph glyph-name="six" unicode="6" horiz-adv-x="778" 
d="M670 527q-107 88 -241 88q-85 0 -155.5 -38t-103.5 -103q98 68 256 68q64 0 121.5 -14t105 -42.5t75.5 -76.5t28 -110q0 -79 -29 -138.5t-80.5 -93.5t-114 -50.5t-136.5 -16.5q-136 0 -237.5 75t-123.5 173q-13 58 -13 114q0 129 66.5 230t172.5 153.5t229 52.5
q93 0 183 -33zM366 277q77 0 131.5 17.5t55.5 50.5v1q0 33 -54.5 52t-129.5 19q-79 0 -137.5 -20.5t-58.5 -57.5q0 -28 58 -45t135 -17z" />
    <glyph glyph-name="seven" unicode="7" horiz-adv-x="782" 
d="M759 617l-345 -613h-391l536 613h-536v188h466h270v-188z" />
    <glyph glyph-name="eight" unicode="8" horiz-adv-x="779" 
d="M366 800q99 0 169 -52.5t70 -122.5q0 -71 -73 -124q111 -16 168 -76.5t57 -140.5q0 -110 -97 -197t-256 -87h-15h-13q-158 0 -256 94t-98 208q0 76 48.5 130.5t142.5 68.5q-88 55 -88 127q0 68 72.5 120t168.5 52zM378 454q-69 0 -106.5 -24t-37.5 -61t37.5 -61
t106.5 -24t107 24t38 61t-38 61t-107 24zM377 612q-36 0 -61.5 -12.5t-25.5 -29.5t25.5 -30t61.5 -13t61.5 13t25.5 30t-25.5 29.5t-61.5 12.5z" />
    <glyph glyph-name="nine" unicode="9" horiz-adv-x="784" 
d="M53 366q59 -41 139.5 -64t160.5 -23q100 0 171 37.5t85 112.5q-31 -35 -111.5 -58.5t-171.5 -23.5q-81 0 -146.5 18.5t-111.5 66.5t-46 121q0 68 52 124.5t135 87.5t176 31q135 0 236 -75t123 -173q18 -79 18 -149q0 -186 -118.5 -292.5t-334.5 -106.5q-119 0 -253 32z
M417 607q-76 0 -131.5 -20t-55.5 -56q0 -28 54 -43t129 -15q78 0 136.5 16.5t58.5 45.5q0 33 -57 52.5t-134 19.5z" />
    <glyph glyph-name="colon" unicode=":" horiz-adv-x="247" 
d="M121 613q41 0 69.5 -24.5t28.5 -58.5t-28.5 -58.5t-69.5 -24.5t-69.5 24.5t-28.5 58.5t28.5 58.5t69.5 24.5zM127 167q41 0 69.5 -24.5t28.5 -58.5t-28.5 -58.5t-69.5 -24.5t-69.5 24.5t-28.5 58.5t28.5 58.5t69.5 24.5z" />
    <glyph glyph-name="semicolon" unicode=";" horiz-adv-x="244" 
d="M220 81l-1 -4q-3 -60 -40.5 -99.5t-92.5 -39.5q-15 0 -30 3v52q14 -6 38 -6q32 0 49 13q-14 -2 -22 -2q-41 0 -69.5 24.5t-28.5 58.5t28.5 58.5t69.5 24.5t70 -24.5t29 -58.5zM22 528q0 83 98 83q99 0 99 -83t-99 -83q-98 0 -98 83z" />
    <glyph glyph-name="less" unicode="&#x3c;" horiz-adv-x="497" 
d="M473 136l-449 172v151l449 173v-127l-321 -121l321 -121v-127z" />
    <glyph glyph-name="equal" unicode="=" horiz-adv-x="378" 
d="M26 364h326v-95h-326v95zM25 490h326v-95h-326v95z" />
    <glyph glyph-name="greater" unicode="&#x3e;" horiz-adv-x="497" 
d="M24 134v127l321 121l-321 121v127l449 -173v-151z" />
    <glyph glyph-name="question" unicode="?" horiz-adv-x="452" 
d="M132 591h2q-41 0 -108 -13v205q71 17 135 17q132 0 201.5 -67.5t69.5 -163.5q0 -86 -55.5 -156t-151.5 -87h94v-97h-175v97q5 2 13 5.5t28.5 16.5t36.5 29.5t29 45t13 61.5q0 107 -132 107zM215 165q41 0 69.5 -24.5t28.5 -58.5t-28.5 -58.5t-69.5 -24.5t-69.5 24.5
t-28.5 58.5t28.5 58.5t69.5 24.5z" />
    <glyph glyph-name="at" unicode="@" horiz-adv-x="804" 
d="M518 143q-12 -39 -39 -57t-79 -18q-27 0 -59 17t-61 47t-49 77.5t-20 100.5q-1 53 13.5 101.5t38.5 84.5t57 59t68.5 28.5t73.5 -11.5t70 -57l4 -106q0 -22 15 -37t37 -18.5t44 0.5t38.5 20.5t17.5 41.5q0 102 -101 163q-96 58 -221 44q-137 -14 -210 -109
q-62 -82 -56 -206q6 -77 33 -135.5t71 -94.5t101.5 -53.5t124 -15t138.5 23.5v-175q-93 -41 -176.5 -42.5t-148.5 32.5t-114 96t-76.5 152t-30.5 198q0 238 135 372q105 104 247.5 106t246.5 -98q133 -129 131 -366v-7q-1 -43 -8.5 -79t-19 -59.5t-27.5 -41.5t-30 -27.5
t-30.5 -15.5t-25.5 -8t-18 -2q-34 -2 -63.5 19t-41.5 56zM391 499q-24 -1 -41 -16.5t-21.5 -37t-1 -43t20.5 -36.5t43 -14q24 0 43 15.5t25 37.5t3.5 44t-21.5 36.5t-50 13.5z" />
    <glyph glyph-name="A" unicode="A" horiz-adv-x="736" 
d="M360 202l-40 166l-41 -166h81zM248 73l-18 -73h-211l195 802h308l195 -802h-309l-17 73h-143z" />
    <glyph glyph-name="B" unicode="B" horiz-adv-x="781" 
d="M486 476q125 -3 200.5 -51t75.5 -147v-7q-1 -55 -24 -99.5t-63.5 -73t-88 -48.5t-107.5 -30.5t-113 -14.5t-112 -4q-50 0 -102 2.5t-85.5 5.5t-38.5 3h-3v194v366v211q0 1 30.5 5.5t87.5 8.5t113 4t105 -4t100 -15.5t87 -30t59 -49t23 -70.5v-1q0 -55 -40.5 -98
t-103.5 -57zM462 351q0 50 -99 50h-10.5t-9.5 -0.5t-7 -1t-5 -0.5h-2v-98q20 -2 31 -2q43 0 72.5 13.5t29.5 38.5zM446 574q0 21 -27 31.5t-62 10.5q-12 0 -28 -2v-86q5 -1 17 -1q35 0 67.5 12t32.5 35z" />
    <glyph glyph-name="C" unicode="C" horiz-adv-x="779" 
d="M755 523q-130 88 -242 88q-86 0 -137.5 -49.5t-52.5 -120.5v-1q0 -63 56 -102t147 -39q109 0 229 58v-271q-123 -86 -281 -86q-188 0 -321.5 117t-133.5 283t133.5 283t321.5 117q158 0 281 -86v-191z" />
    <glyph glyph-name="D" unicode="D" horiz-adv-x="781" 
d="M334 800q176 0 301.5 -117t125.5 -283t-125 -283t-302 -117q-103 0 -309 8v784q254 8 309 8zM328 299q60 0 94.5 33.5t34.5 96.5q0 64 -32.5 102t-96.5 40v-272z" />
    <glyph glyph-name="E" unicode="E" horiz-adv-x="741" 
d="M25 0v800h690v-189h-386v-44h386v-189h-386v-79h386v-299h-690z" />
    <glyph glyph-name="F" unicode="F" horiz-adv-x="739" 
d="M25 0v800h690v-189h-386v-44h228v-189h-228v-378h-304z" />
    <glyph glyph-name="G" unicode="G" horiz-adv-x="779" 
d="M755 523q-122 58 -231 58q-91 0 -146 -40.5t-55 -99.5q0 -58 48 -96.5t128 -44.5v98v2v80h256v-258v-136q-123 -86 -281 -86q-188 0 -321.5 117t-133.5 283t133.5 283t321.5 117q158 0 281 -86v-191z" />
    <glyph glyph-name="H" unicode="H" horiz-adv-x="834" 
d="M25 800h304v-233h176v233h304v-800h-304v378h-176v-378h-304v800z" />
    <glyph glyph-name="I" unicode="I" horiz-adv-x="354" 
d="M25 0v800h304v-800h-304z" />
    <glyph glyph-name="J" unicode="J" horiz-adv-x="480" 
d="M152 800h305v-502q0 -52 -22 -102.5t-64.5 -95.5t-115.5 -72.5t-166 -27.5q-31 0 -66 3v301q20 -8 47 -8q34 0 58 20.5t24 61.5v422z" />
    <glyph glyph-name="K" unicode="K" horiz-adv-x="781" 
d="M25 0v781v18h304v-233q55 0 66 39t11 183v11h300q-1 -12 -3 -31.5t-15 -71t-32.5 -92.5t-59 -78.5t-91.5 -46.5q44 -1 80.5 -11t62 -29t45 -41t31.5 -54.5t20 -61.5t11.5 -69.5t4.5 -71t1 -73.5v-69h-304v14q0 234 -19 300t-109 67v-380h-304z" />
    <glyph glyph-name="L" unicode="L" horiz-adv-x="739" 
d="M25 0v800h304v-501h386v-299h-690z" />
    <glyph glyph-name="M" unicode="M" horiz-adv-x="905" 
d="M576 800h304v-188v-612h-304v299l-124 -299l-124 299v-299h-303v612v188h303l124 -188z" />
    <glyph glyph-name="N" unicode="N" horiz-adv-x="786" 
d="M761 800v-800h-309l-124 299v-299h-303v800h303l124 -188v188h309z" />
    <glyph glyph-name="O" unicode="O" horiz-adv-x="914" 
d="M468 567q-52 0 -89 -39t-37 -95t37 -95t89 -39q53 0 90 39.5t37 94.5t-37 94.5t-90 39.5zM466 800q177 0 302.5 -117t125.5 -283t-125.5 -283t-302.5 -117t-302 117t-125 283t125 283t302 117z" />
    <glyph glyph-name="P" unicode="P" horiz-adv-x="725" 
d="M25 0v211v365v211q127 13 217 13h61.5t65 -2t70 -5.5t66.5 -10t64.5 -16t53.5 -24.5t44.5 -34t27.5 -45.5t11 -58.5q0 -48 -31.5 -87.5t-77 -63t-100 -40t-97.5 -23t-72 -6.5v-384h-303zM489 563q-2 28 -42 41t-83 13q-3 0 -35 -4v-114q20 -4 29 -4q19 0 39 3t42 9.5
t36 21t14 34.5z" />
    <glyph glyph-name="Q" unicode="Q" horiz-adv-x="898" 
d="M413 567q-41 0 -66 -44t-25 -100q0 -51 22 -87.5t62 -36.5q46 0 70.5 39t24.5 93t-24 95t-64 41zM634 1q-3 -1 -10 -1q-39 0 -59 37q-76 -37 -161 -37q-159 0 -271.5 117t-112.5 283t112.5 283t271.5 117t271.5 -117t112.5 -283q0 -49 -13 -101h100v-299h-241v1z" />
    <glyph glyph-name="R" unicode="R" horiz-adv-x="784" 
d="M476 475q279 0 285 -191q0 -1 0.5 -3.5t0.5 -3.5t-0.5 -3.5t-0.5 -3.5v-270h-300v350q0 50 -98 50h-10.5t-9.5 -0.5t-7 -1t-5 -0.5h-2v-398h-304v571v211q0 1 37 5.5t106.5 8.5t137.5 4q86 0 160 -7.5t143.5 -25t110 -52.5t40.5 -85q0 -142 -284 -155zM466 573
q0 21 -32.5 31.5t-72.5 10.5q-15 0 -31 -2v-86q5 -1 18 -1q40 0 79 12t39 35z" />
    <glyph glyph-name="S" unicode="S" horiz-adv-x="779" 
d="M760 299q0 -72 -20.5 -126.5t-53.5 -86.5t-82 -52t-99.5 -27t-112.5 -7q-85 0 -177 14.5t-141 29.5l-50 14v320l-1 1l25 -9q25 -8 67 -20.5t89.5 -24.5t100.5 -21t93 -9q106 0 106 62q0 27 -34.5 41t-86 16t-112 9.5t-112 20t-86 50t-34.5 96.5q0 10 2 30
q11 85 112.5 132.5t239.5 47.5q56 0 119.5 -7t98.5 -13l35 -7v-206q-140 46 -234 46q-84 0 -84 -46q0 -18 32 -30t80 -19t104 -21.5t104 -34.5t80 -62t32 -101z" />
    <glyph glyph-name="T" unicode="T" horiz-adv-x="777" 
d="M756 800v-188h-219v-612h-304v612h-213v188h736z" />
    <glyph glyph-name="U" unicode="U" horiz-adv-x="782" 
d="M327 800v-422q18 -78 61 -78q23 0 42 22.5t24 55.5v421h305v-504q0 -71 -31 -128.5t-82.5 -93t-116 -54.5t-134.5 -19q-71 0 -136.5 19.5t-118.5 55.5t-85 94t-32 129v502h304z" />
    <glyph glyph-name="V" unicode="V" horiz-adv-x="736" 
d="M522 0h-308l-195 800h309l95 -501l83 501h211z" />
    <glyph glyph-name="W" unicode="W" horiz-adv-x="959" 
d="M407 0h-248l-140 800h303l35 -219q111 190 126 219l121 -219l30 219h306l-135 -800h-241l-82 299z" />
    <glyph glyph-name="X" unicode="X" horiz-adv-x="771" 
d="M19 800h353l45 -124l60 124h211l-165 -321l229 -479h-344l-60 144l-76 -144h-211l179 341z" />
    <glyph glyph-name="Y" unicode="Y" horiz-adv-x="735" 
d="M518 480v-480h-304v480l-195 320h308l88 -188l90 188h211z" />
    <glyph glyph-name="Z" unicode="Z" horiz-adv-x="779" 
d="M451 299h305v-299h-736l390 612h-390v188h736z" />
    <glyph glyph-name="bracketleft" unicode="[" horiz-adv-x="190" 
d="M168 5v-140h-143v1077h143v-140h-74v-797h74z" />
    <glyph glyph-name="backslash" unicode="\" horiz-adv-x="619" 
d="M117 800l480 -800h-95l-480 800h95z" />
    <glyph glyph-name="bracketright" unicode="]" horiz-adv-x="190" 
d="M22 5h74v797h-74v140h143v-1077h-143v140z" />
    <glyph glyph-name="asciicircum" unicode="^" horiz-adv-x="352" 
d="M23 613l77 188h153l76 -188h-100l-57 48l-58 -48h-91z" />
    <glyph glyph-name="underscore" unicode="_" horiz-adv-x="528" 
d="M28 -132v95h472v-95h-472z" />
    <glyph glyph-name="grave" unicode="`" horiz-adv-x="271" 
d="M183 957l60 -138h-86l-129 138h155z" />
    <glyph glyph-name="a" unicode="a" horiz-adv-x="674" 
d="M344 550q126 0 216 -41t90 -99v-407h-272v13q-46 -13 -91 -13q-110 0 -188.5 63.5t-78.5 153.5q0 53 21 92.5t57 61t77 31.5t87 10q62 0 115 -15v31q0 28 -70 28q-36 0 -87 -7t-97 -15.5t-47 -8.5l2 104q24 4 129.5 11t136.5 7zM377 276v82q-26 6 -58 6q-111 0 -111 -51
q0 -42 109 -42q40 0 60 5z" />
    <glyph glyph-name="b" unicode="b" horiz-adv-x="747" 
d="M25 800h273l-1 -272q82 24 156 24q132 0 203 -73.5t71 -179.5q0 -75 -34.5 -142.5t-106 -113t-165.5 -45.5q-62 0 -123 18v-16h-273v800zM298 449l-3 -180q41 -20 77 -20q50 0 78.5 35t28.5 81q0 43 -25.5 74t-72.5 31q-38 0 -83 -21z" />
    <glyph glyph-name="c" unicode="c" horiz-adv-x="552" 
d="M361 550q89 0 167 -35v-97q-50 40 -130 40q-74 0 -114.5 -30t-40.5 -72t40.5 -72t114.5 -30q81 0 130 39v-257q-78 -35 -168 -35q-161 0 -250.5 81.5t-89.5 192.5t90 193t251 82z" />
    <glyph glyph-name="d" unicode="d" horiz-adv-x="746" 
d="M721 800v-800h-272v16q-61 -18 -124 -18q-94 0 -165.5 45.5t-105.5 113t-34 142.5q0 106 70.5 179.5t202.5 73.5q75 0 157 -24l-1 272h272zM449 449q-45 21 -84 21q-47 0 -72 -31t-25 -74q0 -46 28.5 -81t78.5 -35q36 0 77 20z" />
    <glyph glyph-name="e" unicode="e" horiz-adv-x="630" 
d="M320 550q106 0 187 -61t104 -154h-424q1 -45 53 -68.5t132 -23.5q121 0 229 46l1 -254q-136 -34 -245 -34q-153 0 -244.5 66t-91.5 207q0 114 87.5 195t211.5 81zM394 422q-38 49 -101 49q-64 0 -98 -49h199z" />
    <glyph glyph-name="f" unicode="f" horiz-adv-x="547" 
d="M71 599q0 58 30 99t80.5 62t104 30t113.5 9q73 0 126 -10l2 -131q-68 40 -106 40q-73 0 -73 -135v-13h164v-99h-164q0 -68 1 -205.5t1 -203.5v-42h-279v451h-52v99h52v49z" />
    <glyph glyph-name="g" unicode="g" horiz-adv-x="759" 
d="M472 522l5 28h256l2 -471q-7 -93 -66 -155t-144.5 -87.5t-194.5 -25.5q-84 0 -183 21l1 156q93 -58 166 -58q74 0 111.5 33t49.5 108q-32 -25 -62 -40.5t-63 -21.5t-50 -7t-53 -1q-102 0 -164 81t-62 189q0 53 17 101.5t51 88.5t90.5 63.5t128.5 23.5q74 0 164 -26z
M471 440q-27 7 -53 7q-63 0 -95.5 -39.5t-32.5 -95.5q0 -57 32 -100.5t85 -43.5q30 0 65 16z" />
    <glyph glyph-name="h" unicode="h" horiz-adv-x="701" 
d="M25 800h293v-279q72 28 144 28q91 0 150.5 -48.5t65.5 -142.5v-357h-251l2 384q-3 22 -14.5 37t-32.5 15q-27 0 -64 -27v-409h-293v799z" />
    <glyph glyph-name="i" unicode="i" horiz-adv-x="323" 
d="M25 550h274v-553h-274v553zM162 749q57 0 97 -23t40 -55t-40 -55t-97 -23t-97 23t-40 55t40 55t97 23z" />
    <glyph glyph-name="j" unicode="j" horiz-adv-x="412" 
d="M252 749q57 0 97 -23t40 -55q0 -37 -40.5 -57.5t-96.5 -20.5t-96.5 20.5t-40.5 57.5q0 32 40 55t97 23zM115 552h273q0 -80 0.5 -247t0.5 -250q-31 -230 -370 -244v172q14 -2 19 -2q37 0 57 20.5t20 55.5v495z" />
    <glyph glyph-name="k" unicode="k" horiz-adv-x="705" 
d="M25 0v800h272q0 -32 0.5 -206t0.5 -205q42 0 60 33.5t18 126.5h245v-20q0 -25 -3.5 -51t-13.5 -60t-34.5 -58.5t-60.5 -30.5q48 -1 82 -19t52 -43t28 -66t12 -73.5t2 -80.5v-47h-274q0 153 -23.5 206.5t-89.5 54.5v-261h-273z" />
    <glyph glyph-name="l" unicode="l" horiz-adv-x="324" 
d="M25 0v800h274v-800h-274z" />
    <glyph glyph-name="m" unicode="m" horiz-adv-x="987" 
d="M25 550h274v-28q74 28 140 28q81 0 130 -42q105 42 188 42q92 0 145.5 -49.5t60.5 -142.5l1 -358h-252l-1 388q0 49 -33 49q-18 0 -43 -14v-423h-252l-3 386q0 4 -1 11t-10 18t-24 11q-21 0 -46 -16v-410h-274v550z" />
    <glyph glyph-name="n" unicode="n" horiz-adv-x="658" 
d="M25 549h272v-27q74 28 140 28q85 0 137.5 -48.5t59.5 -143.5v-358h-251l-3 391v5q0 33 -29 33q-21 0 -54 -19v-411h-272v550z" />
    <glyph glyph-name="o" unicode="o" horiz-adv-x="624" 
d="M311 453q-36 0 -61.5 -27t-25.5 -65t25.5 -65.5t61.5 -27.5t61.5 27.5t25.5 65.5t-25.5 65t-61.5 27zM311 550q122 0 208 -80.5t86 -194.5t-86 -195t-208 -81t-208.5 81t-86.5 195t86.5 194.5t208.5 80.5z" />
    <glyph glyph-name="p" unicode="p" horiz-adv-x="740" 
d="M25 -189l1 735h269v-15q70 19 132 19q137 0 215 -85t78 -199q0 -109 -72 -187.5t-202 -78.5q-74 0 -152 25l1 -214h-270zM295 188q35 -16 66 -16q56 0 89 48.5t33 112.5q0 61 -31.5 104.5t-89.5 43.5q-28 0 -67 -14v-279z" />
    <glyph glyph-name="q" unicode="q" horiz-adv-x="741" 
d="M716 -189h-270l1 214q-78 -25 -151 -25q-131 0 -203 78.5t-72 187.5q0 114 78 199t215 85q62 0 132 -19v15h270v-735zM446 188v279q-39 14 -67 14q-58 0 -89.5 -43.5t-31.5 -104.5q0 -64 33 -112.5t89 -48.5q31 0 66 16z" />
    <glyph glyph-name="r" unicode="r" horiz-adv-x="465" 
d="M25 550h276v-39q12 13 51.5 25.5t75.5 12.5h14v-164q-54 18 -84 18q-57 0 -57 -50v-353h-276v550z" />
    <glyph glyph-name="s" unicode="s" horiz-adv-x="496" 
d="M477 236q0 -71 -19.5 -119.5t-54.5 -72.5t-73 -33.5t-86 -9.5q-51 0 -106 8.5t-84 16.5l-30 9v273h-1l40 -13q40 -13 98.5 -26.5t95.5 -13.5q54 0 54 30q0 19 -28.5 27t-69.5 10t-82 8t-69.5 29.5t-28.5 65.5q0 11 1 17q6 51 67 79.5t144 28.5q34 0 85 -4t86 -8l34 -4
v-138q-127 34 -198 34q-46 0 -46 -19q0 -13 28 -19t68 -12t79.5 -18t67.5 -44t28 -82z" />
    <glyph glyph-name="t" unicode="t" horiz-adv-x="509" 
d="M65 172v26v88v110v65h-46v89h46v255h277v-40q0 -28 -0.5 -101t-0.5 -114h146v-89h-146q0 -35 -0.5 -94.5t-0.5 -80.5h1v-88v-14q0 -88 54 -88q36 0 92 31v-119q-58 -10 -121 -10q-55 0 -104 8t-95.5 26t-74 54t-27.5 86z" />
    <glyph glyph-name="u" unicode="u" horiz-adv-x="656" 
d="M631 1h-274v28q-76 -28 -138 -28q-84 0 -136 48.5t-59 142.5v355h250l3 -394q0 -14 8 -25t23 -11q22 0 49 22v408h274v-546z" />
    <glyph glyph-name="v" unicode="v" horiz-adv-x="592" 
d="M440 4h-288l-133 546h271l65 -342l56 342h162z" />
    <glyph glyph-name="w" unicode="w" horiz-adv-x="985" 
d="M440 4h-288l-133 546h271l65 -342l56 342h1h270l66 -342l56 342h162l-133 -546h-288l-53 215z" />
    <glyph glyph-name="x" unicode="x" horiz-adv-x="573" 
d="M19 550h273l31 -85l44 85h145l-115 -220l157 -330h-267l-42 99l-52 -99h-145l123 234z" />
    <glyph glyph-name="y" unicode="y" horiz-adv-x="660" 
d="M359 27q-73 -27 -138 -27q-85 0 -137.5 48.5t-59.5 143.5v358h222l3 -397q0 -13 15.5 -25t37.5 -12q30 0 58 23v411h275v-474q-9 -135 -99.5 -201t-232.5 -66q-117 0 -244 49l1 157q104 -77 183 -77q99 0 116 89z" />
    <glyph glyph-name="z" unicode="z" horiz-adv-x="602" 
d="M370 269h209v-269h-560l268 421h-264v129h556z" />
    <glyph glyph-name="braceleft" unicode="{" horiz-adv-x="263" 
d="M59 367l-37 12v62l37 11q40 42 52.5 103.5t12.5 150.5v59q0 49 3 79.5t14 61.5t35 46t62 15h3v-142h-3q-29 0 -39 -26t-10 -76q0 -15 1 -51t1 -55q0 -154 -68 -207q68 -53 68 -207q0 -19 -1 -55t-1 -51q0 -50 10 -76t39 -26h3v-138h-3q-38 0 -62 14.5t-35 45.5t-14 61
t-3 78v59q0 88 -12.5 149t-52.5 103z" />
    <glyph glyph-name="bar" unicode="|" horiz-adv-x="119" 
d="M25 -3v804h69v-804h-69z" />
    <glyph glyph-name="braceright" unicode="}" horiz-adv-x="263" 
d="M204 367v-1q-40 -42 -52.5 -103t-12.5 -149v-59q0 -48 -3 -78t-14 -61t-35 -45.5t-62 -14.5h-3v138h3q29 0 39 26t10 76q0 15 -1 51t-1 55q0 154 68 207q-68 53 -68 207q0 19 1 55t1 51q0 50 -10 76t-39 26h-3v142h3q38 0 62 -15t35 -46t14 -61.5t3 -79.5v-59
q0 -89 12.5 -150.5t52.5 -103.5l37 -11v-62z" />
    <glyph glyph-name="asciitilde" unicode="~" horiz-adv-x="607" 
d="M583 403l-142 1q-3 28 -19.5 41.5t-38.5 13.5q-25 0 -132.5 -28t-140.5 -28q-83 0 -86 139h142q3 -40 45 -40q21 0 125 18.5t137 18.5q102 0 110 -136z" />
    <glyph glyph-name="uni007F" 
 />
    <glyph glyph-name="uni00A0" unicode="&#xa0;" 
 />
    <glyph glyph-name="exclamdown" unicode="&#xa1;" horiz-adv-x="287" 
d="M152 634q-41 0 -70 24.5t-29 58.5t29 58.5t70 24.5t69.5 -24.5t28.5 -58.5t-28.5 -58.5t-69.5 -24.5zM22 0l30 569h183l30 -569h-243z" />
    <glyph glyph-name="cent" unicode="&#xa2;" horiz-adv-x="398" 
d="M292 610l-1 -4q42 -4 82 -22v-67q-35 28 -91 28q-51 0 -79.5 -21t-28.5 -49t28.5 -49t79.5 -21q56 0 91 28v-179q-40 -18 -82 -22v-233h-95v236q-84 15 -129.5 67.5t-45.5 117.5t46 118t130 69v193h95v-190z" />
    <glyph glyph-name="sterling" unicode="&#xa3;" horiz-adv-x="683" 
d="M76 607h1q0 56 31.5 95.5t84.5 60t109 29t119 8.5q79 0 141 -11l2 -101q-62 6 -81 6q-51 0 -74.5 -22t-23.5 -81v-13h163v-99h-164v-180h276v-299h-275h-309h-52v299h52v180h-52v99h52v29z" />
    <glyph glyph-name="currency" unicode="&#xa4;" horiz-adv-x="491" 
d="M469 524l-69 -71q15 -33 15 -71q0 -32 -13 -65l68 -68l-87 -87l-65 65q-36 -17 -76 -17q-38 0 -71 15l-62 -62l-87 87l62 62q-16 35 -16 72q0 40 17 76l-64 64l87 87l67 -67q33 13 65 13q37 0 72 -16l70 70zM245 504q-45 0 -77 -32t-32 -77t32 -77t77 -32t77 32t32 77
t-32 77t-77 32z" />
    <glyph glyph-name="yen" unicode="&#xa5;" horiz-adv-x="742" 
d="M521 419l-2 -41h137v-79h-137v-299h-304v299h-132v79h132v41h-132v79h121l-184 302h309l88 -188l91 188h211l-187 -302h126v-79h-137z" />
    <glyph glyph-name="brokenbar" unicode="&#xa6;" horiz-adv-x="110" 
d="M25 801h60v-360h-60v360zM25 361h60v-360h-60v360z" />
    <glyph glyph-name="section" unicode="&#xa7;" horiz-adv-x="432" 
d="M410 120q-6 -154 -355 -110v187q7 -3 18.5 -7t43.5 -14t60 -17t57 -12.5t46 -2.5t17 15q0 15 -30 28t-71.5 27t-83 33.5t-68 55t-22.5 83.5q8 104 73 144q-78 50 -74 150q6 154 355 110v-187q-7 3 -18.5 7t-43.5 14t-60 17t-57 12.5t-46 2.5t-17 -15q0 -15 30 -28
t71.5 -27t83 -33.5t68 -55t22.5 -83.5q-8 -104 -73 -144q78 -50 74 -150zM141 386q1 -46 45 -53q43 -6 79 25q27 24 27 56q-1 46 -45 53q-43 6 -79 -25q-27 -24 -27 -56z" />
    <glyph glyph-name="dieresis" unicode="&#xa8;" horiz-adv-x="496" 
d="M129 968q44 0 72.5 -21t28.5 -57t-28 -53.5t-73 -17.5t-73 17.5t-28 53.5t28.5 57t72.5 21zM368 968q44 0 72.5 -21t28.5 -57t-28 -53.5t-73 -17.5t-73 17.5t-28 53.5t28.5 57t72.5 21z" />
    <glyph glyph-name="copyright" unicode="&#xa9;" horiz-adv-x="868" 
d="M437 763q84 0 160 -29.5t131 -79t87.5 -118t32.5 -144.5q0 -101 -55 -186.5t-149.5 -135t-206.5 -49.5t-206.5 49.5t-149.5 135t-55 186.5q0 76 32.5 144.5t87.5 118t131 79t160 29.5zM634 478q-81 55 -150 55q-35 0 -62.5 -15t-41 -38.5t-13.5 -52.5q0 -39 35 -63
t91 -24q67 0 141 36v-169q-75 -54 -174 -54q-118 0 -200.5 73t-82.5 176t82.5 176t200.5 73q99 0 174 -54v-119zM437 700q-93 0 -171.5 -41.5t-124 -112t-45.5 -154.5q0 -63 27 -120t72.5 -98t108.5 -65.5t133 -24.5t133 24.5t108.5 65.5t72.5 98t27 120q0 84 -45.5 154.5
t-124 112t-171.5 41.5z" />
    <glyph glyph-name="ordfeminine" unicode="&#xaa;" horiz-adv-x="404" 
d="M209 799l1 -2q72 0 123 -23.5t51 -56.5v-233h-155v8q-24 -8 -53 -8q-62 0 -107 37t-45 88q0 41 22 68t54.5 35.5t66 8.5t61.5 -8v17q0 8 -8.5 11.5t-22.5 4t-30.5 -0.5t-35 -4t-33 -5.5t-27 -5t-15.5 -2.5l2 60q13 3 73.5 7t77.5 4zM229 640v48q-14 2 -35 3t-41 -7
t-20 -22q0 -13 20.5 -19t42 -6t33.5 3zM25 378v69h359v-69h-359z" />
    <glyph glyph-name="guillemotleft" unicode="&#xab;" horiz-adv-x="556" 
d="M532 97l-281 232v111l280 233v-127l-184 -161l185 -161v-127zM301 97l-281 232v111l280 233v-127l-184 -161l185 -161v-127z" />
    <glyph glyph-name="logicalnot" unicode="&#xac;" horiz-adv-x="482" 
d="M18 441h442v-95v-145h-95v145h-347v95z" />
    <glyph glyph-name="uni00AD" unicode="&#xad;" horiz-adv-x="395" 
d="M27 333v100h342v-100h-342z" />
    <glyph glyph-name="registered" unicode="&#xae;" horiz-adv-x="866" 
d="M497 464l-1 2q158 0 162 -109v-8v-153h-170v198q0 28 -56 28q-5 0 -9 -0.5t-7 -1l-3 -0.5v-226h-173v324v120q0 1 21 3t61 4.5t78 2.5q49 0 91 -4t81.5 -14t62.5 -30t23 -48q0 -25 -15.5 -43t-42 -27t-51 -13t-52.5 -5zM433 774q112 0 206.5 -49.5t149.5 -135t55 -186.5
t-55 -186.5t-149.5 -135t-206.5 -49.5t-206.5 49.5t-149.5 135t-55 186.5q0 76 32.5 144.5t87.5 118t131 79t160 29.5zM433 710q-93 0 -171.5 -41t-124 -111.5t-45.5 -154.5t45.5 -154.5t124 -111.5t171.5 -41q70 0 133 24t108.5 65t72.5 98t27 120q0 84 -45.5 154.5
t-124 111.5t-171.5 41zM490 520h2q0 7 -6 11.5t-15 7.5t-19 4t-20 1q-13 0 -18 -1v-49h10q14 0 28.5 2.5t26 9t11.5 14.5z" />
    <glyph glyph-name="macron" unicode="&#xaf;" horiz-adv-x="500" 
d="M28 871v39h444v-39h-444z" />
    <glyph glyph-name="degree" unicode="&#xb0;" horiz-adv-x="358" 
d="M182 797q65 0 110.5 -45.5t45.5 -110.5t-45.5 -110.5t-110.5 -45.5t-110.5 45.5t-45.5 110.5t45.5 110.5t110.5 45.5zM184.5 728q-34.5 0 -59 -24.5t-24.5 -59t24.5 -59t59 -24.5t59 24.5t24.5 59t-24.5 59t-59 24.5z" />
    <glyph glyph-name="plusminus" unicode="&#xb1;" horiz-adv-x="490" 
d="M197 698h95v-173h173v-95h-173v-173h-95v173h-173v95h173v173zM23 225h442v-95h-442v95z" />
    <glyph glyph-name="uni00B2" unicode="&#xb2;" horiz-adv-x="332" 
d="M138 603l174 1v-117h-288v117q1 1 14 5t28.5 9.5t36 13.5t39.5 17t35 18.5t25.5 20t9.5 20.5q-1 24 -44.5 25t-85 -8.5t-59.5 -16.5v80l17.5 2.5t51.5 5t75 2.5q73 0 108.5 -18t35.5 -64q0 -26 -18 -46.5t-43.5 -32.5t-50.5 -20t-43 -11z" />
    <glyph glyph-name="uni00B3" unicode="&#xb3;" horiz-adv-x="312" 
d="M110 640l-2 52q26 0 59.5 6.5t33.5 19.5q0 22 -42.5 23t-87.5 -10.5t-56 -21.5v80l17.5 2.5t51.5 5t74 2.5q83 0 116 -43q26 -34 -4 -64q-20 -21 -63 -29q76 -2 92 -51q14 -42 -26 -82q-42 -43 -115 -43q-40 0 -74 2.5t-51.5 5l-17.5 2.5v137q14 -15 59 -27t86 -10.5
t44 19.5q1 6 -3 11.5t-11.5 8t-16.5 4t-19.5 2t-18.5 0l-16 -1t-9 -0.5z" />
    <glyph glyph-name="acute" unicode="&#xb4;" horiz-adv-x="271" 
d="M88 957h155l-129 -138h-86z" />
    <glyph glyph-name="mu" unicode="&#xb5;" horiz-adv-x="683" 
d="M659 0l-256 -1v38q-17 -19 -55.5 -29.5t-75.5 -3.5v-168h-246v713h245v-374q0 -21 15 -32.5t36 -13t43 3.5t37 14v403h257v-550z" />
    <glyph glyph-name="mu" unicode="&#x3bc;" horiz-adv-x="683" 
d="M659 0l-256 -1v38q-17 -19 -55.5 -29.5t-75.5 -3.5v-168h-246v713h245v-374q0 -21 15 -32.5t36 -13t43 3.5t37 14v403h257v-550z" />
    <glyph glyph-name="paragraph" unicode="&#xb6;" horiz-adv-x="888" 
d="M863 -1h-227v612h-36v-612h-281v404q-27 0 -53 2.5t-62 8.5t-65.5 20t-55.5 34.5t-41 53.5t-14 75q0 50 39.5 88.5t101 59.5t144 34t161.5 16.5t161.5 2.5t135.5 -4.5t92 -7.5v-787zM188 559v1q0 -27 50 -49t80 -18v120q-34 5 -82 -11t-48 -43z" />
    <glyph glyph-name="periodcentered" unicode="&#xb7;" horiz-adv-x="244" 
d="M122 613q41 0 69.5 -24.5t28.5 -58.5t-28.5 -58.5t-69.5 -24.5t-69.5 24.5t-28.5 58.5t28.5 58.5t69.5 24.5z" />
    <glyph glyph-name="cedilla" unicode="&#xb8;" horiz-adv-x="298" 
d="M143 -12h-1q27 6 48 6q40 0 61 -16.5t21 -41.5q0 -45 -57.5 -84t-155.5 -39q-23 0 -35 1v112q12 -7 51 -16t70 -9q53 0 53 28q0 19 -41 19q-11 0 -86 -10l-2 63h73z" />
    <glyph glyph-name="uni00B9" unicode="&#xb9;" horiz-adv-x="145" 
d="M13 778l119 24v-312h-119v288z" />
    <glyph glyph-name="ordmasculine" unicode="&#xba;" horiz-adv-x="398" 
d="M16 379v69h359v-69h-359zM194 743q-10 0 -19.5 -4.5t-16 -11.5t-10.5 -16.5t-4 -20.5q0 -21 14.5 -36.5t35.5 -15.5q6 0 12.5 2t12 5t10.5 8t8 11t5 12.5t2 13.5q0 22 -15 37.5t-35 15.5zM194 798q69 0 118 -46t49 -110.5t-49 -110.5t-118.5 -46t-118.5 46t-49 111
q0 42 22.5 78t61 57t84.5 21z" />
    <glyph glyph-name="guillemotright" unicode="&#xbb;" horiz-adv-x="556" 
d="M24 96l-2 127l185 161l-184 161v127l280 -233v-111zM251 96l-2 127l185 161l-184 161v127l280 -233v-111z" />
    <glyph glyph-name="onequarter" unicode="&#xbc;" horiz-adv-x="794" 
d="M565 704h108l-543 -621h-108zM61 676l142 28v-375h-142v347zM597 458h142v-160h34v-61h-34v-154h-142v154h-169v61zM562 298h35v36z" />
    <glyph glyph-name="onehalf" unicode="&#xbd;" horiz-adv-x="840" 
d="M565 745h108l-543 -621h-108zM61 717l142 28v-375h-142v347zM612 266l207 -1v-140h-345v140l21 7q21 7 44 15t53 21t53 25.5t39 28t16 29.5q0 28 -52.5 29t-102.5 -10t-71 -20v97q104 13 172 13q87 0 129.5 -21.5t42.5 -76.5q0 -30 -21 -55.5t-51.5 -39.5t-61 -24
t-51.5 -13z" />
    <glyph glyph-name="threequarters" unicode="&#xbe;" horiz-adv-x="854" 
d="M646 704h108l-543 -621h-108zM656 458h142v-160h34v-61h-34v-154h-142v154h-169v61zM621 298h35v36zM138 516l-2 57q31 0 71 7.5t40 23.5q0 26 -51 27t-105.5 -12.5t-67.5 -25.5v97q104 13 172 13q95 0 136 -49q32 -38 3 -75q-25 -29 -81 -40q88 -2 109 -57
q18 -47 -22 -95q-50 -59 -144 -59q-68 0 -172 13v165q17 -18 71.5 -31.5t103.5 -12t52 23.5q1 8 -3.5 14.5t-14 9.5t-20 5t-23 2h-22t-19 -0.5t-11.5 -0.5z" />
    <glyph glyph-name="questiondown" unicode="&#xbf;" horiz-adv-x="452" 
d="M319 210l-2 1q41 0 110 13v-206q-71 -17 -135 -17q-132 0 -201.5 67.5t-69.5 163.5q0 86 55.5 156.5t151.5 87.5h-94v96h175v-96q-5 -2 -13 -5.5t-28.5 -17t-36.5 -30t-29 -45t-13 -61.5q0 -107 130 -107zM237 637q-41 0 -69.5 24.5t-28.5 58.5t28.5 58t69.5 24t69.5 -24
t28.5 -58t-28.5 -58.5t-69.5 -24.5z" />
    <glyph glyph-name="Agrave" unicode="&#xc0;" horiz-adv-x="735" 
d="M359 201l-41 166l-40 -166h81zM246 72l-19 -72h-211l195 800h308l195 -800h-308l-17 72h-143zM398 957l60 -138h-86l-129 138h155z" />
    <glyph glyph-name="Aacute" unicode="&#xc1;" horiz-adv-x="735" 
d="M359 201l-41 166l-40 -166h81zM246 72l-19 -72h-211l195 800h308l195 -800h-308l-17 72h-143zM363 957h155l-129 -138h-86z" />
    <glyph glyph-name="Acircumflex" unicode="&#xc2;" horiz-adv-x="735" 
d="M359 201l-41 166l-40 -166h81zM246 72l-19 -72h-211l195 800h308l195 -800h-308l-17 72h-143zM159 819l133 137h116l133 -137h-128l-63 55l-63 -55h-128z" />
    <glyph glyph-name="Atilde" unicode="&#xc3;" horiz-adv-x="735" 
d="M359 205l-41 166l-40 -166h81zM246 76l-19 -72h-211l195 800h308l195 -800h-308l-17 72h-143zM71 841l-1 1q1 129 101 129q42 0 132 -29t118 -29q44 0 47 43h167q-31 -134 -131 -134q-46 0 -128 32.5t-103 32.5q-35 0 -35 -45z" />
    <glyph glyph-name="Adieresis" unicode="&#xc4;" horiz-adv-x="735" 
d="M244 968q44 0 72.5 -21t28.5 -57t-28 -53.5t-73 -17.5t-73 17.5t-28 53.5t28.5 57t72.5 21zM483 968q44 0 72.5 -21t28.5 -57t-28 -53.5t-73 -17.5t-73 17.5t-28 53.5t28.5 57t72.5 21zM323 801h-48h48zM359 202l-41 166l-40 -166h81zM246 73l-19 -72h-211l195 800h308
l195 -800h-308l-17 72h-143z" />
    <glyph glyph-name="Aring" unicode="&#xc5;" horiz-adv-x="735" 
d="M369 957h1q52 0 82 -19.5t30 -51.5q0 -24 -31.5 -44.5t-80.5 -20.5q-50 0 -80.5 20.5t-30.5 45.5q0 26 30.5 48t79.5 22zM371 940h-1q-24 0 -36.5 -15.5t-12.5 -32.5t13 -32t36 -15q24 0 38.5 15.5t14.5 32.5q0 18 -13.5 32.5t-38.5 14.5zM359 201l-41 166l-40 -166h81z
M246 72l-19 -72h-211l195 800h308l195 -800h-308l-17 72h-143z" />
    <glyph glyph-name="AE" unicode="&#xc6;" horiz-adv-x="959" 
d="M359 201l-41 166l-40 -166h81zM934 800v-190h-367l11 -43h357v-189h-311l19 -79h291v-299h-527l-17 72h-143l-18 -72h-211l195 800h721z" />
    <glyph glyph-name="Ccedilla" unicode="&#xc7;" horiz-adv-x="779" 
d="M755 523l-1 1q-130 88 -242 88q-86 0 -138.5 -50t-52.5 -121q0 -63 56.5 -101.5t147.5 -38.5q111 0 229 57v-271q-94 -66 -212 -82v-18q26 3 48 3q57 0 88.5 -14t31.5 -37q0 -20 -27 -41.5t-77.5 -41t-136 -31.5t-189.5 -12h-6v142q16 -9 111.5 -28t154.5 -19t59 21
q0 19 -47 29t-92 10q-14 0 -18 -1l-1 35q-178 11 -300 126t-122 273q0 166 133.5 283t321.5 117q158 0 281 -86v-192z" />
    <glyph glyph-name="Egrave" unicode="&#xc8;" horiz-adv-x="739" 
d="M25 0v800h690v-189h-386v-44h386v-189h-386v-79h386v-299h-690zM407 957l60 -138h-86l-129 138h155z" />
    <glyph glyph-name="Eacute" unicode="&#xc9;" horiz-adv-x="740" 
d="M25 0v800h690v-189h-386v-44h386v-189h-386v-79h386v-299h-690zM372 956h155l-129 -138h-86z" />
    <glyph glyph-name="Ecircumflex" unicode="&#xca;" horiz-adv-x="739" 
d="M25 0v800h690v-189h-386v-44h386v-189h-386v-79h386v-299h-690zM168 819l133 137h116l133 -137h-128l-63 55l-63 -55h-128z" />
    <glyph glyph-name="Edieresis" unicode="&#xcb;" horiz-adv-x="743" 
d="M25 0v800h690v-189h-386v-44h386v-189h-386v-79h386v-299h-690zM250 968q44 0 72.5 -21t28.5 -57t-28 -53.5t-73 -17.5t-73 17.5t-28 53.5t28.5 57t72.5 21zM489 968q44 0 72.5 -21t28.5 -57t-28 -53.5t-73 -17.5t-73 17.5t-28 53.5t28.5 57t72.5 21z" />
    <glyph glyph-name="Igrave" unicode="&#xcc;" horiz-adv-x="354" 
d="M208 957l60 -138h-86l-129 138h155zM24 0v800h304v-800h-304z" />
    <glyph glyph-name="Iacute" unicode="&#xcd;" horiz-adv-x="354" 
d="M154 957h155l-129 -138h-86zM25 0v800h304v-800h-304z" />
    <glyph glyph-name="Icircumflex" unicode="&#xce;" horiz-adv-x="420" 
d="M19 819l133 137h116l133 -137h-128l-63 55l-63 -55h-128zM52 0v800h304v-800h-304z" />
    <glyph glyph-name="Idieresis" unicode="&#xcf;" horiz-adv-x="478" 
d="M120 968q44 0 72.5 -21t28.5 -57t-28 -53.5t-73 -17.5t-73 17.5t-28 53.5t28.5 57t72.5 21zM359 968q44 0 72.5 -21t28.5 -57t-28 -53.5t-73 -17.5t-73 17.5t-28 53.5t28.5 57t72.5 21zM199 801h-48h48zM102 0v800h304v-800h-304z" />
    <glyph glyph-name="Eth" unicode="&#xd0;" horiz-adv-x="821" 
d="M374 800h1q176 0 301.5 -117t125.5 -283t-125 -283t-302 -117q-104 0 -310 8v370h-46v149h46v265q254 8 309 8zM370 378l-1 -79q60 0 94.5 33.5t34.5 95.5q0 64 -32.5 102.5t-95.5 40.5v-44h82v-149h-82z" />
    <glyph glyph-name="Ntilde" unicode="&#xd1;" horiz-adv-x="786" 
d="M124 842l-1 1q1 129 101 129q42 0 132 -29t118 -29q44 0 47 43h167q-31 -134 -131 -134q-45 0 -127 32.5t-104 32.5q-35 0 -35 -45zM760 806v-800h-308l-124 299v-299h-304v800h304l124 -188v188h308z" />
    <glyph glyph-name="Ograve" unicode="&#xd2;" horiz-adv-x="893" 
d="M429 957l60 -138h-86l-129 138h155zM448 569q-52 0 -89 -39t-37 -95t37 -95t89 -39t89 39t37 95t-37 95t-89 39zM446 802q177 0 302 -117t125 -283t-125 -283t-302 -117t-302 117t-125 283t125 283t302 117z" />
    <glyph glyph-name="Oacute" unicode="&#xd3;" horiz-adv-x="893" 
d="M457 957h155l-129 -138h-86zM448 569q-52 0 -89 -39t-37 -95t37 -95t89 -39t89 39t37 95t-37 95t-89 39zM446 802q177 0 302 -117t125 -283t-125 -283t-302 -117t-302 117t-125 283t125 283t302 117z" />
    <glyph glyph-name="Ocircumflex" unicode="&#xd4;" horiz-adv-x="893" 
d="M251 819l133 137h116l133 -137h-128l-63 55l-63 -55h-128zM449 570q-52 0 -89 -39t-37 -95t37 -95t89 -39t89 39t37 95t-37 95t-89 39zM447 803q177 0 302 -117t125 -283t-125 -283t-302 -117t-302 117t-125 283t125 283t302 117z" />
    <glyph glyph-name="Otilde" unicode="&#xd5;" horiz-adv-x="893" 
d="M169 842l-1 1q1 129 101 129q42 0 132 -29t118 -29q44 0 47 43h167q-31 -134 -131 -134q-46 0 -128 32.5t-103 32.5q-35 0 -35 -45zM448 571q-52 0 -89 -39t-37 -95t37 -95t89 -39t89 39t37 95t-37 95t-89 39zM446 804q177 0 302 -117t125 -283t-125 -283t-302 -117
t-302 117t-125 283t125 283t302 117z" />
    <glyph glyph-name="Odieresis" unicode="&#xd6;" horiz-adv-x="893" 
d="M324 968q44 0 72.5 -21t28.5 -57t-28 -53.5t-73 -17.5t-73 17.5t-28 53.5t28.5 57t72.5 21zM563 968q44 0 72.5 -21t28.5 -57t-28 -53.5t-73 -17.5t-73 17.5t-28 53.5t28.5 57t72.5 21zM403 801h-48h48zM448 569q-52 0 -89 -39t-37 -95t37 -95t89 -39t89 39t37 95t-37 95
t-89 39zM446 802q177 0 302 -117t125 -283t-125 -283t-302 -117t-302 117t-125 283t125 283t302 117z" />
    <glyph glyph-name="multiply" unicode="&#xd7;" horiz-adv-x="376" 
d="M19 593l67 67l101 -101l101 101l67 -67l-101 -101l101 -101l-67 -67l-101 101l-101 -101l-67 67l101 101z" />
    <glyph glyph-name="Oslash" unicode="&#xd8;" horiz-adv-x="893" 
d="M449 567q-52 0 -89 -39t-37 -95q0 -36 17 -67l155 192q-21 9 -46 9zM571 466l-135 -166h12q52 0 89 39t37 95q0 17 -3 32zM707 821l91 -76l-51 -63q126 -116 126 -283q0 -166 -125 -283t-302 -117q-113 0 -211 52l-75 -93l-91 74l71 88q-121 116 -121 280q0 166 125 283
t302 117q109 0 205 -49z" />
    <glyph glyph-name="Ugrave" unicode="&#xd9;" horiz-adv-x="782" 
d="M393 957l60 -138h-86l-129 138h155zM328 800l-2 -422q18 -78 61 -78q23 0 42.5 22.5t24.5 55.5v422h305v-505q0 -94 -53.5 -162.5t-134.5 -100t-176 -31.5q-96 0 -178.5 32t-138 101.5t-55.5 163.5v502h305z" />
    <glyph glyph-name="Uacute" unicode="&#xda;" horiz-adv-x="782" 
d="M397 957h155l-129 -138h-86zM328 800l-2 -422q18 -78 61 -78q23 0 42.5 22.5t24.5 55.5v422h305v-505q0 -94 -53.5 -162.5t-134.5 -100t-176 -31.5q-96 0 -178.5 32t-138 101.5t-55.5 163.5v502h305z" />
    <glyph glyph-name="Ucircumflex" unicode="&#xdb;" horiz-adv-x="782" 
d="M194 819l133 137h116l133 -137h-128l-63 55l-63 -55h-128zM327 800l-2 -422q18 -78 61 -78q23 0 42.5 22.5t24.5 55.5v422h305v-505q0 -94 -53.5 -162.5t-134.5 -100t-176 -31.5q-96 0 -178.5 32t-138 101.5t-55.5 163.5v502h305z" />
    <glyph glyph-name="Udieresis" unicode="&#xdc;" horiz-adv-x="782" 
d="M275 968q44 0 72.5 -21t28.5 -57t-28 -53.5t-73 -17.5t-73 17.5t-28 53.5t28.5 57t72.5 21zM514 968q44 0 72.5 -21t28.5 -57t-28 -53.5t-73 -17.5t-73 17.5t-28 53.5t28.5 57t72.5 21zM354 801h-48h48zM328 800l-2 -422q18 -78 61 -78q23 0 42.5 22.5t24.5 55.5v422h305
v-505q0 -94 -53.5 -162.5t-134.5 -100t-176 -31.5q-96 0 -178.5 32t-138 101.5t-55.5 163.5v502h305z" />
    <glyph glyph-name="Yacute" unicode="&#xdd;" horiz-adv-x="736" 
d="M411 957h155l-129 -138h-86zM519 480l-1 -480h-304v480l-195 320h309l88 -188l91 188h211z" />
    <glyph glyph-name="Thorn" unicode="&#xde;" horiz-adv-x="645" 
d="M25 0l-1 801h304v-91q33 3 62 3q213 0 234 -171q2 -20 2 -28q0 -60 -33.5 -107.5t-83.5 -72.5t-97 -37.5t-83 -12.5v-284h-304zM465 454q0 21 -32.5 31.5t-72.5 10.5q-15 0 -31 -2v-86q5 -1 18 -1q40 0 79 12t39 35z" />
    <glyph glyph-name="germandbls" unicode="&#xdf;" horiz-adv-x="667" 
d="M648 264l1 2v-9q0 -115 -56 -185t-149 -70q-69 0 -150 41v303q-2 0 31 -15t79 -30t76 -15q44 0 44 34q0 17 -22.5 35t-54 36t-63.5 38t-54.5 49.5t-22.5 62.5q0 59 69 132v22h-20q-61 0 -87 -23.5t-27 -75.5v-14q0 -43 1 -291.5t1 -280.5v-7h-219v605q0 55 34 95t91 60
t116.5 28.5t125.5 8.5q84 0 146 -11l12 -267q-50 18 -102 18q-42 0 -42 -22q0 -14 24.5 -27t59.5 -28.5t70.5 -37.5t61 -63.5t26.5 -97.5z" />
    <glyph glyph-name="agrave" unicode="&#xe0;" horiz-adv-x="675" 
d="M345 550v-1q127 0 216.5 -41.5t89.5 -99.5v-409h-273v13q-46 -13 -91 -13q-111 0 -189.5 64t-78.5 155q0 54 21.5 93.5t57.5 61t77 31.5t88 10q62 0 115 -15v32q0 28 -71 28q-36 0 -87 -7t-96.5 -16t-47.5 -9l2 105q24 4 130 11t137 7zM378 274l1 83q-22 5 -59 5
q-111 0 -111 -51q0 -42 109 -42q40 0 60 5zM330 799l60 -181h-86l-129 181h155z" />
    <glyph glyph-name="aacute" unicode="&#xe1;" horiz-adv-x="675" 
d="M345 550v-1q127 0 216.5 -41.5t89.5 -99.5v-409h-273v13q-46 -13 -91 -13q-111 0 -189.5 64t-78.5 155q0 54 21.5 93.5t57.5 61t77 31.5t88 10q62 0 115 -15v32q0 28 -71 28q-36 0 -87 -7t-96.5 -16t-47.5 -9l2 105q24 4 130 11t137 7zM378 274l1 83q-22 5 -59 5
q-111 0 -111 -51q0 -42 109 -42q40 0 60 5zM356 799h155l-129 -181h-86z" />
    <glyph glyph-name="acircumflex" unicode="&#xe2;" horiz-adv-x="675" 
d="M345 550v-1q127 0 216.5 -41.5t89.5 -99.5v-409h-273v13q-46 -13 -91 -13q-111 0 -189.5 64t-78.5 155q0 54 21.5 93.5t57.5 61t77 31.5t88 10q62 0 115 -15v32q0 28 -71 28q-36 0 -87 -7t-96.5 -16t-47.5 -9l2 105q24 4 130 11t137 7zM378 274l1 83q-22 5 -59 5
q-111 0 -111 -51q0 -42 109 -42q40 0 60 5zM171 619l133 181h116l133 -181h-128l-63 99l-63 -99h-128z" />
    <glyph glyph-name="atilde" unicode="&#xe3;" horiz-adv-x="674" 
d="M345 550v-1q127 0 216.5 -41.5t89.5 -99.5v-409h-273v13q-46 -13 -91 -13q-111 0 -189.5 64t-78.5 155q0 54 21.5 93.5t57.5 61t77 31.5t88 10q62 0 115 -15v32q0 28 -71 28q-36 0 -87 -7t-96.5 -16t-47.5 -9l2 105q24 4 130 11t137 7zM378 274l1 83q-22 5 -59 5
q-111 0 -111 -51q0 -42 109 -42q40 0 60 5zM60 637l-1 1q5 85 39.5 119t91.5 34q39 0 114 -18.5t100 -18.5q49 0 52 46h167q-3 -164 -100 -164q-40 0 -125 33t-115 33q-51 0 -56 -64z" />
    <glyph glyph-name="adieresis" unicode="&#xe4;" horiz-adv-x="675" 
d="M345 550v-1q127 0 216.5 -41.5t89.5 -99.5v-409h-273v13q-46 -13 -91 -13q-111 0 -189.5 64t-78.5 155q0 54 21.5 93.5t57.5 61t77 31.5t88 10q62 0 115 -15v32q0 28 -71 28q-36 0 -87 -7t-96.5 -16t-47.5 -9l2 105q24 4 130 11t137 7zM378 274l1 83q-22 5 -59 5
q-111 0 -111 -51q0 -42 109 -42q40 0 60 5zM243 799q42 0 71.5 -26.5t29.5 -63.5t-29.5 -63.5t-71.5 -26.5t-71.5 26.5t-29.5 63.5t29.5 63.5t71.5 26.5zM482 799q42 0 71.5 -26.5t29.5 -63.5t-29.5 -63.5t-71.5 -26.5t-71.5 26.5t-29.5 63.5t29.5 63.5t71.5 26.5z" />
    <glyph glyph-name="aring" unicode="&#xe5;" horiz-adv-x="675" 
d="M345 550v-1q127 0 216.5 -41.5t89.5 -99.5v-409h-273v13q-46 -13 -91 -13q-111 0 -189.5 64t-78.5 155q0 54 21.5 93.5t57.5 61t77 31.5t88 10q62 0 115 -15v32q0 28 -71 28q-36 0 -87 -7t-96.5 -16t-47.5 -9l2 105q24 4 130 11t137 7zM378 274l1 83q-22 5 -59 5
q-111 0 -111 -51q0 -42 109 -42q40 0 60 5zM366 799q53 0 90.5 -26.5t37.5 -63.5t-37.5 -63.5t-90.5 -26.5t-90.5 26.5t-37.5 63.5t37.5 63.5t90.5 26.5zM367 776q-26 0 -44.5 -16.5t-18.5 -39.5t18.5 -39.5t44.5 -16.5t44.5 16.5t18.5 39.5t-18.5 39.5t-44.5 16.5z" />
    <glyph glyph-name="ae" unicode="&#xe6;" horiz-adv-x="957" 
d="M678 546l1 -1q82 0 160.5 -62.5t100.5 -152.5h-392q1 -45 47 -68t118 -23q111 0 217 45l1 -253q-132 -33 -228 -33q-86 0 -158 26v-25h-182v13q-60 -19 -112 -19q-106 0 -168.5 68t-62.5 157q0 82 56 140t160 58q59 0 126 -20v32q0 28 -71 28q-36 0 -87 -7t-97 -15.5
t-47 -8.5l2 104q27 5 121.5 11.5t145.5 6.5q49 0 81 -13.5t82 -47.5q32 24 49 33.5t51.5 18t85.5 8.5zM363 272l-1 83q-22 5 -57 5q-111 0 -111 -51q0 -42 109 -42q40 0 60 5zM752 417v1q-38 48 -101 48t-97 -49h198z" />
    <glyph glyph-name="ccedilla" unicode="&#xe7;" horiz-adv-x="567" 
d="M370 549l2 5q92 0 172 -36v-100q-51 41 -133 41q-76 0 -118 -31.5t-42 -74.5t42 -74.5t118 -31.5q82 0 133 41v-265q-80 -36 -173 -36h-9v-12q39 6 70 6q55 0 85 -15t30 -39q0 -42 -81.5 -77.5t-219.5 -35.5q-33 0 -50 1v103q17 -6 72.5 -14.5t99.5 -8.5q73 0 73 25
q-1 17 -58 17q-13 0 -123 -10l-3 71q-113 27 -175 102t-62 167q0 115 92.5 198.5t257.5 83.5z" />
    <glyph glyph-name="egrave" unicode="&#xe8;" horiz-adv-x="630" 
d="M319 550l-1 -1q106 0 187.5 -61t104.5 -154h-424q1 -45 52.5 -68t131.5 -23q124 0 231 45l1 -254q-130 -34 -245 -34q-74 0 -133.5 15t-106 47t-72 85.5t-25.5 126.5q0 114 87.5 195t211.5 81zM392 421v1q-38 48 -101 48q-64 0 -98 -49h199zM296 800l60 -181h-86
l-129 181h155z" />
    <glyph glyph-name="eacute" unicode="&#xe9;" horiz-adv-x="630" 
d="M319 550l-1 -1q106 0 187.5 -61t104.5 -154h-424q1 -45 52.5 -68t131.5 -23q124 0 231 45l1 -254q-130 -34 -245 -34q-74 0 -133.5 15t-106 47t-72 85.5t-25.5 126.5q0 114 87.5 195t211.5 81zM392 421v1q-38 48 -101 48q-64 0 -98 -49h199zM341 800h155l-129 -181h-86z
" />
    <glyph glyph-name="ecircumflex" unicode="&#xea;" horiz-adv-x="630" 
d="M319 550l-1 -1q106 0 187.5 -61t104.5 -154h-424q1 -45 52.5 -68t131.5 -23q124 0 231 45l1 -254q-130 -34 -245 -34q-74 0 -133.5 15t-106 47t-72 85.5t-25.5 126.5q0 114 87.5 195t211.5 81zM392 421v1q-38 48 -101 48q-64 0 -98 -49h199zM109 620l133 181h116
l133 -181h-128l-63 99l-63 -99h-128z" />
    <glyph glyph-name="edieresis" unicode="&#xeb;" horiz-adv-x="630" 
d="M319 550l-1 -1q106 0 187.5 -61t104.5 -154h-424q1 -45 52.5 -68t131.5 -23q124 0 231 45l1 -254q-130 -34 -245 -34q-74 0 -133.5 15t-106 47t-72 85.5t-25.5 126.5q0 114 87.5 195t211.5 81zM392 421v1q-38 48 -101 48q-64 0 -98 -49h199zM197 800q42 0 71.5 -26.5
t29.5 -63.5t-29.5 -63.5t-71.5 -26.5t-71.5 26.5t-29.5 63.5t29.5 63.5t71.5 26.5zM436 800q42 0 71.5 -26.5t29.5 -63.5t-29.5 -63.5t-71.5 -26.5t-71.5 26.5t-29.5 63.5t29.5 63.5t71.5 26.5z" />
    <glyph glyph-name="igrave" unicode="&#xec;" horiz-adv-x="321" 
d="M25 1v549h272v-549h-272zM196 800l60 -181h-86l-129 181h155z" />
    <glyph glyph-name="iacute" unicode="&#xed;" horiz-adv-x="335" 
d="M25 1v549h272v-549h-272zM161 800h155l-129 -181h-86z" />
    <glyph glyph-name="icircumflex" unicode="&#xee;" horiz-adv-x="420" 
d="M67 1v549h272v-549h-272zM19 619l133 181h116l133 -181h-128l-63 99l-63 -99h-128z" />
    <glyph glyph-name="idieresis" unicode="&#xef;" horiz-adv-x="478" 
d="M101 1v549h272v-549h-272zM120 800q42 0 71.5 -26.5t29.5 -63.5t-29.5 -63.5t-71.5 -26.5t-71.5 26.5t-29.5 63.5t29.5 63.5t71.5 26.5zM359 800q42 0 71.5 -26.5t29.5 -63.5t-29.5 -63.5t-71.5 -26.5t-71.5 26.5t-29.5 63.5t29.5 63.5t71.5 26.5z" />
    <glyph glyph-name="eth" unicode="&#xf0;" horiz-adv-x="837" 
d="M103 712q34 16 92 33.5t131 33t147.5 20t137 -2.5t104.5 -38t46 -83h56v-97h-56v-277q-1 -52 -27 -101.5t-66 -86t-85.5 -62t-87.5 -33.5q-203 -45 -342 57q-98 73 -125 188q-25 113 35 193q77 101 250 85q80 -8 176 -43l1 72h-146v97h145q-2 18 -36.5 24t-84.5 1
t-103 -15.5t-97 -25t-62 -27.5zM489 432q-44 20 -82 23t-62.5 -7.5t-39 -28.5t-18.5 -40q-10 -64 43 -94q47 -27 98 -4q61 26 61 105v46z" />
    <glyph glyph-name="ntilde" unicode="&#xf1;" horiz-adv-x="670" 
d="M25 549h295v-28q72 28 137 28q83 0 133 -48.5t57 -143.5v-358h-252l-2 358v12v27q0 31 -19 31q-17 0 -55 -17v-410h-294v549zM72 637l-1 1q5 85 39.5 119t91.5 34q39 0 114 -18.5t100 -18.5q49 0 52 46h167q-3 -164 -100 -164q-40 0 -125 33t-115 33q-51 0 -56 -64z" />
    <glyph glyph-name="ograve" unicode="&#xf2;" horiz-adv-x="626" 
d="M313 453q-36 0 -61.5 -27t-25.5 -65t25.5 -65t61.5 -27t61.5 27t25.5 65t-25.5 65t-61.5 27zM313 550q122 0 208 -80.5t86 -194.5t-86 -194.5t-208 -80.5t-208 80.5t-86 194.5t86 194.5t208 80.5zM289 797l60 -181h-86l-129 181h155z" />
    <glyph glyph-name="oacute" unicode="&#xf3;" horiz-adv-x="627" 
d="M314 453q-36 0 -61.5 -27t-25.5 -65t25.5 -65t61.5 -27t61.5 27t25.5 65t-25.5 65t-61.5 27zM314 550q122 0 208 -80.5t86 -194.5t-86 -194.5t-208 -80.5t-208 80.5t-86 194.5t86 194.5t208 80.5zM315 797h155l-129 -181h-86z" />
    <glyph glyph-name="ocircumflex" unicode="&#xf4;" horiz-adv-x="626" 
d="M313 453q-36 0 -61.5 -27t-25.5 -65t25.5 -65t61.5 -27t61.5 27t25.5 65t-25.5 65t-61.5 27zM313 550q122 0 208 -80.5t86 -194.5t-86 -194.5t-208 -80.5t-208 80.5t-86 194.5t86 194.5t208 80.5zM122 619l133 181h116l133 -181h-128l-63 99l-63 -99h-128z" />
    <glyph glyph-name="otilde" unicode="&#xf5;" horiz-adv-x="626" 
d="M313 453q-36 0 -61.5 -27t-25.5 -65t25.5 -65t61.5 -27t61.5 27t25.5 65t-25.5 65t-61.5 27zM313 550q122 0 208 -80.5t86 -194.5t-86 -194.5t-208 -80.5t-208 80.5t-86 194.5t86 194.5t208 80.5zM31 637l-1 1q5 85 39.5 119t91.5 34q39 0 114 -18.5t100 -18.5
q49 0 52 46h167q-3 -164 -100 -164q-40 0 -125 33t-115 33q-51 0 -56 -64z" />
    <glyph glyph-name="odieresis" unicode="&#xf6;" horiz-adv-x="626" 
d="M313 453q-36 0 -61.5 -27t-25.5 -65t25.5 -65t61.5 -27t61.5 27t25.5 65t-25.5 65t-61.5 27zM313 550q122 0 208 -80.5t86 -194.5t-86 -194.5t-208 -80.5t-208 80.5t-86 194.5t86 194.5t208 80.5zM200 800q42 0 71.5 -26.5t29.5 -63.5t-29.5 -63.5t-71.5 -26.5
t-71.5 26.5t-29.5 63.5t29.5 63.5t71.5 26.5zM439 800q42 0 71.5 -26.5t29.5 -63.5t-29.5 -63.5t-71.5 -26.5t-71.5 26.5t-29.5 63.5t29.5 63.5t71.5 26.5z" />
    <glyph glyph-name="divide" unicode="&#xf7;" horiz-adv-x="511" 
d="M23 250v100h465v-100h-465zM256 613q41 0 69.5 -24.5t28.5 -58.5t-28.5 -58.5t-69.5 -24.5t-69.5 24.5t-28.5 58.5t28.5 58.5t69.5 24.5zM262 167q41 0 69.5 -24.5t28.5 -58.5t-28.5 -58.5t-69.5 -24.5t-69.5 24.5t-28.5 58.5t28.5 58.5t69.5 24.5z" />
    <glyph glyph-name="oslash" unicode="&#xf8;" horiz-adv-x="624" 
d="M312 455h1q-36 0 -61.5 -27t-25.5 -65q0 -27 14 -49l107 133q-18 8 -35 8zM397 385l-93 -113h9q36 0 61.5 27t25.5 65q0 10 -3 21zM442 565l62 -48l-16 -20q54 -38 85.5 -96t31.5 -124q0 -113 -85.5 -193t-206.5 -80q-100 0 -178 57l-50 -61l-60 48l53 66q-58 74 -58 164
q0 113 85.5 193t206.5 80q56 0 104 -18z" />
    <glyph glyph-name="ugrave" unicode="&#xf9;" horiz-adv-x="678" 
d="M653 1l-295 -1v28q-72 -28 -138 -28q-85 0 -137 48.5t-59 143.5v358h252l3 -397q0 -14 8 -25t23 -11q21 0 49 23v410h294v-549zM356 799l60 -181h-86l-129 181h155z" />
    <glyph glyph-name="uacute" unicode="&#xfa;" horiz-adv-x="678" 
d="M653 1l-295 -1v28q-72 -28 -138 -28q-85 0 -137 48.5t-59 143.5v358h252l3 -397q0 -14 8 -25t23 -11q21 0 49 23v410h294v-549zM322 799h155l-129 -181h-86z" />
    <glyph glyph-name="ucircumflex" unicode="&#xfb;" horiz-adv-x="678" 
d="M653 1l-295 -1v28q-72 -28 -138 -28q-85 0 -137 48.5t-59 143.5v358h252l3 -397q0 -14 8 -25t23 -11q21 0 49 23v410h294v-549zM135 619l133 181h116l133 -181h-128l-63 99l-63 -99h-128z" />
    <glyph glyph-name="udieresis" unicode="&#xfc;" horiz-adv-x="678" 
d="M653 1l-295 -1v28q-72 -28 -138 -28q-85 0 -137 48.5t-59 143.5v358h252l3 -397q0 -14 8 -25t23 -11q21 0 49 23v410h294v-549zM217 799q42 0 71.5 -26.5t29.5 -63.5t-29.5 -63.5t-71.5 -26.5t-71.5 26.5t-29.5 63.5t29.5 63.5t71.5 26.5zM456 799q42 0 71.5 -26.5
t29.5 -63.5t-29.5 -63.5t-71.5 -26.5t-71.5 26.5t-29.5 63.5t29.5 63.5t71.5 26.5z" />
    <glyph glyph-name="yacute" unicode="&#xfd;" horiz-adv-x="696" 
d="M368 12l-1 1q-78 -29 -143 -29q-87 0 -141 50t-61 148v368h259l3 -409q0 -14 8 -25.5t24 -11.5q22 0 52 23v423h303v-488q-11 -131 -113 -192t-261 -61q-115 0 -238 28l1 162q107 -73 188 -73q47 0 77.5 23t42.5 63zM311 801h155l-129 -181h-86z" />
    <glyph glyph-name="thorn" unicode="&#xfe;" horiz-adv-x="736" 
d="M25 -189v989h268v-270q70 19 132 19q92 0 160 -42t99.5 -105t31.5 -136q0 -109 -71.5 -187t-201.5 -78q-70 0 -151 26l1 -216h-268zM293 279q42 -19 77 -19q51 0 80.5 35t29.5 81q0 44 -28.5 75.5t-80.5 31.5q-34 0 -78 -16v-188z" />
    <glyph glyph-name="ydieresis" unicode="&#xff;" horiz-adv-x="695" 
d="M368 12l-1 1q-78 -29 -143 -29q-87 0 -141 50t-61 148v368h259l3 -409q0 -14 8 -25.5t24 -11.5q22 0 52 23v423h303v-488q-11 -131 -113 -192t-261 -61q-115 0 -238 28l1 162q107 -73 188 -73q47 0 77.5 23t42.5 63zM223 801q42 0 71.5 -26.5t29.5 -63.5t-29.5 -63.5
t-71.5 -26.5t-71.5 26.5t-29.5 63.5t29.5 63.5t71.5 26.5zM462 801q42 0 71.5 -26.5t29.5 -63.5t-29.5 -63.5t-71.5 -26.5t-71.5 26.5t-29.5 63.5t29.5 63.5t71.5 26.5z" />
    <glyph glyph-name="Amacron" unicode="&#x100;" horiz-adv-x="736" 
d="M136 871v39h444v-39h-444zM360 202l-40 166l-41 -166h81zM248 73l-18 -73h-211l195 802h308l195 -802h-309l-17 73h-143z" />
    <glyph glyph-name="amacron" unicode="&#x101;" horiz-adv-x="673" 
d="M137 666v71h444v-71h-444zM343 550q126 0 216 -41t90 -99v-407h-272v13q-45 -13 -91 -13q-110 0 -188.5 63.5t-78.5 153.5q0 53 21 92.5t57 61t77 31.5t87 10q62 0 115 -15v31q0 28 -70 28q-36 0 -87 -7t-97 -15.5t-47 -8.5l2 104q24 4 129.5 11t136.5 7zM376 276v82
q-26 6 -58 6q-111 0 -111 -51q0 -42 109 -42q40 0 60 5z" />
    <glyph glyph-name="Abreve" unicode="&#x102;" horiz-adv-x="736" 
d="M568 954h-2q-3 -58 -70.5 -91t-157.5 -33q-57 0 -105 13.5t-80.5 42.5t-33.5 69h107q3 -47 37.5 -72.5t80.5 -25.5q47 0 81.5 26t35.5 71h107zM358 202l-40 166l-41 -166h81zM246 73l-18 -73h-211l195 802h308l195 -802h-309l-17 73h-143z" />
    <glyph glyph-name="abreve" unicode="&#x103;" horiz-adv-x="673" 
d="M569 802h-1q-3 -72 -70.5 -113t-157.5 -41q-57 0 -105 16.5t-80.5 52.5t-33.5 86h107q3 -61 37.5 -94.5t80.5 -33.5q47 0 81 33.5t35 93.5h107zM342 550q126 0 216 -41t90 -99v-407h-272v13q-46 -13 -91 -13q-110 0 -188.5 63.5t-78.5 153.5q0 53 21 92.5t57 61t77 31.5
t87 10q62 0 115 -15v31q0 28 -70 28q-36 0 -87 -7t-97 -15.5t-47 -8.5l2 104q24 4 129.5 11t136.5 7zM375 276v82q-26 6 -58 6q-111 0 -111 -51q0 -42 109 -42q40 0 60 5z" />
    <glyph glyph-name="Aogonek" unicode="&#x104;" horiz-adv-x="736" 
d="M360 202l-40 166l-41 -166h81zM248 73l-18 -73h-211l195 802h308l195 -802h-309l-17 73h-143zM630 -194l-1 1q-161 0 -245 30t-84 72q0 36 61 63t163 29l-1 -34q-4 1 -18 1q-45 0 -92 -9.5t-47 -28.5q0 -23 57 -23q49 0 120.5 14.5t86.5 22.5v-138z" />
    <glyph glyph-name="aogonek" unicode="&#x105;" horiz-adv-x="674" 
d="M344 550q126 0 216 -41t90 -99v-407h-272v13q-46 -13 -91 -13q-110 0 -188.5 63.5t-78.5 153.5q0 53 21 92.5t57 61t77 31.5t87 10q62 0 115 -15v31q0 28 -70 28q-36 0 -87 -7t-97 -15.5t-47 -8.5l2 104q24 4 129.5 11t136.5 7zM377 276v82q-26 6 -58 6q-111 0 -111 -51
q0 -42 109 -42q40 0 60 5zM632 -194l-1 1q-161 0 -245 30t-84 72q0 36 61 63t163 29l-1 -34q-4 1 -18 1q-45 0 -92 -9.5t-47 -28.5q0 -23 57 -23q49 0 120.5 14.5t86.5 22.5v-138z" />
    <glyph glyph-name="Cacute" unicode="&#x106;" horiz-adv-x="779" 
d="M480 957h155l-129 -138h-86zM755 523q-130 88 -242 88q-86 0 -137.5 -49.5t-52.5 -120.5v-1q0 -63 56 -102t147 -39q109 0 229 58v-271q-123 -86 -281 -86q-188 0 -321.5 117t-133.5 283t133.5 283t321.5 117q158 0 281 -86v-191z" />
    <glyph glyph-name="cacute" unicode="&#x107;" horiz-adv-x="552" 
d="M376 800h155l-129 -181h-86zM361 550q89 0 167 -35v-97q-50 40 -130 40q-74 0 -114.5 -30t-40.5 -72t40.5 -72t114.5 -30q81 0 130 39v-257q-78 -35 -168 -35q-161 0 -250.5 81.5t-89.5 192.5t90 193t251 82z" />
    <glyph glyph-name="Ccircumflex" unicode="&#x108;" horiz-adv-x="779" 
d="M265 819l133 137h116l133 -137h-128l-63 55l-63 -55h-128zM755 523q-130 88 -242 88q-86 0 -137.5 -49.5t-52.5 -120.5v-1q0 -63 56 -102t147 -39q109 0 229 58v-271q-123 -86 -281 -86q-188 0 -321.5 117t-133.5 283t133.5 283t321.5 117q158 0 281 -86v-191z" />
    <glyph glyph-name="ccircumflex" unicode="&#x109;" horiz-adv-x="559" 
d="M158 619l133 181h116l133 -181h-128l-63 99l-63 -99h-128zM361 550q89 0 167 -35v-97q-50 40 -130 40q-74 0 -114.5 -30t-40.5 -72t40.5 -72t114.5 -30q81 0 130 39v-257q-78 -35 -168 -35q-161 0 -250.5 81.5t-89.5 192.5t90 193t251 82z" />
    <glyph glyph-name="Cdotaccent" unicode="&#x10a;" horiz-adv-x="779" 
d="M482 968q43 0 71 -21t28 -57t-27 -53.5t-72 -17.5t-71.5 17.5t-26.5 53.5q0 37 27.5 57.5t70.5 20.5zM755 523q-130 88 -242 88q-86 0 -137.5 -49.5t-52.5 -120.5v-1q0 -63 56 -102t147 -39q109 0 229 58v-271q-123 -86 -281 -86q-188 0 -321.5 117t-133.5 283t133.5 283
t321.5 117q158 0 281 -86v-191z" />
    <glyph glyph-name="cdotaccent" unicode="&#x10b;" horiz-adv-x="551" 
d="M359 800q42 0 71.5 -26.5t29.5 -63.5t-29.5 -63.5t-71.5 -26.5t-71.5 26.5t-29.5 63.5t29.5 63.5t71.5 26.5zM361 550q89 0 167 -35v-97q-50 40 -130 40q-74 0 -114.5 -30t-40.5 -72t40.5 -72t114.5 -30q81 0 130 39v-257q-78 -35 -168 -35q-161 0 -250.5 81.5
t-89.5 192.5t90 193t251 82z" />
    <glyph glyph-name="Ccaron" unicode="&#x10c;" horiz-adv-x="779" 
d="M277 956h128l63 -55l63 55h128l-133 -137h-116zM755 523q-130 88 -242 88q-86 0 -137.5 -49.5t-52.5 -120.5v-1q0 -63 56 -102t147 -39q109 0 229 58v-271q-123 -86 -281 -86q-188 0 -321.5 117t-133.5 283t133.5 283t321.5 117q158 0 281 -86v-191z" />
    <glyph glyph-name="ccaron" unicode="&#x10d;" horiz-adv-x="558" 
d="M157 800h128l63 -99l63 99h128l-133 -181h-116zM361 550q89 0 167 -35v-97q-50 40 -130 40q-74 0 -114.5 -30t-40.5 -72t40.5 -72t114.5 -30q81 0 130 39v-257q-78 -35 -168 -35q-161 0 -250.5 81.5t-89.5 192.5t90 193t251 82z" />
    <glyph glyph-name="Dcaron" unicode="&#x10e;" horiz-adv-x="781" 
d="M176 956h128l63 -55l63 55h128l-133 -137h-116zM334 800q176 0 301.5 -117t125.5 -283t-125 -283t-302 -117q-103 0 -309 8v784q254 8 309 8zM328 299q60 0 94.5 33.5t34.5 96.5q0 64 -32.5 102t-96.5 40v-272z" />
    <glyph glyph-name="dcaron" unicode="&#x10f;" horiz-adv-x="745" 
d="M720 800v-800h-272v16q-61 -18 -124 -18q-94 0 -165.5 45.5t-105.5 113t-34 142.5q0 106 70.5 179.5t202.5 73.5q75 0 157 -24l-1 272h272zM448 449q-45 21 -84 21q-47 0 -72 -31t-25 -74q0 -46 28.5 -81t78.5 -35q36 0 77 20zM39 800h128l63 -99l63 99h128l-133 -181
h-116z" />
    <glyph glyph-name="Dcroat" unicode="&#x110;" horiz-adv-x="821" 
d="M374 800h1q176 0 301.5 -117t125.5 -283t-125 -283t-302 -117q-104 0 -310 8v370h-46v149h46v265q254 8 309 8zM370 378l-1 -79q60 0 94.5 33.5t34.5 95.5q0 64 -32.5 102.5t-95.5 40.5v-44h82v-149h-82z" />
    <glyph glyph-name="dcroat" unicode="&#x111;" horiz-adv-x="779" 
d="M709 800v-116h51v-101h-50l1 -580h-269v16q-64 -19 -123 -19q-136 0 -217 89.5t-81 206.5q0 105 69.5 178t200.5 73q71 0 153 -23l-1 60h-134v101h132l-1 115h269zM442 446v2q-37 17 -72 17q-51 0 -84 -35.5t-33 -80.5q0 -40 29.5 -67.5t86.5 -27.5q13 0 23 0.5t15.5 1
t12 2.5t8 2.5t8.5 4l9 4.5z" />
    <glyph glyph-name="Emacron" unicode="&#x112;" horiz-adv-x="743" 
d="M25 0v800h690v-189h-386v-44h386v-189h-386v-79h386v-299h-690zM183 871v39h444v-39h-444z" />
    <glyph glyph-name="emacron" unicode="&#x113;" horiz-adv-x="629" 
d="M138 666v71h444v-71h-444zM319 550q106 0 187 -61t104 -154h-424q1 -45 53 -68.5t132 -23.5q121 0 229 46l1 -254q-136 -34 -245 -34q-153 0 -244.5 66t-91.5 207q0 114 87.5 195t211.5 81zM393 422q-38 49 -101 49q-64 0 -98 -49h199z" />
    <glyph glyph-name="Ebreve" unicode="&#x114;" horiz-adv-x="745" 
d="M25 0v800h690v-189h-386v-44h386v-189h-386v-79h386v-299h-690zM618 954q-2 -39 -36 -68t-84.5 -42.5t-107.5 -13.5t-105.5 13t-81 42t-33.5 69h107q3 -47 37.5 -72t80.5 -25t80.5 25.5t35.5 71.5h107z" />
    <glyph glyph-name="ebreve" unicode="&#x115;" horiz-adv-x="629" 
d="M570 802q-2 -49 -36 -85t-84 -52.5t-108 -16.5q-42 0 -80.5 9.5t-69.5 28t-50 48.5t-20 68h107q2 -41 20 -70.5t43 -43t55 -13.5q46 0 80.5 33.5t35.5 93.5h107zM319 550q106 0 187 -61t104 -154h-424q1 -45 53 -68.5t132 -23.5q121 0 229 46l1 -254q-136 -34 -245 -34
q-74 0 -133.5 15t-105.5 47t-71.5 85.5t-25.5 125.5q0 114 87.5 195t211.5 81zM393 422q-38 49 -101 49q-64 0 -98 -49h199z" />
    <glyph glyph-name="Edotaccent" unicode="&#x116;" horiz-adv-x="737" 
d="M25 0v800h690v-189h-386v-44h386v-189h-386v-79h386v-299h-690zM410 968q41 0 66 -22.5t25 -55.5t-24.5 -52.5t-66.5 -19.5t-66.5 19.5t-24.5 52.5t25 55.5t66 22.5z" />
    <glyph glyph-name="edotaccent" unicode="&#x117;" horiz-adv-x="629" 
d="M333 800q42 0 71.5 -26.5t29.5 -64t-29.5 -64t-71.5 -26.5t-71.5 26.5t-29.5 64t29.5 64t71.5 26.5zM319 550q106 0 187 -61t104 -154h-424q1 -45 53 -68.5t132 -23.5q121 0 229 46l1 -254q-136 -34 -245 -34q-153 0 -244.5 66t-91.5 207q0 114 87.5 195t211.5 81z
M393 422q-38 49 -101 49q-64 0 -98 -49h199z" />
    <glyph glyph-name="Eogonek" unicode="&#x118;" horiz-adv-x="746" 
d="M25 0v800h690v-189h-386v-44h386v-189h-386v-79h386v-299h-690zM762 -194q-161 0 -245 30.5t-84 71.5q0 23 25.5 43.5t77.5 34t121 14.5l-2 -34q-6 1 -18 1q-45 0 -92.5 -9.5t-47.5 -28.5q0 -22 58 -22q49 0 120.5 14.5t86.5 22.5v-138z" />
    <glyph glyph-name="eogonek" unicode="&#x119;" horiz-adv-x="630" 
d="M320 550q106 0 187 -61t104 -154h-424q1 -45 53 -68.5t132 -23.5q121 0 229 46l1 -254q-160 -40 -269 -40q-149 0 -230.5 68t-81.5 211q0 114 87.5 195t211.5 81zM394 422q-38 49 -101 49q-64 0 -98 -49h199zM609 -194q-161 0 -245 37.5t-84 89.5q0 39 52 52t172 15
l-2 -29q-2 1 -5 1q-8 0 -29.5 1.5t-40.5 2t-39 0t-32.5 -5.5t-12.5 -14q0 -31 104 -31q48 0 100 6.5t62 12.5v-138z" />
    <glyph glyph-name="Ecaron" unicode="&#x11a;" horiz-adv-x="746" 
d="M25 0v800h690v-189h-386v-44h386v-189h-386v-79h386v-299h-690zM214 956h128l63 -56l63 56h128l-133 -137h-116z" />
    <glyph glyph-name="ecaron" unicode="&#x11b;" horiz-adv-x="629" 
d="M319 550q106 0 187 -61t104 -154h-424q1 -45 53 -68.5t132 -23.5q121 0 229 46l1 -254q-136 -34 -245 -34q-153 0 -244.5 66t-91.5 207q0 114 87.5 195t211.5 81zM393 422q-38 49 -101 49q-64 0 -98 -49h199zM158 800h128l63 -99l64 99h127l-133 -181h-116z" />
    <glyph glyph-name="Gcircumflex" unicode="&#x11c;" horiz-adv-x="779" 
d="M755 523q-122 58 -231 58q-91 0 -146 -40.5t-55 -99.5q0 -58 48 -96.5t128 -44.5v98v2v80h256v-258v-136q-123 -86 -281 -86q-188 0 -321.5 117t-133.5 283t133.5 283t321.5 117q158 0 281 -86v-191zM264 819l133 137h116l133 -137h-128l-63 55l-63 -55h-128z" />
    <glyph glyph-name="gcircumflex" unicode="&#x11d;" horiz-adv-x="757" 
d="M472 522l5 28h256l2 -471q-7 -93 -66 -155t-144.5 -87.5t-194.5 -25.5q-84 0 -183 21l1 156q93 -58 166 -58q74 0 111.5 33t49.5 108q-32 -25 -62 -40.5t-63 -21.5t-50 -7t-53 -1q-102 0 -164 81t-62 189q0 53 17 101.5t51 88.5t90.5 63.5t128.5 23.5q74 0 164 -26z
M471 440q-27 7 -53 7q-63 0 -95.5 -39.5t-32.5 -95.5q0 -57 32 -100.5t85 -43.5q30 0 65 16zM174 619l133 181h116l133 -181h-128l-63 99l-63 -99h-128z" />
    <glyph glyph-name="Gbreve" unicode="&#x11e;" horiz-adv-x="779" 
d="M704 954h-2q-3 -58 -70.5 -91t-157.5 -33q-57 0 -105 13.5t-80.5 42.5t-33.5 69h107q3 -47 37.5 -72.5t80.5 -25.5q47 0 81.5 26t35.5 71h107zM755 523q-122 58 -231 58q-91 0 -146 -40.5t-55 -99.5q0 -58 48 -96.5t128 -44.5v98v2v80h256v-258v-136q-123 -86 -281 -86
q-188 0 -321.5 117t-133.5 283t133.5 283t321.5 117q158 0 281 -86v-191z" />
    <glyph glyph-name="gbreve" unicode="&#x11f;" horiz-adv-x="759" 
d="M472 522l5 28h256l2 -471q-7 -93 -66 -155t-144.5 -87.5t-194.5 -25.5q-84 0 -183 21l1 156q93 -58 166 -58q74 0 111.5 33t49.5 108q-32 -25 -62 -40.5t-63 -21.5t-50 -7t-53 -1q-102 0 -164 81t-62 189q0 53 17 101.5t51 88.5t90.5 63.5t128.5 23.5q74 0 164 -26z
M471 440q-27 7 -53 7q-63 0 -95.5 -39.5t-32.5 -95.5q0 -57 32 -100.5t85 -43.5q30 0 65 16zM596 802h-1q-3 -72 -70.5 -113t-157.5 -41q-57 0 -105 16.5t-80.5 52.5t-33.5 86h107q3 -61 37.5 -94.5t80.5 -33.5q47 0 81 33.5t35 93.5h107z" />
    <glyph glyph-name="Gdotaccent" unicode="&#x120;" horiz-adv-x="779" 
d="M755 523q-122 58 -231 58q-91 0 -146 -40.5t-55 -99.5q0 -58 48 -96.5t128 -44.5v98v2v80h256v-258v-136q-123 -86 -281 -86q-188 0 -321.5 117t-133.5 283t133.5 283t321.5 117q158 0 281 -86v-191zM483 968q44 0 72.5 -21t28.5 -57t-28 -53.5t-73 -17.5t-73 17.5
t-28 53.5t28.5 57t72.5 21z" />
    <glyph glyph-name="gdotaccent" unicode="&#x121;" horiz-adv-x="757" 
d="M472 522l5 28h256l2 -471q-7 -93 -66 -155t-144.5 -87.5t-194.5 -25.5q-84 0 -183 21l1 156q93 -58 166 -58q74 0 111.5 33t49.5 108q-32 -25 -62 -40.5t-63 -21.5t-50 -7t-53 -1q-102 0 -164 81t-62 189q0 53 17 101.5t51 88.5t90.5 63.5t128.5 23.5q74 0 164 -26z
M471 440q-27 7 -53 7q-63 0 -95.5 -39.5t-32.5 -95.5q0 -57 32 -100.5t85 -43.5q30 0 65 16zM412 800q42 0 71.5 -26.5t29.5 -63.5t-29.5 -63.5t-71.5 -26.5t-71.5 26.5t-29.5 63.5t29.5 63.5t71.5 26.5z" />
    <glyph glyph-name="Gcommaaccent" unicode="&#x122;" horiz-adv-x="779" 
d="M755 523v191q-123 86 -281 86q-188 0 -321.5 -117t-133.5 -283t133.5 -283t321.5 -117q158 0 281 86v136v258h-256v-80v-2v-98q-80 6 -128 44.5t-48 96.5q0 59 55 99.5t146 40.5q109 0 231 -58zM472 -12h-1q27 6 48 6q40 0 61 -16.5t21 -41.5q0 -45 -57.5 -84t-155.5 -39
q-23 0 -35 1v112q12 -7 51 -16t70 -9q53 0 53 28q0 19 -41 19q-11 0 -86 -10l-2 63h73z" />
    <glyph glyph-name="gcommaaccent" unicode="&#x123;" horiz-adv-x="757" 
d="M472 522l5 28h256l2 -471q-7 -93 -66 -155t-144.5 -87.5t-194.5 -25.5q-84 0 -183 21l1 156q93 -58 166 -58q74 0 111.5 33t49.5 108q-32 -25 -62 -40.5t-63 -21.5t-50 -7t-53 -1q-102 0 -164 81t-62 189q0 53 17 101.5t51 88.5t90.5 63.5t128.5 23.5q74 0 164 -26z
M471 440q-27 7 -53 7q-63 0 -95.5 -39.5t-32.5 -95.5q0 -57 32 -100.5t85 -43.5q30 0 65 16zM400 750h-1q27 6 48 6q40 0 61 -16.5t21 -41.5q0 -45 -57.5 -84t-155.5 -39q-23 0 -35 1v112q12 -7 51 -16t70 -9q53 0 53 28q0 19 -41 19q-11 0 -86 -10l-2 63h73z" />
    <glyph glyph-name="Hcircumflex" unicode="&#x124;" horiz-adv-x="834" 
d="M25 800h304v-233h176v233h304v-800h-304v378h-176v-378h-304v800zM244 819l133 137h116l133 -137h-128l-63 55l-63 -55h-128z" />
    <glyph glyph-name="hcircumflex" unicode="&#x125;" horiz-adv-x="701" 
d="M25 800h293v-279q72 28 144 28q91 0 150.5 -48.5t65.5 -142.5v-357h-251l2 384q-3 22 -14.5 37t-32.5 15q-27 0 -64 -27v-409h-293v799zM213 819l133 137h116l133 -137h-128l-63 55l-63 -55h-128z" />
    <glyph glyph-name="Hbar" unicode="&#x126;" horiz-adv-x="881" 
d="M19 675h31v125h304v-125h176v125h304v-125h28v-68h-28v-607h-304v378h-176v-378h-304v607h-31v68zM530 607h-176v-40h176v40z" />
    <glyph glyph-name="hbar" unicode="&#x127;" horiz-adv-x="725" 
d="M19 675l29 -1v127h263v-127h390v-68h-390v-82q66 25 133.5 27.5t122.5 -16.5t92 -64t42 -110v-357h-251l2 384q-2 22 -21 37t-52 14t-67 -26v-409h-263v603h-30v68z" />
    <glyph glyph-name="Itilde" unicode="&#x128;" horiz-adv-x="603" 
d="M138 0v800h304v-800h-304zM19 842l-1 1q1 129 101 129q42 0 132 -29t118 -29q44 0 47 43h167q-31 -134 -131 -134q-46 0 -127.5 32.5t-103.5 32.5q-35 0 -35 -45z" />
    <glyph glyph-name="itilde" unicode="&#x129;" horiz-adv-x="603" 
d="M156 550h274v-553h-274v553zM19 637l-1 1q5 85 39.5 119t91.5 34q39 0 114 -18.5t100 -18.5q49 0 52 46h167q-3 -164 -100 -164q-40 0 -125 33t-115 33q-51 0 -56 -64z" />
    <glyph glyph-name="Imacron" unicode="&#x12a;" horiz-adv-x="482" 
d="M19 871v39h444v-39h-444zM89 0v800h304v-800h-304z" />
    <glyph glyph-name="imacron" unicode="&#x12b;" horiz-adv-x="482" 
d="M19 666v71h444v-71h-444zM96 550h274v-553h-274v553z" />
    <glyph glyph-name="Ibreve" unicode="&#x12c;" horiz-adv-x="486" 
d="M467 954h-2q-3 -58 -70.5 -91t-157.5 -33q-57 0 -105 13.5t-80.5 42.5t-33.5 69h107q3 -47 37.5 -72.5t80.5 -25.5q47 0 81.5 26t35.5 71h107zM91 0v800h304v-800h-304z" />
    <glyph glyph-name="ibreve" unicode="&#x12d;" horiz-adv-x="486" 
d="M467 802h-1q-3 -72 -70.5 -113t-157.5 -41q-57 0 -105 16.5t-80.5 52.5t-33.5 86h107q3 -61 37.5 -94.5t80.5 -33.5q47 0 81 33.5t35 93.5h107zM104 550h274v-553h-274v553z" />
    <glyph glyph-name="Iogonek" unicode="&#x12e;" horiz-adv-x="436" 
d="M25 0v800h304v-800h-304zM417 -194l-1 1q-161 0 -245 30t-84 72q0 36 61 63t163 29l-1 -34q-4 1 -18 1q-45 0 -92 -9.5t-47 -28.5q0 -23 57 -23q49 0 120.5 14.5t86.5 22.5v-138z" />
    <glyph glyph-name="iogonek" unicode="&#x12f;" horiz-adv-x="406" 
d="M25 550h274v-553h-274v553zM162 749q57 0 97 -23t40 -55t-40 -55t-97 -23t-97 23t-40 55t40 55t97 23zM387 -194l-1 1q-161 0 -245 30t-84 72q0 36 61 63t163 29l-1 -34q-4 1 -18 1q-45 0 -92 -9.5t-47 -28.5q0 -23 57 -23q49 0 120.5 14.5t86.5 22.5v-138z" />
    <glyph glyph-name="Idotaccent" unicode="&#x130;" horiz-adv-x="354" 
d="M25 0v800h304v-800h-304zM172 968q44 0 72.5 -21t28.5 -57t-28 -53.5t-73 -17.5t-73 17.5t-28 53.5t28.5 57t72.5 21z" />
    <glyph glyph-name="dotlessi" unicode="&#x131;" horiz-adv-x="324" 
d="M25 550h274v-553h-274v553z" />
    <glyph glyph-name="IJ" unicode="&#x132;" horiz-adv-x="832" 
d="M504 800h305v-502q0 -52 -22 -102.5t-64.5 -95.5t-115.5 -72.5t-166 -27.5q-31 0 -66 3v301q20 -8 47 -8q34 0 58 20.5t24 61.5v422zM25 0v800h304v-800h-304z" />
    <glyph glyph-name="ij" unicode="&#x133;" horiz-adv-x="660" 
d="M500 749q57 0 97 -23t40 -55q0 -37 -40.5 -57.5t-96.5 -20.5t-96.5 20.5t-40.5 57.5q0 32 40 55t97 23zM363 552h273q0 -80 0.5 -247t0.5 -250q-31 -230 -370 -244v172q14 -2 19 -2q37 0 57 20.5t20 55.5v495zM25 550h274v-553h-274v553zM162 749q57 0 97 -23t40 -55
t-40 -55t-97 -23t-97 23t-40 55t40 55t97 23z" />
    <glyph glyph-name="Jcircumflex" unicode="&#x134;" horiz-adv-x="482" 
d="M152 800h305v-502q0 -52 -22 -102.5t-64.5 -95.5t-115.5 -72.5t-166 -27.5q-31 0 -66 3v301q20 -8 47 -8q34 0 58 20.5t24 61.5v422zM77 819l133 137h116l133 -137h-128l-63 55l-63 -55h-128z" />
    <glyph glyph-name="jcircumflex" unicode="&#x135;" horiz-adv-x="470" 
d="M69 619l133 181h116l133 -181h-128l-63 99l-63 -99h-128zM115 552h273q0 -80 0.5 -247t0.5 -250q-31 -230 -370 -244v172q14 -2 19 -2q37 0 57 20.5t20 55.5v495z" />
    <glyph glyph-name="Kcommaaccent" unicode="&#x136;" horiz-adv-x="781" 
d="M408 -12h-1q27 6 48 6q40 0 61 -16.5t21 -41.5q0 -45 -57.5 -84t-155.5 -39q-23 0 -35 1v112q12 -7 51 -16t70 -9q53 0 53 28q0 19 -41 19q-11 0 -86 -10l-2 63h73zM24 0v781v18h304v-233q55 0 66 39t11 183v11h300q-1 -12 -3 -31.5t-15 -71t-32.5 -92.5t-59 -78.5
t-91.5 -46.5q44 -1 80.5 -11t62 -29t45 -41t31.5 -54.5t20 -61.5t11.5 -69.5t4.5 -71t1 -73.5v-69h-304v14q0 234 -19 300t-109 67v-380h-304z" />
    <glyph glyph-name="kcommaaccent" unicode="&#x137;" horiz-adv-x="705" 
d="M25 0v800h272q0 -32 0.5 -206t0.5 -205q42 0 60 33.5t18 126.5h245v-20q0 -25 -3.5 -51t-13.5 -60t-34.5 -58.5t-60.5 -30.5q48 -1 82 -19t52 -43t28 -66t12 -73.5t2 -80.5v-47h-274q0 153 -23.5 206.5t-89.5 54.5v-261h-273zM381 -12h-1q27 6 48 6q40 0 61 -16.5
t21 -41.5q0 -45 -57.5 -84t-155.5 -39q-23 0 -35 1v112q12 -7 51 -16t70 -9q53 0 53 28q0 19 -41 19q-11 0 -86 -10l-2 63h73z" />
    <glyph glyph-name="kgreenlandic" unicode="&#x138;" horiz-adv-x="705" 
d="M25 0v548h272q0 -32 0.5 -80t0.5 -79q42 0 60 33.5t18 126.5h245v-20q0 -25 -3.5 -51t-13.5 -60t-34.5 -58.5t-60.5 -30.5q48 -1 82 -19t52 -43t28 -66t12 -73.5t2 -80.5v-47h-274q0 153 -23.5 206.5t-89.5 54.5v-261h-273z" />
    <glyph glyph-name="Lacute" unicode="&#x139;" horiz-adv-x="742" 
d="M25 0v800h304v-501h386v-299h-690zM373 957h155l-130 -138h-86z" />
    <glyph glyph-name="lacute" unicode="&#x13a;" horiz-adv-x="394" 
d="M25 0v800h274v-800h-274zM220 957h155l-130 -138h-86z" />
    <glyph glyph-name="Lcommaaccent" unicode="&#x13b;" horiz-adv-x="784" 
d="M419 -12q26 5 49 5q39 0 60 -16t21 -42q0 -45 -57.5 -84t-154.5 -39q-18 0 -36 1v112q12 -7 51 -15.5t70 -8.5q53 0 53 28q0 19 -41 19q-20 0 -88 -11l-1 64h73zM25 0v800h304v-501h432v-299h-736z" />
    <glyph glyph-name="lcommaaccent" unicode="&#x13c;" horiz-adv-x="346" 
d="M25 0v800h274v-800h-274zM197 -12q26 5 49 5q26 0 45 -7.5t27.5 -20.5t8.5 -30q0 -45 -57.5 -84t-154.5 -39q-18 0 -36 1v112q12 -7 51 -15.5t70 -8.5q53 0 53 28q0 19 -41 19q-20 0 -88 -11l-1 64h73z" />
    <glyph glyph-name="Lcaron" unicode="&#x13d;" horiz-adv-x="742" 
d="M25 0v800h304v-501h386v-299h-690zM284 956h128l63 -56l63 56h128l-133 -137h-116z" />
    <glyph glyph-name="lcaron" unicode="&#x13e;" horiz-adv-x="420" 
d="M44 0v800h274v-800h-274zM19 956h128l63 -56l63 56h128l-133 -137h-116z" />
    <glyph glyph-name="Ldot" unicode="&#x13f;" horiz-adv-x="736" 
d="M545 613q41 0 69.5 -24.5t28.5 -58.5t-28.5 -58.5t-69.5 -24.5t-69.5 24.5t-28.5 58.5t28.5 58.5t69.5 24.5zM25 0v800h304v-501h386v-299h-690z" />
    <glyph glyph-name="ldot" unicode="&#x140;" horiz-adv-x="533" 
d="M25 0v800h274v-800h-274zM416 613q41 0 69.5 -24.5t28.5 -58.5t-28.5 -58.5t-69.5 -24.5t-69.5 24.5t-28.5 58.5t28.5 58.5t69.5 24.5z" />
    <glyph glyph-name="Lslash" unicode="&#x141;" horiz-adv-x="737" 
d="M19 289l97 56v454h256h48v-278l96 55l39 -68l-135 -79v-131l295 1v-299l-599 -1v255l-57 -33z" />
    <glyph glyph-name="lslash" unicode="&#x142;" horiz-adv-x="426" 
d="M19 349l56 32v419h263v-245l30 18l39 -69l-69 -40v-460h-263v286l-16 -10z" />
    <glyph glyph-name="Nacute" unicode="&#x143;" horiz-adv-x="786" 
d="M372 957h155l-129 -138h-86zM761 800v-800h-309l-124 299v-299h-303v800h303l124 -188v188h309z" />
    <glyph glyph-name="nacute" unicode="&#x144;" horiz-adv-x="670" 
d="M359 800h155l-129 -181h-86zM25 549h295v-28q72 28 137 28q83 0 133 -48.5t57 -143.5v-358h-252l-2 358v12v27q0 31 -19 31q-17 0 -55 -17v-410h-294v549z" />
    <glyph glyph-name="Ncommaaccent" unicode="&#x145;" horiz-adv-x="786" 
d="M761 800v-800h-309l-124 299v-299h-303v800h303l124 -188v188h309zM418 -12h-1q27 6 48 6q40 0 61 -16.5t21 -41.5q0 -45 -57.5 -84t-155.5 -39q-23 0 -35 1v112q12 -7 51 -16t70 -9q53 0 53 28q0 19 -41 19q-13 0 -88 -10v63h73z" />
    <glyph glyph-name="ncommaaccent" unicode="&#x146;" horiz-adv-x="657" 
d="M25 549h272v-27q74 28 140 28q85 0 137.5 -48.5t59.5 -143.5v-358h-251l-3 391v5q0 33 -29 33q-21 0 -54 -19v-411h-272v550zM375 -12h-1q27 6 48 6q40 0 61 -16.5t21 -41.5q0 -45 -57.5 -84t-155.5 -39q-23 0 -35 1v112q12 -7 51 -16t70 -9q53 0 53 28q0 19 -41 19
q-11 0 -86 -10l-2 63h73z" />
    <glyph glyph-name="Ncaron" unicode="&#x147;" horiz-adv-x="786" 
d="M761 800v-800h-309l-124 299v-299h-303v800h303l124 -188v188h309zM209 956h128l63 -55l63 55h128l-133 -137h-116z" />
    <glyph glyph-name="ncaron" unicode="&#x148;" horiz-adv-x="657" 
d="M25 549h272v-27q74 28 140 28q85 0 137.5 -48.5t59.5 -143.5v-358h-251l-3 391v5q0 33 -29 33q-21 0 -54 -19v-411h-272v550zM161 800h128l63 -99l63 99h128l-133 -181h-116z" />
    <glyph glyph-name="napostrophe" unicode="&#x149;" horiz-adv-x="786" 
d="M154 549h272v-27q74 28 140 28q85 0 137.5 -48.5t59.5 -143.5v-358h-251l-3 391v5q0 33 -29 33q-21 0 -54 -19v-411h-272v550zM19 800h141l-23 -299h-95z" />
    <glyph glyph-name="Eng" unicode="&#x14a;" horiz-adv-x="887" 
d="M25 803l396 -1v-40q193 75 310.5 15t131.5 -254v-458q0 -58 -28 -104t-73 -72.5t-101.5 -46.5t-114 -25.5t-109.5 -9.5t-89 1l-3 153q34 -7 58.5 -10t47.5 -4.5t37 1.5t27.5 9t19 17t12.5 26t7 36t2 47t-1 59q0 197 -1 382q4 74 -14.5 111.5t-49.5 34.5t-68 -39v-632
h-397v804z" />
    <glyph glyph-name="eng" unicode="&#x14b;" horiz-adv-x="701" 
d="M25 549l264 -2v-27q66 25 133 27.5t122.5 -16.5t92 -64.5t41.5 -110.5v-360q0 -49 -31.5 -86t-78.5 -55t-102 -30t-102.5 -10t-79.5 5l-2 94q75 -22 110 6.5t34 116.5q0 194 -1 321q-2 46 -35 62t-101 -10v-410h-264v549z" />
    <glyph glyph-name="Omacron" unicode="&#x14c;" horiz-adv-x="894" 
d="M448 567q-52 0 -89 -39t-37 -95t37 -95t89 -39q53 0 90 39.5t37 94.5t-37 94.5t-90 39.5zM446 800q177 0 302.5 -117t125.5 -283t-125.5 -283t-302.5 -117t-302 117t-125 283t125 283t302 117zM219 871v39h444v-39h-444z" />
    <glyph glyph-name="omacron" unicode="&#x14d;" horiz-adv-x="629" 
d="M315 453q-36 0 -61.5 -27t-25.5 -65t25.5 -65.5t61.5 -27.5t61.5 27.5t25.5 65.5t-25.5 65t-61.5 27zM315 550q122 0 208 -80.5t86 -194.5t-86 -195t-208 -81t-208.5 81t-86.5 195t86.5 194.5t208.5 80.5zM99 666v71h444v-71h-444z" />
    <glyph glyph-name="Obreve" unicode="&#x14e;" horiz-adv-x="894" 
d="M448 567q-52 0 -89 -39t-37 -95t37 -95t89 -39q53 0 90 39.5t37 94.5t-37 94.5t-90 39.5zM446 800q177 0 302.5 -117t125.5 -283t-125.5 -283t-302.5 -117t-302 117t-125 283t125 283t302 117zM660 954h-2q-3 -58 -70.5 -91t-157.5 -33q-57 0 -105 13.5t-80.5 42.5
t-33.5 69h107q3 -47 37.5 -72.5t80.5 -25.5q47 0 81.5 26t35.5 71h107z" />
    <glyph glyph-name="obreve" unicode="&#x14f;" horiz-adv-x="628" 
d="M315 453q-36 0 -61.5 -27t-25.5 -65t25.5 -65.5t61.5 -27.5t61.5 27.5t25.5 65.5t-25.5 65t-61.5 27zM315 550q122 0 208 -80.5t86 -194.5t-86 -195t-208 -81t-208.5 81t-86.5 195t86.5 194.5t208.5 80.5zM543 802h-1q-3 -72 -70.5 -113t-157.5 -41q-57 0 -105 16.5
t-80.5 52.5t-33.5 86h107q3 -61 37.5 -94.5t80.5 -33.5q47 0 81 33.5t35 93.5h107z" />
    <glyph glyph-name="Ohungarumlaut" unicode="&#x150;" horiz-adv-x="894" 
d="M448 567q-52 0 -89 -39t-37 -95t37 -95t89 -39q53 0 90 39.5t37 94.5t-37 94.5t-90 39.5zM446 800q177 0 302.5 -117t125.5 -283t-125.5 -283t-302.5 -117t-302 117t-125 283t125 283t302 117zM531 957h135l-109 -138h-71zM374 957h135l-109 -138h-71z" />
    <glyph glyph-name="ohungarumlaut" unicode="&#x151;" horiz-adv-x="628" 
d="M315 453q-36 0 -61.5 -27t-25.5 -65t25.5 -65.5t61.5 -27.5t61.5 27.5t25.5 65.5t-25.5 65t-61.5 27zM315 550q122 0 208 -80.5t86 -194.5t-86 -195t-208 -81t-208.5 81t-86.5 195t86.5 194.5t208.5 80.5zM228 800h137l-93 -181h-88zM387 800h137l-93 -181h-88z" />
    <glyph glyph-name="OE" unicode="&#x152;" horiz-adv-x="990" 
d="M390 567q-45 0 -77 -39.5t-32 -94.5t32 -94.5t77 -39.5t77 39.5t32 94.5t-32 94.5t-77 39.5zM500 0v17q-55 -19 -112 -19q-152 0 -260 117t-108 283t108 283t260 117q57 0 112 -19v19h466v-189h-265q13 -22 21 -43h244v-189h-211q-1 -38 -11 -78h222v-299h-466z" />
    <glyph glyph-name="oe" unicode="&#x153;" horiz-adv-x="939" 
d="M314 452q-36 0 -61.5 -27t-25.5 -65t25.5 -65t61.5 -27t61.5 27t25.5 65t-25.5 65t-61.5 27zM920 335h-321q7 -28 7 -61v-6q50 -25 113 -25q85 0 191 45l1 -254q-132 -33 -218 -33q-113 0 -198 57q-80 -59 -182 -59q-121 0 -207 80.5t-86 194.5t86 194.5t207 80.5
q105 0 186 -62q33 25 50 35t53 19t87 9q79 0 143.5 -61t87.5 -154zM762 422v1q-37 48 -101 48t-98 -49h199z" />
    <glyph glyph-name="Racute" unicode="&#x154;" horiz-adv-x="784" 
d="M372 957h155l-129 -138h-86zM476 475q279 0 285 -191q0 -1 0.5 -3.5t0.5 -3.5t-0.5 -3.5t-0.5 -3.5v-270h-300v350q0 50 -98 50h-10.5t-9.5 -0.5t-7 -1t-5 -0.5h-2v-398h-304v571v211q0 1 37 5.5t106.5 8.5t137.5 4q86 0 160 -7.5t143.5 -25t110 -52.5t40.5 -85
q0 -142 -284 -155zM466 573q0 21 -32.5 31.5t-72.5 10.5q-15 0 -31 -2v-86q5 -1 18 -1q40 0 79 12t39 35z" />
    <glyph glyph-name="racute" unicode="&#x155;" horiz-adv-x="464" 
d="M251 800h155l-129 -181h-86zM25 550h276v-39q12 13 51.5 25.5t75.5 12.5h14v-164q-54 18 -84 18q-57 0 -57 -50v-353h-276v550z" />
    <glyph glyph-name="Rcommaaccent" unicode="&#x156;" horiz-adv-x="784" 
d="M476 475q279 0 285 -191q0 -1 0.5 -3.5t0.5 -3.5t-0.5 -3.5t-0.5 -3.5v-270h-300v350q0 50 -98 50h-10.5t-9.5 -0.5t-7 -1t-5 -0.5h-2v-398h-304v571v211q0 1 37 5.5t106.5 8.5t137.5 4q86 0 160 -7.5t143.5 -25t110 -52.5t40.5 -85q0 -142 -284 -155zM466 573
q0 21 -32.5 31.5t-72.5 10.5q-15 0 -31 -2v-86q5 -1 18 -1q40 0 79 12t39 35zM431 -12h-1q27 6 48 6q40 0 61 -16.5t21 -41.5q0 -45 -57.5 -84t-155.5 -39q-23 0 -35 1v112q12 -7 51 -16t70 -9q53 0 53 28q0 19 -41 19q-11 0 -86 -10l-2 63h73z" />
    <glyph glyph-name="rcommaaccent" unicode="&#x157;" horiz-adv-x="465" 
d="M25 550h276v-39q12 13 51.5 25.5t75.5 12.5h14v-164q-54 18 -84 18q-57 0 -57 -50v-353h-276v550zM147 -12h-1q27 6 48 6q40 0 61 -16.5t21 -41.5q0 -45 -57.5 -84t-155.5 -39q-23 0 -35 1v112q12 -7 51 -16t70 -9q53 0 53 28q0 19 -41 19q-11 0 -86 -10l-2 63h73z" />
    <glyph glyph-name="Rcaron" unicode="&#x158;" horiz-adv-x="784" 
d="M175 957h128l63 -55l63 55h128l-133 -137h-116zM477 475q279 0 285 -191q0 -1 0.5 -3.5t0.5 -3.5t-0.5 -3.5t-0.5 -3.5v-270h-300v350q0 50 -98 50h-10.5t-9.5 -0.5t-7 -1t-5 -0.5h-2v-398h-304v571v211q0 1 37 5.5t106.5 8.5t137.5 4q86 0 160 -7.5t143.5 -25t110 -52.5
t40.5 -85q0 -142 -284 -155zM467 573q0 21 -32.5 31.5t-72.5 10.5q-15 0 -31 -2v-86q5 -1 18 -1q40 0 79 12t39 35z" />
    <glyph glyph-name="rcaron" unicode="&#x159;" horiz-adv-x="464" 
d="M59 800h128l63 -99l63 99h128l-133 -181h-116zM25 550h276v-39q12 13 51.5 25.5t75.5 12.5h14v-164q-54 18 -84 18q-57 0 -57 -50v-353h-276v550z" />
    <glyph glyph-name="Sacute" unicode="&#x15a;" horiz-adv-x="779" 
d="M760 299q0 -72 -20.5 -126.5t-53.5 -86.5t-82 -52t-99.5 -27t-112.5 -7q-85 0 -177 14.5t-141 29.5l-50 14v320l-1 1l25 -9q25 -8 67 -20.5t89.5 -24.5t100.5 -21t93 -9q106 0 106 62q0 27 -34.5 41t-86 16t-112 9.5t-112 20t-86 50t-34.5 96.5q0 10 2 30
q11 85 112.5 132.5t239.5 47.5q56 0 119.5 -7t98.5 -13l35 -7v-206q-140 46 -234 46q-84 0 -84 -46q0 -18 32 -30t80 -19t104 -21.5t104 -34.5t80 -62t32 -101zM372 957h155l-129 -138h-86z" />
    <glyph glyph-name="sacute" unicode="&#x15b;" horiz-adv-x="496" 
d="M259 800h155l-129 -181h-86zM477 236q0 -71 -19.5 -119.5t-54.5 -72.5t-73 -33.5t-86 -9.5q-51 0 -106 8.5t-84 16.5l-30 9v273h-1l40 -13q40 -13 98.5 -26.5t95.5 -13.5q54 0 54 30q0 19 -28.5 27t-69.5 10t-82 8t-69.5 29.5t-28.5 65.5q0 11 1 17q6 51 67 79.5
t144 28.5q34 0 85 -4t86 -8l34 -4v-138q-127 34 -198 34q-46 0 -46 -19q0 -13 28 -19t68 -12t79.5 -18t67.5 -44t28 -82z" />
    <glyph glyph-name="Scircumflex" unicode="&#x15c;" horiz-adv-x="779" 
d="M195 819l133 137h116l133 -137h-128l-63 55l-63 -55h-128zM760 299q0 -72 -20.5 -126.5t-53.5 -86.5t-82 -52t-99.5 -27t-112.5 -7q-85 0 -177 14.5t-141 29.5l-50 14v320l-1 1l25 -9q25 -8 67 -20.5t89.5 -24.5t100.5 -21t93 -9q106 0 106 62q0 27 -34.5 41t-86 16
t-112 9.5t-112 20t-86 50t-34.5 96.5q0 10 2 30q11 85 112.5 132.5t239.5 47.5q56 0 119.5 -7t98.5 -13l35 -7v-206q-140 46 -234 46q-84 0 -84 -46q0 -18 32 -30t80 -19t104 -21.5t104 -34.5t80 -62t32 -101z" />
    <glyph glyph-name="scircumflex" unicode="&#x15d;" horiz-adv-x="495" 
d="M59 619l133 181h116l133 -181h-128l-63 99l-63 -99h-128zM476 236q0 -71 -19.5 -119.5t-54.5 -72.5t-73 -33.5t-86 -9.5q-51 0 -106 8.5t-85 16.5l-29 9v273h-1l40 -13q40 -13 98.5 -26.5t95.5 -13.5q54 0 54 30q0 19 -28.5 27t-69.5 10t-82 8t-69.5 29.5t-28.5 65.5
q0 11 1 17q6 51 67 79.5t144 28.5q34 0 85 -4t85 -8l35 -4v-138q-127 34 -198 34q-46 0 -46 -19q0 -13 28 -19t67.5 -12t79.5 -18t68 -44t28 -82z" />
    <glyph glyph-name="Scedilla" unicode="&#x15e;" horiz-adv-x="779" 
d="M760 299q0 59 -32 101t-80 62t-104 34.5t-104 21.5t-80 19t-32 30q0 46 84 46q42 0 100.5 -11.5t95.5 -23.5l38 -11v206q-126 27 -253 27q-138 0 -239.5 -47.5t-112.5 -132.5q-2 -20 -2 -30q0 -59 34.5 -96.5t86 -50t112 -20t112 -9.5t86 -16t34.5 -41q0 -62 -106 -62
q-40 0 -93 9t-100.5 21t-89.5 24.5t-67 20.5l-25 9q0 -1 1 -1v-320q20 -6 54.5 -16t131.5 -26t182 -16q62 0 112.5 7t99.5 27t82 52t53.5 86.5t20.5 126.5zM419 -12h-1q27 6 48 6q40 0 61 -16.5t21 -41.5q0 -45 -57.5 -84t-155.5 -39q-23 0 -35 1v112q12 -7 51 -16t70 -9
q53 0 53 28q0 19 -41 19q-11 0 -86 -10l-2 63h73z" />
    <glyph glyph-name="scedilla" unicode="&#x15f;" horiz-adv-x="496" 
d="M477 236q0 -71 -19.5 -119.5t-54.5 -72.5t-73 -33.5t-86 -9.5q-51 0 -106 8.5t-84 16.5l-30 9v273h-1l40 -13q40 -13 98.5 -26.5t95.5 -13.5q54 0 54 30q0 19 -28.5 27t-69.5 10t-82 8t-69.5 29.5t-28.5 65.5q0 11 1 17q6 51 67 79.5t144 28.5q34 0 85 -4t86 -8l34 -4
v-138q-127 34 -198 34q-46 0 -46 -19q0 -13 28 -19t68 -12t79.5 -18t67.5 -44t28 -82zM274 -12h-1q27 6 48 6q40 0 61 -16.5t21 -41.5q0 -45 -57.5 -84t-155.5 -39q-23 0 -35 1v112q12 -7 51 -16t70 -9q53 0 53 28q0 19 -41 19q-11 0 -86 -10l-2 63h73z" />
    <glyph glyph-name="Scaron" unicode="&#x160;" horiz-adv-x="779" 
d="M392 1v-2q-85 0 -177 14.5t-141 28.5l-50 15v321h-1l25 -8q25 -9 67 -21.5t89.5 -24.5t100.5 -21t93 -9q106 0 106 63q0 27 -34.5 41t-86.5 16t-112 9.5t-112 20t-86.5 50t-34.5 96.5q0 9 2 29q11 85 112.5 132.5t239.5 47.5q56 0 119.5 -6.5t98.5 -13.5l36 -7v-205
q-140 45 -234 45q-83 0 -84 -45q0 -21 44.5 -33.5t108 -24t127 -30.5t108 -64.5t44.5 -114.5q-7 -91 -35.5 -151t-79 -91.5t-110 -44t-143.5 -12.5zM174 955h128l63 -55l63 55h128l-133 -137h-116z" />
    <glyph glyph-name="scaron" unicode="&#x161;" horiz-adv-x="497" 
d="M55 800h128l63 -99l63 99h128l-133 -181h-116zM478 236l-2 -2q0 -71 -19.5 -119.5t-54.5 -73t-73 -34t-86 -9.5q-51 0 -106 8.5t-85 17.5l-29 9v273l40 -13q40 -13 98.5 -26.5t95.5 -13.5q54 0 54 30q0 19 -28.5 27t-69.5 10t-82.5 8t-70 29.5t-28.5 65.5q0 12 1 18
q6 51 67 79.5t144 28.5q34 0 85.5 -4t86.5 -8l34 -4v-138q-127 35 -198 35q-46 0 -46 -19q0 -13 28 -19t68 -12t80 -18t68 -44t28 -82z" />
    <glyph glyph-name="Tcommaaccent" unicode="&#x162;" horiz-adv-x="777" 
d="M756 800v-188h-219v-612h-304v612h-213v188h736zM422 -12h-1q27 6 48 6q40 0 61 -16.5t21 -41.5q0 -45 -57.5 -84t-155.5 -39q-23 0 -35 1v112q12 -7 51 -16t70 -9q53 0 53 28q0 19 -41 19q-11 0 -86 -10l-2 63h73z" />
    <glyph glyph-name="tcommaaccent" unicode="&#x163;" horiz-adv-x="545" 
d="M65 172q0 -50 27.5 -86t74 -54t95.5 -26t104 -8q63 0 121 10v119q-56 -31 -92 -31q-54 0 -54 88v14v88h-1q0 21 0.5 80.5t0.5 94.5h146v89h-146q0 41 0.5 114t0.5 101v40h-277v-255h-46v-89h46v-65v-110v-88v-26zM396 -12h-1q27 6 48 6q40 0 61 -16.5t21 -41.5
q0 -45 -57.5 -84t-155.5 -39q-23 0 -35 1v112q12 -7 51 -16t70 -9q53 0 53 28q0 19 -41 19q-11 0 -86 -10l-2 63h73z" />
    <glyph glyph-name="Tcaron" unicode="&#x164;" horiz-adv-x="777" 
d="M756 800v-188h-219v-612h-304v612h-213v188h736zM171 957h128l63 -55l63 55h128l-133 -137h-116z" />
    <glyph glyph-name="tcaron" unicode="&#x165;" horiz-adv-x="508" 
d="M57 957h128l63 -55l63 55h128l-133 -137h-116zM66 172l-1 26v88v110v65h-46v89h46v254l277 -2v-37q0 -28 -0.5 -101t-0.5 -114h146v-89h-146q0 -35 -0.5 -94.5t-0.5 -80.5h1l1 -88l-1 -14v-15q0 -73 55 -73q36 0 92 31v-119q-58 -10 -121 -10q-55 0 -104 8t-95.5 26
t-74 54t-27.5 86z" />
    <glyph glyph-name="Tbar" unicode="&#x166;" horiz-adv-x="777" 
d="M127 315h107v296h-213v188h213h304h219v-188h-219v-296h109v-68h-109v-249h-304v249h-107v68z" />
    <glyph glyph-name="tbar" unicode="&#x167;" horiz-adv-x="480" 
d="M19 315l44 -2v92h-41v78h41l1 316h267q0 -25 -0.5 -147t-0.5 -168h128v-78h-128v-91h128v-68h-128v-72q-3 -72 28.5 -86t99.5 24v-105q-34 -6 -79 -8t-102 3.5t-103.5 20.5t-78.5 48t-32 81v94h-44v68z" />
    <glyph glyph-name="Utilde" unicode="&#x168;" horiz-adv-x="782" 
d="M327 800v-422q18 -78 61 -78q23 0 42 22.5t24 55.5v421h305v-504q0 -71 -31 -128.5t-82.5 -93t-116 -54.5t-134.5 -19q-71 0 -136.5 19.5t-118.5 55.5t-85 94t-32 129v502h304zM121 842l-1 1q1 129 101 129q42 0 132 -29t118 -29q44 0 47 43h167q-31 -134 -131 -134
q-46 0 -127.5 32.5t-103.5 32.5q-35 0 -35 -45z" />
    <glyph glyph-name="utilde" unicode="&#x169;" horiz-adv-x="654" 
d="M630 1h-274v28q-76 -28 -138 -28q-84 0 -136 48.5t-59 142.5v355h250l3 -394q0 -14 8 -25t23 -11q22 0 49 22v408h274v-546zM57 637l-1 1q5 85 39.5 119t91.5 34q39 0 114 -18.5t100 -18.5q49 0 52 46h167q-3 -164 -100 -164q-40 0 -125 33t-115 33q-51 0 -56 -64z" />
    <glyph glyph-name="Umacron" unicode="&#x16a;" horiz-adv-x="782" 
d="M327 800v-422q18 -78 61 -78q23 0 42 22.5t24 55.5v421h305v-504q0 -71 -31 -128.5t-82.5 -93t-116 -54.5t-134.5 -19q-71 0 -136.5 19.5t-118.5 55.5t-85 94t-32 129v502h304zM176 871v39h444v-39h-444z" />
    <glyph glyph-name="umacron" unicode="&#x16b;" horiz-adv-x="656" 
d="M631 1h-274v28q-76 -28 -138 -28q-84 0 -136 48.5t-59 142.5v355h250l3 -394q0 -14 8 -25t23 -11q22 0 49 22v408h274v-546zM103 666v71h444v-71h-444z" />
    <glyph glyph-name="Ubreve" unicode="&#x16c;" horiz-adv-x="782" 
d="M327 800v-422q18 -78 61 -78q23 0 42 22.5t24 55.5v421h305v-504q0 -71 -31 -128.5t-82.5 -93t-116 -54.5t-134.5 -19q-71 0 -136.5 19.5t-118.5 55.5t-85 94t-32 129v502h304zM619 954h-2q-3 -58 -70.5 -91t-157.5 -33q-57 0 -105 13.5t-80.5 42.5t-33.5 69h107
q3 -47 37.5 -72.5t80.5 -25.5q47 0 81.5 26t35.5 71h107z" />
    <glyph glyph-name="ubreve" unicode="&#x16d;" horiz-adv-x="655" 
d="M630 1h-274v28q-76 -28 -138 -28q-84 0 -136 48.5t-59 142.5v355h250l3 -394q0 -14 8 -25t23 -11q22 0 49 22v408h274v-546zM546 802h-1q-3 -72 -70.5 -113t-157.5 -41q-57 0 -105 16.5t-80.5 52.5t-33.5 86h107q3 -61 37.5 -94.5t80.5 -33.5q47 0 81 33.5t35 93.5h107z
" />
    <glyph glyph-name="Uring" unicode="&#x16e;" horiz-adv-x="782" 
d="M390 957h1q52 0 82 -19.5t30 -51.5q0 -24 -31.5 -44.5t-80.5 -20.5q-50 0 -80.5 20.5t-30.5 45.5q0 26 30.5 48t79.5 22zM392 940h-1q-24 0 -36.5 -15.5t-12.5 -32.5t13 -32t36 -15q24 0 38.5 15.5t14.5 32.5q0 18 -13.5 32.5t-38.5 14.5zM326 800v-422q18 -78 61 -78
q23 0 42 22.5t24 55.5v421h305v-504q0 -71 -31 -128.5t-82.5 -93t-116 -54.5t-134.5 -19q-71 0 -136.5 19.5t-118.5 55.5t-85 94t-32 129v502h304z" />
    <glyph glyph-name="uring" unicode="&#x16f;" horiz-adv-x="655" 
d="M630 1h-274v28q-76 -28 -138 -28q-84 0 -136 48.5t-59 142.5v355h250l3 -394q0 -14 8 -25t23 -11q22 0 49 22v408h274v-546zM314 800q53 0 90.5 -26.5t37.5 -63.5t-37.5 -63.5t-90.5 -26.5t-90.5 26.5t-37.5 63.5t37.5 63.5t90.5 26.5zM315 777q-26 0 -44.5 -16.5
t-18.5 -39.5t18.5 -39.5t44.5 -16.5t44.5 16.5t18.5 39.5t-18.5 39.5t-44.5 16.5z" />
    <glyph glyph-name="Uhungarumlaut" unicode="&#x170;" horiz-adv-x="782" 
d="M327 800v-422q18 -78 61 -78q23 0 42 22.5t24 55.5v421h305v-504q0 -71 -31 -128.5t-82.5 -93t-116 -54.5t-134.5 -19q-71 0 -136.5 19.5t-118.5 55.5t-85 94t-32 129v502h304zM487 957h135l-109 -138h-71zM330 957h135l-109 -138h-71z" />
    <glyph glyph-name="uhungarumlaut" unicode="&#x171;" horiz-adv-x="655" 
d="M630 1h-274v28q-76 -28 -138 -28q-84 0 -136 48.5t-59 142.5v355h250l3 -394q0 -14 8 -25t23 -11q22 0 49 22v408h274v-546zM231 800h137l-93 -181h-88zM390 800h137l-93 -181h-88z" />
    <glyph glyph-name="Uogonek" unicode="&#x172;" horiz-adv-x="782" 
d="M327 800v-422q18 -78 61 -78q23 0 42 22.5t24 55.5v419h305v-502q0 -71 -31 -128.5t-82.5 -93t-116 -54.5t-134.5 -19q-71 0 -136.5 19.5t-118.5 55.5t-85 94t-32 129v502h304zM570 -194l-1 1q-161 0 -245 30t-84 72q0 36 61 63t163 29l-1 -34q-4 1 -18 1q-45 0 -92 -9.5
t-47 -28.5q0 -23 57 -23q49 0 120.5 14.5t86.5 22.5v-138z" />
    <glyph glyph-name="uogonek" unicode="&#x173;" horiz-adv-x="725" 
d="M631 1h-274v28q-76 -28 -138 -28q-84 0 -136 48.5t-59 142.5v355h250l3 -394q0 -14 8 -25t23 -11q22 0 49 22v408h274v-546zM706 -194l-1 1q-161 0 -245 30t-84 72q0 36 61 63t163 29l-1 -34q-4 1 -18 1q-45 0 -92 -9.5t-47 -28.5q0 -23 57 -23q49 0 120.5 14.5
t86.5 22.5v-138z" />
    <glyph glyph-name="Wcircumflex" unicode="&#x174;" horiz-adv-x="959" 
d="M407 0h-248l-140 800h303l35 -219q111 190 126 219l121 -219l30 219h306l-135 -800h-241l-82 299zM289 819l133 137h116l133 -137h-128l-63 55l-63 -55h-128z" />
    <glyph glyph-name="wcircumflex" unicode="&#x175;" horiz-adv-x="985" 
d="M440 4h-288l-133 546h271l65 -342l56 342h1h270l66 -342l56 342h162l-133 -546h-288l-53 215zM319 619l133 181h116l133 -181h-128l-63 99l-63 -99h-128z" />
    <glyph glyph-name="Ycircumflex" unicode="&#x176;" horiz-adv-x="735" 
d="M518 480v-480h-304v480l-195 320h308l88 -188l90 188h211zM222 819l133 137h116l133 -137h-128l-63 55l-63 -55h-128z" />
    <glyph glyph-name="ycircumflex" unicode="&#x177;" horiz-adv-x="658" 
d="M358 27q-74 -27 -138 -27q-85 0 -137.5 48.5t-59.5 143.5v358h222l3 -397q0 -13 15.5 -25t37.5 -12q30 0 58 23v411h275v-474q-9 -135 -99.5 -201t-232.5 -66q-117 0 -244 49l1 157q104 -77 183 -77q99 0 116 89zM111 619l133 181h116l133 -181h-128l-63 99l-63 -99h-128
z" />
    <glyph glyph-name="Ydieresis" unicode="&#x178;" horiz-adv-x="735" 
d="M292 968q44 0 72.5 -21t28.5 -57t-28 -53.5t-73 -17.5t-73 17.5t-28 53.5t28.5 57t72.5 21zM531 968q44 0 72.5 -21t28.5 -57t-28 -53.5t-73 -17.5t-73 17.5t-28 53.5t28.5 57t72.5 21zM371 801h-48h48zM518 480v-480h-304v480l-195 320h308l88 -188l91 188h211z" />
    <glyph glyph-name="Zacute" unicode="&#x179;" horiz-adv-x="779" 
d="M451 299h305v-299h-736l390 612h-390v188h736zM368 957h155l-129 -138h-86z" />
    <glyph glyph-name="zacute" unicode="&#x17a;" horiz-adv-x="601" 
d="M370 269h209v-269h-560l268 421h-264v129h556zM313 800h155l-129 -181h-86z" />
    <glyph glyph-name="Zdotaccent" unicode="&#x17b;" horiz-adv-x="779" 
d="M451 299h305v-299h-736l390 612h-390v188h736zM392 968q44 0 72.5 -21t28.5 -57t-28 -53.5t-73 -17.5t-73 17.5t-28 53.5t28.5 57t72.5 21z" />
    <glyph glyph-name="zdotaccent" unicode="&#x17c;" horiz-adv-x="601" 
d="M307 800q42 0 71.5 -26.5t29.5 -63.5t-29.5 -63.5t-71.5 -26.5t-71.5 26.5t-29.5 63.5t29.5 63.5t71.5 26.5zM370 269h209v-269h-560l268 421h-264v129h556z" />
    <glyph glyph-name="Zcaron" unicode="&#x17d;" horiz-adv-x="779" 
d="M199 957h128l63 -55l63 55h128l-133 -137h-116zM452 299h305v-299h-736l390 612h-390v188h736z" />
    <glyph glyph-name="zcaron" unicode="&#x17e;" horiz-adv-x="597" 
d="M142 800h128l63 -99l63 99h128l-133 -181h-116zM367 271h208v-267h-556l266 418h-212v128h502z" />
    <glyph glyph-name="florin" unicode="&#x192;" horiz-adv-x="618" 
d="M191 518q0 55 18.5 99t50.5 71.5t72.5 46t87 25.5t90.5 6.5t86 -7.5l2 -126q-75 38 -120.5 13t-51.5 -96v-32h157v-96h-157q0 -10 0.5 -214t-0.5 -213q1 -84 -113 -142.5t-292 -27.5l-2 126q160 -87 172 45v263v163h-49v96h49z" />
    <glyph glyph-name="Ohorn" unicode="&#x1a0;" horiz-adv-x="897" 
d="M734 963h144q-1 -41 -16.5 -80t-37 -65.5t-42.5 -47.5t-36 -31l-15 -10v88q26 19 26 64q0 35 -23 82zM448 567q-52 0 -89 -39t-37 -95t37 -95t89 -39q53 0 90 39.5t37 94.5t-37 94.5t-90 39.5zM446 800q177 0 302.5 -117t125.5 -283t-125.5 -283t-302.5 -117t-302 117
t-125 283t125 283t302 117z" />
    <glyph glyph-name="ohorn" unicode="&#x1a1;" horiz-adv-x="717" 
d="M315 453q-36 0 -61.5 -27t-25.5 -65t25.5 -65.5t61.5 -27.5t61.5 27.5t25.5 65.5t-25.5 65t-61.5 27zM315 550q122 0 208 -80.5t86 -194.5t-86 -195t-208 -81t-208.5 81t-86.5 195t86.5 194.5t208.5 80.5zM554 693h144q-2 -41 -17.5 -80t-37 -65.5t-42.5 -47.5t-36 -31
l-15 -10v88q1 1 2 1.5t3.5 3.5t5 6.5t5.5 9t5.5 11.5t3.5 14.5t1 17.5q0 35 -22 82z" />
    <glyph glyph-name="Uhorn" unicode="&#x1af;" horiz-adv-x="943" 
d="M327 800v-422q18 -78 61 -78q23 0 42 22.5t24 55.5v421h305v-504q0 -71 -31 -128.5t-82.5 -93t-116 -54.5t-134.5 -19q-71 0 -136.5 19.5t-118.5 55.5t-85 94t-32 129v502h304zM783 963h144q-1 -41 -16.5 -80t-37 -65.5t-42.5 -47.5t-36 -31l-15 -10v88q26 19 26 64
q0 35 -23 82z" />
    <glyph glyph-name="uhorn" unicode="&#x1b0;" horiz-adv-x="820" 
d="M631 1h-274v28q-76 -28 -138 -28q-84 0 -136 48.5t-59 142.5v355h250l3 -394q0 -14 8 -25t23 -11q22 0 49 22v408h274v-546zM659 693h144q-1 -41 -16.5 -80t-37 -65.5t-42.5 -47.5t-36 -31l-15 -10v88l1.5 1.5l3.5 3.5t5.5 6.5t5.5 9t5 11.5t3.5 14.5t1.5 17.5
q0 35 -23 82z" />
    <glyph glyph-name="circumflex" unicode="&#x2c6;" horiz-adv-x="438" 
d="M28 819l133 137h116l133 -137h-128l-63 55l-63 -55h-128z" />
    <glyph glyph-name="tilde" unicode="&#x2dc;" horiz-adv-x="621" 
d="M28 842l-1 1q1 129 101 129q42 0 132 -29t118 -29q44 0 47 43h167q-31 -134 -131 -134q-45 0 -127 32.5t-104 32.5q-35 0 -35 -45z" />
    <glyph glyph-name="gravecomb" unicode="&#x300;" horiz-adv-x="500" 
d="M269 957l60 -138h-86l-129 138h155z" />
    <glyph glyph-name="acutecomb" unicode="&#x301;" horiz-adv-x="500" 
d="M168 819l60 138h155l-129 -138h-86z" />
    <glyph glyph-name="tildecomb" unicode="&#x303;" horiz-adv-x="621" 
d="M28 842l-1 1q1 129 101 129q42 0 132 -29t118 -29q44 0 47 43h167q-31 -134 -131 -134q-45 0 -127 32.5t-104 32.5q-35 0 -35 -45z" />
    <glyph glyph-name="hookabovecomb" unicode="&#x309;" horiz-adv-x="500" 
 />
    <glyph glyph-name="dotbelowcomb" unicode="&#x323;" horiz-adv-x="500" 
d="M248 -39q31 0 53 -18.5t22 -44.5t-22 -44.5t-53 -18.5t-52.5 18.5t-21.5 44.5t21.5 44.5t52.5 18.5z" />
    <glyph glyph-name="Alphatonos" unicode="&#x386;" horiz-adv-x="738" 
d="M68 802h110l-64 -182h-86zM361 202l-40 166l-41 -166h81zM249 73l-18 -73h-211l195 802h308l195 -802h-309l-17 73h-143z" />
    <glyph glyph-name="Epsilontonos" unicode="&#x388;" horiz-adv-x="901" 
d="M189 0v800h690v-189h-386v-44h386v-189h-386v-79h386v-299h-690zM60 802h110l-64 -182h-86z" />
    <glyph glyph-name="Etatonos" unicode="&#x389;" horiz-adv-x="999" 
d="M60 802h110l-64 -182h-86zM189 800h304v-233h176v233h304v-800h-304v378h-176v-378h-304v800z" />
    <glyph glyph-name="Iotatonos" unicode="&#x38a;" horiz-adv-x="521" 
d="M60 802h110l-64 -182h-86zM191 0v800h304v-800h-304z" />
    <glyph glyph-name="Omicrontonos" unicode="&#x38c;" horiz-adv-x="947" 
d="M60 802h110l-64 -182h-86zM500 567q-52 0 -89 -39t-37 -95t37 -95t89 -39q53 0 90 39.5t37 94.5t-37 94.5t-90 39.5zM498 800q177 0 302.5 -117t125.5 -283t-125.5 -283t-302.5 -117t-302 117t-125 283t125 283t302 117z" />
    <glyph glyph-name="Upsilontonos" unicode="&#x38e;" horiz-adv-x="910" 
d="M60 802h110l-64 -182h-86zM691 480v-480h-304v480l-195 320h308l88 -188l90 188h211z" />
    <glyph glyph-name="Omegatonos" unicode="&#x38f;" horiz-adv-x="982" 
d="M60 802h110l-64 -182h-86zM532 627h1q-114 1 -159 -84q-37 -68 -10 -145q25 -72 89 -93q20 -6 41 -6v-299h-391v299h185q-86 38 -135.5 98t-49.5 129q0 114 125 194.5t302 80.5t302 -80.5t125 -194.5q0 -69 -49.5 -129t-135.5 -98h185v-299h-384v299q79 0 118 71
q37 67 13 142q-26 82 -110 106q-28 9 -62 9z" />
    <glyph glyph-name="iotadieresistonos" unicode="&#x390;" horiz-adv-x="454" 
d="M227 870h110l-64 -182h-86zM360 709q31 0 52.5 -19.5t21.5 -46.5t-21.5 -46.5t-52.5 -19.5t-52.5 19.5t-21.5 46.5t21.5 46.5t52.5 19.5zM93 708q31 0 52.5 -19.5t21.5 -46.5t-21.5 -46.5t-52.5 -19.5t-52.5 19.5t-21.5 46.5t21.5 46.5t52.5 19.5zM100 1v549h272v-549
h-272z" />
    <glyph glyph-name="Alpha" unicode="&#x391;" horiz-adv-x="738" 
d="M361 202l-40 166l-41 -166h81zM249 73l-18 -73h-211l195 802h308l195 -802h-309l-17 73h-143z" />
    <glyph glyph-name="Beta" unicode="&#x392;" horiz-adv-x="782" 
d="M486 476q125 -3 200.5 -51t75.5 -147v-7q-1 -55 -24 -99.5t-63.5 -73t-88 -48.5t-107.5 -30.5t-113 -14.5t-112 -4q-50 0 -102 2.5t-85.5 5.5t-38.5 3h-3v194v366v211q0 1 30.5 5.5t87.5 8.5t113 4t105 -4t100 -15.5t87 -30t59 -49t23 -70.5v-1q0 -55 -40.5 -98
t-103.5 -57zM462 351q0 50 -99 50h-10.5t-9.5 -0.5t-7 -1t-5 -0.5h-2v-98q20 -2 31 -2q43 0 72.5 13.5t29.5 38.5zM446 574q0 21 -27 31.5t-62 10.5q-12 0 -28 -2v-86q5 -1 17 -1q35 0 67.5 12t32.5 35z" />
    <glyph glyph-name="Gamma" unicode="&#x393;" horiz-adv-x="667" 
d="M25 0l-1 800h621v-189h-301q0 -100 -2 -302t-2 -309h-315z" />
    <glyph glyph-name="Delta" unicode="&#x394;" horiz-adv-x="790" 
d="M770 4h-751l223 792h305zM289 191h114l-57 176z" />
    <glyph glyph-name="Delta" unicode="&#x2206;" horiz-adv-x="790" 
d="M770 4h-751l223 792h305zM289 191h114l-57 176z" />
    <glyph glyph-name="Epsilon" unicode="&#x395;" horiz-adv-x="739" 
d="M25 0v800h690v-189h-386v-44h386v-189h-386v-79h386v-299h-690z" />
    <glyph glyph-name="Zeta" unicode="&#x396;" horiz-adv-x="781" 
d="M452 299h305v-299h-736l390 612h-390v188h736z" />
    <glyph glyph-name="Eta" unicode="&#x397;" horiz-adv-x="834" 
d="M25 800h304v-233h176v233h304v-800h-304v378h-176v-378h-304v800z" />
    <glyph glyph-name="Theta" unicode="&#x398;" horiz-adv-x="895" 
d="M325 549h252q-47 78 -128 78t-124 -78zM596 378h-286q35 -93 144 -93t142 93zM448 800q177 0 302 -117t125 -283t-125 -283t-302 -117t-302 117t-125 283t125 283t302 117z" />
    <glyph glyph-name="Iota" unicode="&#x399;" horiz-adv-x="354" 
d="M25 0v800h304v-800h-304z" />
    <glyph glyph-name="Kappa" unicode="&#x39a;" horiz-adv-x="782" 
d="M25 0v781v18h304v-233q55 0 66 39t11 183v11h300q-1 -12 -3 -31.5t-15 -71t-32.5 -92.5t-59 -78.5t-91.5 -46.5q44 -1 80.5 -11t62 -29t45 -41t31.5 -54.5t20 -61.5t11.5 -69.5t4.5 -71t1 -73.5v-69h-304v14q0 234 -19 300t-109 67v-380h-304z" />
    <glyph glyph-name="Lambda" unicode="&#x39b;" horiz-adv-x="797" 
d="M469 0l-120 367l-119 -367h-211l225 800h308l225 -800h-308z" />
    <glyph glyph-name="Mu" unicode="&#x39c;" horiz-adv-x="905" 
d="M576 800h304v-188v-612h-304v299l-124 -299l-124 299v-299h-303v612v188h303l124 -188z" />
    <glyph glyph-name="Nu" unicode="&#x39d;" horiz-adv-x="786" 
d="M761 800v-800h-309l-124 299v-299h-303v800h303l124 -329v329h309z" />
    <glyph glyph-name="Xi" unicode="&#x39e;" horiz-adv-x="847" 
d="M66 800h721v-188h-721v188zM165 548h505v-165h-505v165zM823 299v-299h-799v299h799z" />
    <glyph glyph-name="Omicron" unicode="&#x39f;" horiz-adv-x="895" 
d="M449 567q-52 0 -89 -39t-37 -95t37 -95t89 -39q53 0 90 39.5t37 94.5t-37 94.5t-90 39.5zM447 800q177 0 302.5 -117t125.5 -283t-125.5 -283t-302.5 -117t-302 117t-125 283t125 283t302 117z" />
    <glyph glyph-name="Pi" unicode="&#x3a0;" horiz-adv-x="804" 
d="M25 801h754v-800h-304v612h-146v-612h-304v800z" />
    <glyph glyph-name="Rho" unicode="&#x3a1;" horiz-adv-x="703" 
d="M22 3l1 209v364v36v174v13h303q89 0 163 -23t116 -60t65.5 -81t9.5 -88.5t-51 -81.5t-117 -59.5t-187 -22.5v-380h-303zM327 475q34 0 64 8t49 20t30 26.5t7 29t-18.5 26.5t-49 19.5t-82.5 7.5v-137z" />
    <glyph glyph-name="Sigma" unicode="&#x3a3;" horiz-adv-x="843" 
d="M24 800h795v-188h-418l232 -75v-159l-245 -79h431v-299h-795v299l378 172l-378 141v188z" />
    <glyph glyph-name="Tau" unicode="&#x3a4;" horiz-adv-x="778" 
d="M757 800v-188h-219v-612h-304v612h-213v188h736z" />
    <glyph glyph-name="Upsilon" unicode="&#x3a5;" horiz-adv-x="737" 
d="M519 480v-480h-304v480l-195 320h308l88 -188l90 188h211z" />
    <glyph glyph-name="Phi" unicode="&#x3a6;" horiz-adv-x="928" 
d="M592 804l-1 -116q68 0 125 -20t94 -54t62.5 -78t31 -93t0 -98t-31 -93.5t-62.5 -79.5t-94 -56t-125 -23v-89h-248v89q-69 1 -127.5 22t-96 55.5t-64 79.5t-32 94.5t0 98.5t32 93.5t64.5 78.5t96.5 53.5t128.5 19.5v116h247zM343 389v224q-46 -1 -76.5 -24.5t-36.5 -57
t2 -66t38.5 -55t72.5 -21.5zM591 388v1q78 -2 113.5 54t3.5 113t-117 57v-225z" />
    <glyph glyph-name="Chi" unicode="&#x3a7;" horiz-adv-x="773" 
d="M20 800h353l45 -124l64 124h211l-169 -321l229 -479h-344l-60 144l-76 -144h-211l179 341z" />
    <glyph glyph-name="Psi" unicode="&#x3a8;" horiz-adv-x="911" 
d="M599 1h-274q-3 151 -3 378q-85 22 -142 57t-91 88t-49 118t-19 158h240l-2 -100q4 -197 65 -198v298h277v-298q30 0 42.5 74.5t10.5 149.5l-3 74h240q3 -99 -8 -166t-44 -119t-91 -84t-149 -52q0 -27 -0.5 -189.5t0.5 -188.5z" />
    <glyph glyph-name="Omega" unicode="&#x3a9;" horiz-adv-x="903" 
d="M454 627h1q-114 1 -159 -84q-37 -68 -10 -145q25 -72 89 -93q20 -6 41 -6v-299h-391v299h185q-86 38 -135.5 98t-49.5 129q0 114 125 194.5t302 80.5t302 -80.5t125 -194.5q0 -69 -49.5 -129t-135.5 -98h185v-299h-384v299q79 0 118 71q37 67 13 142q-26 82 -110 106
q-28 9 -62 9z" />
    <glyph glyph-name="Omega" unicode="&#x2126;" horiz-adv-x="903" 
d="M454 627h1q-114 1 -159 -84q-37 -68 -10 -145q25 -72 89 -93q20 -6 41 -6v-299h-391v299h185q-86 38 -135.5 98t-49.5 129q0 114 125 194.5t302 80.5t302 -80.5t125 -194.5q0 -69 -49.5 -129t-135.5 -98h185v-299h-384v299q79 0 118 71q37 67 13 142q-26 82 -110 106
q-28 9 -62 9z" />
    <glyph glyph-name="Iotadieresis" unicode="&#x3aa;" horiz-adv-x="454" 
d="M361 964q31 0 52.5 -19.5t21.5 -46.5t-21.5 -46.5t-52.5 -19.5t-52.5 19.5t-21.5 46.5t21.5 46.5t52.5 19.5zM94 963q31 0 52.5 -19.5t21.5 -46.5t-21.5 -46.5t-52.5 -19.5t-52.5 19.5t-21.5 46.5t21.5 46.5t52.5 19.5zM68 0v800h304v-800h-304z" />
    <glyph glyph-name="Upsilondieresis" unicode="&#x3ab;" horiz-adv-x="737" 
d="M540 964q31 0 52.5 -19.5t21.5 -46.5t-21.5 -46.5t-52.5 -19.5t-52.5 19.5t-21.5 46.5t21.5 46.5t52.5 19.5zM273 963q31 0 52.5 -19.5t21.5 -46.5t-21.5 -46.5t-52.5 -19.5t-52.5 19.5t-21.5 46.5t21.5 46.5t52.5 19.5zM519 480v-480h-304v480l-195 320h308l88 -188
l90 188h211z" />
    <glyph glyph-name="alphatonos" unicode="&#x3ac;" horiz-adv-x="718" 
d="M356 800h155l-129 -181h-86zM692 550v-1q3 -54 2 -272.5t0 -276.5h-221v17q-63 -14 -126 -15.5t-122 20t-104.5 55.5t-72.5 90.5t-27 124.5q0 65 23.5 114t61.5 74.5t84.5 40t94 15.5t87.5 -4t67.5 -15t32.5 -19v52h220zM472 251v190q-141 34 -194 -22q-37 -39 -12 -93
q26 -56 95 -75q51 -14 111 0z" />
    <glyph glyph-name="epsilontonos" unicode="&#x3ad;" horiz-adv-x="548" 
d="M355 800h155l-129 -181h-86zM394 307l-29 1q-29 1 -54 0.5t-55 -2t-48 -7.5t-18 -15q-1 -72 263 -17q22 5 71 16l-4 -264q-90 -18 -250 -18q-129 0 -202 83q-59 67 -45 144q14 81 101 114q30 12 66 16q-116 22 -136 75q-17 44 39 79q63 39 177 39q45 0 86 -1.5t69 -4.5
t48 -5.5t33 -4.5t14 -2v-121q-17 18 -97 33t-154 9.5t-74 -36.5q0 -8 16.5 -13t43.5 -5.5t52 0t52.5 2t34.5 1.5v-96z" />
    <glyph glyph-name="etatonos" unicode="&#x3ae;" horiz-adv-x="682" 
d="M360 800h155l-129 -181h-86zM297 550l-1 -24q61 23 123.5 25t113.5 -15.5t85.5 -59.5t38.5 -103v-533h-260l2 558q-2 21 -12.5 34.5t-34 12.5t-55.5 -24v-420h-272v549h272z" />
    <glyph glyph-name="iotatonos" unicode="&#x3af;" horiz-adv-x="333" 
d="M158 800h155l-129 -181h-86zM25 1v549h272v-549h-272z" />
    <glyph glyph-name="upsilondieresistonos" unicode="&#x3b0;" horiz-adv-x="561" 
d="M329 849h110l-64 -182h-86zM463 709q31 0 52.5 -19.5t21.5 -46.5t-21.5 -46.5t-52.5 -19.5t-52.5 19.5t-21.5 46.5t21.5 46.5t52.5 19.5zM196 708q31 0 52.5 -19.5t21.5 -46.5t-21.5 -46.5t-52.5 -19.5t-52.5 19.5t-21.5 46.5t21.5 46.5t52.5 19.5zM298 550v-236
q7 -31 20 -43.5t26 -8t23.5 19t14.5 34.5v234h156v-346q0 -65 -38 -113t-95 -69.5t-123.5 -21t-123.5 22t-95 69t-38 112.5v346h273z" />
    <glyph glyph-name="alpha" unicode="&#x3b1;" horiz-adv-x="718" 
d="M692 550v-1q3 -54 2 -272.5t0 -276.5h-221v17q-63 -14 -126 -15.5t-122 20t-104.5 55.5t-72.5 90.5t-27 124.5q0 65 23.5 114t61.5 74.5t84.5 40t94 15.5t87.5 -4t67.5 -15t32.5 -19v52h220zM472 251v190q-141 34 -194 -22q-37 -39 -12 -93q26 -56 95 -75q51 -14 111 0z
" />
    <glyph glyph-name="beta" unicode="&#x3b2;" horiz-adv-x="745" 
d="M28 667h1q6 57 99.5 95t242.5 38q58 0 107 -12t81 -32t52 -46t20.5 -55t-13.5 -57.5t-49.5 -55t-88.5 -46.5q150 0 214 -103q53 -85 23 -194q-30 -111 -126 -170q-90 -56 -209 -43v304q108 -17 158 28q35 32 12 67q-30 49 -133 50q-14 0 -30 -1v95q80 0 83 59
q2 29 -42 36q-49 8 -80 -15q-17 -11 -17 -28q-1 -33 -1 -182.5t0.5 -350.5t0.5 -225h-309z" />
    <glyph glyph-name="gamma" unicode="&#x3b3;" horiz-adv-x="648" 
d="M460 163l1 -352h-274v352l-166 387h237l115 -262l102 262h154z" />
    <glyph glyph-name="delta" unicode="&#x3b4;" horiz-adv-x="670" 
d="M346 451h-1q-33 0 -57.5 -15.5t-31.5 -37.5t-2.5 -44.5t29.5 -38t64 -15.5t63.5 15.5t28.5 37.5t-3.5 44.5t-32 38t-57.5 15.5zM47 800l601 1v-188h-405q59 -18 101 -32.5t103 -44.5t99.5 -62t67 -82t28.5 -108q0 -121 -82.5 -202.5t-215.5 -81.5q-168 0 -261 107
q-72 84 -64 189q8 107 96 164q68 45 169 45l-237 107v188z" />
    <glyph glyph-name="epsilon" unicode="&#x3b5;" horiz-adv-x="548" 
d="M395 307l-29 1q-29 1 -54 0.5t-55 -2t-48 -7.5t-18 -15q-1 -72 263 -17q22 5 71 16l-4 -264q-90 -18 -250 -18q-129 0 -202 83q-59 67 -45 144q14 81 101 114q30 12 66 16q-116 22 -136 75q-17 44 39 79q63 39 177 39q45 0 86 -1.5t69 -4.5t48 -5.5t33 -4.5t14 -2v-121
q-17 18 -97 33t-154 9.5t-74 -36.5q0 -8 16.5 -13t43.5 -5.5t52 0t52.5 2t34.5 1.5v-96z" />
    <glyph glyph-name="zeta" unicode="&#x3b6;" horiz-adv-x="684" 
d="M61 377l1 -1q27 45 86 107t101 101.5t39 40.5h-208v175h501q-21 -26 -115 -116t-166 -172t-73 -125q-1 -34 9 -54.5t25.5 -26.5t38 -4.5t41.5 7t42.5 13.5t33.5 10q136 19 204 -65q58 -72 37 -176q-24 -116 -134 -194q-140 -98 -365 -85v178q29 -12 118 -21.5t173.5 2
t81.5 51.5q-1 13 -14 17t-36 0.5t-48 -9t-56.5 -12t-54.5 -7.5q-84 -5 -148 15.5t-98.5 59t-49 87.5t-5 102t38.5 102z" />
    <glyph glyph-name="eta" unicode="&#x3b7;" horiz-adv-x="682" 
d="M297 550l-1 -24q61 23 123.5 25t113.5 -15.5t85.5 -59.5t38.5 -103v-533h-260l2 558q-2 21 -12.5 34.5t-34 12.5t-55.5 -24v-420h-272v549h272z" />
    <glyph glyph-name="theta" unicode="&#x3b8;" horiz-adv-x="711" 
d="M356 659h1q-48 0 -92 -32t-57 -78h310q-14 46 -62.5 78t-99.5 32zM519 398h-311q13 -46 56.5 -78.5t91.5 -32.5q51 0 100.5 32.5t62.5 78.5zM358 800q139 0 237 -117t98 -283t-98 -283t-237 -117t-237 117t-98 283t98 283t237 117z" />
    <glyph glyph-name="iota" unicode="&#x3b9;" horiz-adv-x="322" 
d="M25 1v549h272v-549h-272z" />
    <glyph glyph-name="kappa" unicode="&#x3ba;" horiz-adv-x="707" 
d="M25 1l-2 2v549h273v-161q43 0 61 33.5t18 126.5h245q-2 -2 0.5 -21t-3.5 -50.5t-14.5 -62t-33.5 -55.5t-60 -31q29 -1 53 -7t41 -17t30.5 -26.5t22 -33.5t15 -39t9 -43.5t4 -46t1.5 -47v-47.5v-22h-274q0 105 -10 159.5t-34 77t-69 23.5v-261h-273z" />
    <glyph glyph-name="lambda" unicode="&#x3bb;" horiz-adv-x="756" 
d="M201 800l274 -1q15 -61 41 -157.5t95.5 -313t125.5 -333.5h-325l-97 426l-143 -426h-152l244 616z" />
    <glyph glyph-name="nu" unicode="&#x3bd;" horiz-adv-x="598" 
d="M444 0h-291l-134 550h273l66 -290l57 290h163z" />
    <glyph glyph-name="xi" unicode="&#x3be;" horiz-adv-x="705" 
d="M446 444l-2 -2q-2 0 -25 3.5t-41.5 5t-47.5 3.5t-51 -2t-43 -11t-33 -22.5t-13 -37.5q-1 -40 18.5 -60t52.5 -20.5t65.5 5t66.5 13t46 7.5q135 19 203 -64q58 -72 36 -176q-24 -115 -134 -192q-139 -97 -362 -84v177q29 -12 117.5 -21.5t172.5 1.5t81 51q-1 13 -14 17
t-36 0.5t-47.5 -9t-56 -12t-53.5 -7.5q-115 -7 -197.5 40t-108 120.5t-17 150t73.5 137.5t167 75q-118 22 -147 91q-24 58 28 110q70 69 208 69q42 0 73.5 -1.5t48 -3.5t27.5 -4.5t14.5 -5t6 -4t5.5 -1.5v-174q-11 12 -42 19.5t-68.5 9t-73 -2t-58 -15.5t-21.5 -29
q1 -45 183 -18z" />
    <glyph glyph-name="omicron" unicode="&#x3bf;" horiz-adv-x="631" 
d="M316 453q-36 0 -61.5 -27t-25.5 -65t25.5 -65.5t61.5 -27.5t61.5 27.5t25.5 65.5t-25.5 65t-61.5 27zM316 550q122 0 208 -80.5t86 -194.5t-86 -195t-208 -81t-208.5 81t-86.5 195t86.5 194.5t208.5 80.5z" />
    <glyph glyph-name="pi" unicode="&#x3c0;" horiz-adv-x="675" 
d="M655 550l1 -95h-47v-455h-236v454h-74v-454h-236v455h-43v95h635z" />
    <glyph glyph-name="rho" unicode="&#x3c1;" horiz-adv-x="685" 
d="M25 -174l-1 664l269 40q172 56 280 -44q79 -73 89 -196q10 -122 -55 -206q-82 -105 -236 -80q-38 7 -78 21l1 -199h-269zM293 278v1q83 -45 131 10q37 42 29 105q-8 65 -59 84q-42 15 -101 -11v-189z" />
    <glyph glyph-name="sigma1" unicode="&#x3c2;" horiz-adv-x="681" 
d="M379 550h-2q95 0 176 -36l-2 -143q-88 71 -142 80q-132 21 -200 -31q-43 -33 -30 -72q16 -45 94 -52q36 -3 80 4q167 29 253 -56q66 -66 52 -164q-15 -104 -112 -175q-132 -95 -349 -72v167q27 -12 111 -22.5t163 -3t74 45.5q-3 20 -22 24t-48 -4.5t-65.5 -18
t-74.5 -16.5t-75 0q-86 20 -144 69.5t-80 109.5t-11.5 125t51.5 118.5t120 88t183 34.5z" />
    <glyph glyph-name="sigma" unicode="&#x3c3;" horiz-adv-x="625" 
d="M313 454q-61 0 -96 -28.5t-35 -63t35 -63t96 -28.5t96 28.5t35 63t-35 63t-96 28.5zM587 550l-1 -100l-49 1q67 -75 67 -174q0 -113 -85.5 -193t-206.5 -80t-206.5 80t-85.5 193t85.5 193t206.5 80h6h269z" />
    <glyph glyph-name="tau" unicode="&#x3c4;" horiz-adv-x="558" 
d="M170 0l-1 451h-148v100h516v-100h-125q-1 -156 1 -451h-243z" />
    <glyph glyph-name="upsilon" unicode="&#x3c5;" horiz-adv-x="561" 
d="M297 550v-236q7 -31 20 -43.5t26 -8t23.5 19t14.5 34.5v234h156v-346q0 -65 -38 -113t-95 -69.5t-123.5 -21t-123.5 22t-95 69t-38 112.5v346h273z" />
    <glyph glyph-name="phi" unicode="&#x3c6;" horiz-adv-x="819" 
d="M525 544l1 1q60 0 110 -18t81.5 -49t53 -72t25.5 -86t-1.5 -90t-28 -86t-54.5 -72.5t-80.5 -50.5t-105.5 -19v-157h-223v157q-108 0 -180.5 56t-89 136t-1 160t83 135.5t165.5 55.5v-62q-64 -1 -91 -48q-24 -42 6 -80q31 -40 106 -41l1 230h222zM526 315h1
q66 0 91.5 42.5t-2 85t-90.5 42.5v-170z" />
    <glyph glyph-name="chi" unicode="&#x3c7;" horiz-adv-x="715" 
d="M20 550h292l66 -142l82 142h181l-173 -293l226 -440h-283l-79 192l-92 -192h-184l183 312z" />
    <glyph glyph-name="psi" unicode="&#x3c8;" horiz-adv-x="810" 
d="M542 -188h-259q-1 59 -0.5 95.5t0.5 95.5q-57 -1 -102.5 24t-73 67t-47.5 97.5t-26.5 116.5t-10 123.5t1.5 118.5h170q-1 -6 -1.5 -16.5t-2 -41t-0.5 -58.5t6.5 -62t14.5 -58t26.5 -40.5t41.5 -16.5l1 293h260l-1 -293q32 1 52 31.5t25 73.5t5.5 85.5t-2.5 72.5l-4 30
h170q18 -547 -247 -547q0 -78 1.5 -97.5t1.5 -93.5z" />
    <glyph glyph-name="omega" unicode="&#x3c9;" horiz-adv-x="695" 
d="M425 418v1q-3 -117 31 -127q23 -7 44 40q35 81 13 193q-2 13 -6 27l144 -1q16 -49 20 -136t-7.5 -180.5t-58 -162.5t-123.5 -71q-38 -1 -65 16t-70 77q-44 -58 -72 -74t-67 -16q-66 0 -109 46t-58.5 113.5t-17.5 144.5t7 140.5t22 101.5l149 1q-36 -120 -6 -211
q17 -49 40 -50q29 0 36 83q2 20 2 45h152z" />
    <glyph glyph-name="iotadieresis" unicode="&#x3ca;" horiz-adv-x="454" 
d="M361 717q31 0 52.5 -19.5t21.5 -46.5t-21.5 -46.5t-52.5 -19.5t-52.5 19.5t-21.5 46.5t21.5 46.5t52.5 19.5zM94 716q31 0 52.5 -19.5t21.5 -46.5t-21.5 -46.5t-52.5 -19.5t-52.5 19.5t-21.5 46.5t21.5 46.5t52.5 19.5zM89 1v549h272v-549h-272z" />
    <glyph glyph-name="upsilondieresis" unicode="&#x3cb;" horiz-adv-x="561" 
d="M457 713q31 0 52.5 -19.5t21.5 -46.5t-21.5 -46.5t-52.5 -19.5t-52.5 19.5t-21.5 46.5t21.5 46.5t52.5 19.5zM190 712q31 0 52.5 -19.5t21.5 -46.5t-21.5 -46.5t-52.5 -19.5t-52.5 19.5t-21.5 46.5t21.5 46.5t52.5 19.5zM298 550v-236q7 -31 20 -43.5t26 -8t23.5 19
t14.5 34.5v234h156v-346q0 -65 -38 -113t-95 -69.5t-123.5 -21t-123.5 22t-95 69t-38 112.5v346h273z" />
    <glyph glyph-name="omicrontonos" unicode="&#x3cc;" horiz-adv-x="631" 
d="M314 759h110l-64 -182h-86zM316 453q-36 0 -61.5 -27t-25.5 -65t25.5 -65.5t61.5 -27.5t61.5 27.5t25.5 65.5t-25.5 65t-61.5 27zM316 550q122 0 208 -80.5t86 -194.5t-86 -195t-208 -81t-208.5 81t-86.5 195t86.5 194.5t208.5 80.5z" />
    <glyph glyph-name="upsilontonos" unicode="&#x3cd;" horiz-adv-x="561" 
d="M339 759h110l-64 -182h-86zM298 550v-236q7 -31 20 -43.5t26 -8t23.5 19t14.5 34.5v234h156v-346q0 -65 -38 -113t-95 -69.5t-123.5 -21t-123.5 22t-95 69t-38 112.5v346h273z" />
    <glyph glyph-name="omegatonos" unicode="&#x3ce;" horiz-adv-x="695" 
d="M337 759h110l-64 -182h-86zM425 418v1q-3 -117 31 -127q23 -7 44 40q35 81 13 193q-2 13 -6 27l144 -1q16 -49 20 -136t-7.5 -180.5t-58 -162.5t-123.5 -71q-38 -1 -65 16t-70 77q-44 -58 -72 -74t-67 -16q-66 0 -109 46t-58.5 113.5t-17.5 144.5t7 140.5t22 101.5l149 1
q-36 -120 -7 -211q16 -49 39 -50q29 0 36 84q1 20 1 44h155z" />
    <glyph glyph-name="afii10023" unicode="&#x401;" horiz-adv-x="742" 
d="M25 0v800h690v-189h-386v-44h386v-189h-386v-79h386v-299h-690zM503 964q31 0 52.5 -19.5t21.5 -46.5t-21.5 -46.5t-52.5 -19.5t-52.5 19.5t-21.5 46.5t21.5 46.5t52.5 19.5zM236 963q31 0 52.5 -19.5t21.5 -46.5t-21.5 -46.5t-52.5 -19.5t-52.5 19.5t-21.5 46.5
t21.5 46.5t52.5 19.5z" />
    <glyph glyph-name="afii10017" unicode="&#x410;" horiz-adv-x="734" 
d="M358 202l-40 166l-41 -166h81zM246 73l-18 -73h-211l195 802h308l195 -802h-309l-17 73h-143z" />
    <glyph glyph-name="afii10018" unicode="&#x411;" horiz-adv-x="779" 
d="M759 271q-6 -221 -348 -261q-142 -17 -354 0q-35 3 -35 2v789h586v-188h-282v-135q147 0 174 -2q222 -15 254 -148q6 -26 5 -57zM459 351q0 9 -3.5 16.5t-10 12.5t-14.5 9t-17.5 6t-19.5 3.5t-19 2t-18 0t-15 -0.5h-10l-5 -1v-98q50 -6 91 7.5t41 42.5z" />
    <glyph glyph-name="afii10019" unicode="&#x412;" horiz-adv-x="779" 
d="M483 476q125 -3 200.5 -51t75.5 -147v-7q-1 -55 -24 -99.5t-63.5 -73t-88 -48.5t-107.5 -30.5t-113 -14.5t-112 -4q-50 0 -102 2.5t-85.5 5.5t-38.5 3h-3v194v366v211q0 1 30.5 5.5t87.5 8.5t113 4t105 -4t100 -15.5t87 -30t59 -49t23 -70.5v-1q0 -55 -40.5 -98
t-103.5 -57zM459 351q0 50 -99 50h-10.5t-9.5 -0.5t-7 -1t-5 -0.5h-2v-98q20 -2 31 -2q43 0 72.5 13.5t29.5 38.5zM443 574q0 21 -27 31.5t-62 10.5q-12 0 -28 -2v-86q5 -1 17 -1q35 0 67.5 12t32.5 35z" />
    <glyph glyph-name="afii10020" unicode="&#x413;" horiz-adv-x="665" 
d="M22 0l-1 800h621v-189h-301q0 -100 -2 -302t-2 -309h-315z" />
    <glyph glyph-name="afii10021" unicode="&#x414;" horiz-adv-x="803" 
d="M694 299h83v-299h-757v299h84l141 501h308zM372 299l-53 202l-51 -202h104z" />
    <glyph glyph-name="afii10022" unicode="&#x415;" horiz-adv-x="739" 
d="M25 0v800h690v-189h-386v-44h386v-189h-386v-79h386v-299h-690z" />
    <glyph glyph-name="afii10024" unicode="&#x416;" horiz-adv-x="996" 
d="M621 0l-246 -1l-2 378q-27 0 -42 -39t-18 -94.5t-2 -111t5 -94.5l4 -39h-299q0 183 4 229q15 155 97 211q57 38 150 40q-52 9 -91.5 45t-59 81.5t-32 89.5t-15.5 74l-3 30h240v-13t1 -31.5t3 -45.5t7 -48.5t11.5 -45.5t17.5 -33t24 -15v232h247v-232q29 2 42 60t11 115
l-2 57h240q-2 -1 0 -16t-1.5 -42t-7.5 -58t-17.5 -64.5t-30.5 -62t-46.5 -49.5t-67.5 -28q50 -1 88 -15t62.5 -32.5t41.5 -53t25 -62.5t11.5 -76t3 -77.5t-1.5 -84t-1 -78.5h-304l10 120q12 257 -58 258z" />
    <glyph glyph-name="afii10025" unicode="&#x417;" horiz-adv-x="712" 
d="M205 428l2 141q10 0 44.5 -1.5t63 -2t60 1t49.5 8.5t18 19q0 23 -95 28.5t-197 -3t-128 -20.5v176q3 0 15.5 3t34 6.5t53.5 7.5t86 6.5t119 2.5q180 0 271 -71q66 -52 44 -112q-25 -72 -156 -107q-20 -5 -42 -9q163 -19 222 -123q48 -87 4 -187q-45 -100 -157 -152
q-83 -39 -187 -39t-181 6.5t-102 12.5l-25 7v292q68 -16 141 -21t137.5 0.5t105.5 30t41 65.5q0 14 -20.5 22t-56 10.5t-63.5 3t-63.5 -0.5t-37.5 -1z" />
    <glyph glyph-name="afii10026" unicode="&#x418;" horiz-adv-x="785" 
d="M22 800h308v-338l124 338h304v-800h-304v389l-124 -389h-308v800z" />
    <glyph glyph-name="afii10027" unicode="&#x419;" horiz-adv-x="785" 
d="M619 954h-2q-3 -58 -70.5 -91t-157.5 -33q-57 0 -105 13.5t-80.5 42.5t-33.5 69h107q3 -47 37.5 -72.5t80.5 -25.5q47 0 81.5 26t35.5 71h107zM20 800h308v-338l124 338h304v-800h-304v389l-124 -389h-308v800z" />
    <glyph glyph-name="afii10028" unicode="&#x41a;" horiz-adv-x="780" 
d="M22 0v781v18h304v-233q55 0 66 39t11 183v11h300q-1 -12 -3 -31.5t-15 -71t-32.5 -92.5t-59 -78.5t-91.5 -46.5q44 -1 80.5 -11t62 -29t45 -41t31.5 -54.5t20 -61.5t11.5 -69.5t4.5 -71t1 -73.5v-69h-304v14q0 234 -19 300t-109 67v-380h-304z" />
    <glyph glyph-name="afii10029" unicode="&#x41b;" horiz-adv-x="793" 
d="M466 0l-120 367l-119 -367h-211l225 800h308l225 -800h-308z" />
    <glyph glyph-name="afii10030" unicode="&#x41c;" horiz-adv-x="904" 
d="M573 800h304v-188v-612h-304l1 378l-125 -378l-123 378l-1 -378h-304v612v188h304l121 -401z" />
    <glyph glyph-name="afii10031" unicode="&#x41d;" horiz-adv-x="833" 
d="M22 800h304v-233h176v233h304v-800h-304v378h-176v-378h-304v800z" />
    <glyph glyph-name="afii10032" unicode="&#x41e;" horiz-adv-x="894" 
d="M447 567q-52 0 -89 -39t-37 -95t37 -95t89 -39q53 0 90 39.5t37 94.5t-37 94.5t-90 39.5zM445 800q177 0 302.5 -117t125.5 -283t-125.5 -283t-302.5 -117t-302 117t-125 283t125 283t302 117z" />
    <glyph glyph-name="afii10033" unicode="&#x41f;" horiz-adv-x="803" 
d="M22 801h754v-800h-304v612h-146v-612h-304v800z" />
    <glyph glyph-name="afii10034" unicode="&#x420;" horiz-adv-x="703" 
d="M26 0l-1 211v365v211q127 13 217 13q60 0 115.5 -5.5t115 -22t102.5 -42t71.5 -69.5t28.5 -101q2 -122 -89 -184t-257 -67v-309h-303zM512 513q-1 33 -41.5 52t-110.5 21q-22 0 -32 -1l1 -153q15 -3 31 -3q86 2 118.5 27t33.5 57z" />
    <glyph glyph-name="afii10035" unicode="&#x421;" horiz-adv-x="780" 
d="M754 523q-130 88 -242 88q-86 0 -137.5 -49.5t-52.5 -120.5v-1q0 -63 56 -102t147 -39q109 0 229 58v-271q-123 -86 -281 -86q-188 0 -321.5 117t-133.5 283t133.5 283t321.5 117q158 0 281 -86v-191z" />
    <glyph glyph-name="afii10036" unicode="&#x422;" horiz-adv-x="776" 
d="M754 800v-188h-219v-612h-304v612h-213v188h736z" />
    <glyph glyph-name="afii10037" unicode="&#x423;" horiz-adv-x="799" 
d="M137 0l125 299l-246 501h181l142 -364l126 364h314q-56 -117 -136 -317t-132 -341l-52 -142h-322z" />
    <glyph glyph-name="afii10038" unicode="&#x424;" horiz-adv-x="927" 
d="M590 804v-43q87 0 155 -37.5t103 -97t51.5 -132t0 -145.5t-51.5 -133.5t-103 -99.5t-155 -41v-71h-248v71q-78 1 -141.5 31t-103.5 78t-62 109.5t-22.5 125.5t20.5 125t60 109t104 77.5t146 30.5v43h247zM342 371l-3 243q-101 0 -141 -61t2.5 -121.5t141.5 -60.5z
M590 371q44 0 79 13.5t53 35t26.5 47t0 51.5t-26.5 47.5t-53 35t-79 13.5v-243z" />
    <glyph glyph-name="afii10039" unicode="&#x425;" horiz-adv-x="769" 
d="M17 800h353l45 -124l64 124h211l-169 -321l229 -479h-344l-60 144l-76 -144h-211l179 341z" />
    <glyph glyph-name="afii10040" unicode="&#x426;" horiz-adv-x="837" 
d="M22 0v800h304v-557h146v557h304v-726h42v-274h-159l-69 200h-568z" />
    <glyph glyph-name="afii10041" unicode="&#x427;" horiz-adv-x="740" 
d="M404 800l310 -1v-800h-309v317q-191 -39 -288.5 38.5t-96.5 232.5l1 212h254q-1 -39 -3 -187q1 -31 -0.5 -62t5.5 -59.5t19 -50.5t40 -34.5t70 -12.5z" />
    <glyph glyph-name="afii10042" unicode="&#x428;" horiz-adv-x="956" 
d="M928 6h-1h-906l-1 794h272v-497h77v497h203v-497h86v497h272z" />
    <glyph glyph-name="afii10043" unicode="&#x429;" horiz-adv-x="1002" 
d="M751 0h-729l-1 800h274l-1 -501h78l1 501h204l-1 -501h86l1 501h274v-606h42v-364h-159z" />
    <glyph glyph-name="afii10044" unicode="&#x42a;" horiz-adv-x="761" 
d="M97 619h-80v189h387v-276q98 0 172.5 -29.5t110.5 -76t50.5 -103.5t-6 -113.5t-59.5 -103t-109.5 -76t-157.5 -29.5h-308v618zM407 458l1 -155q42 0 73 16t40 38.5t3.5 45.5t-37 39t-80.5 16z" />
    <glyph glyph-name="afii10045" unicode="&#x42b;" horiz-adv-x="950" 
d="M650 797h273v-797h-273v797zM22 797h294v-273q175 0 257 -106q66 -85 44 -193q-23 -109 -121 -172q-84 -54 -200 -54h-274v187v36v575zM318 430v-133q61 0 85.5 34t-0.5 67.5t-85 31.5z" />
    <glyph glyph-name="afii10046" unicode="&#x42c;" horiz-adv-x="688" 
d="M22 797l293 -1v-273q203 0 298 -107q72 -81 50.5 -185.5t-125.5 -169.5q-99 -62 -242 -62h-274v187v36v575zM316 422v-119q61 0 85.5 30.5t-1 60.5t-84.5 28z" />
    <glyph glyph-name="afii10047" unicode="&#x42d;" horiz-adv-x="669" 
d="M22 771v-1q84 30 172 30q188 0 321.5 -117t133.5 -283t-133.5 -283t-321.5 -117q-88 0 -172 30v286q114 -28 198 -6.5t113 80.5h-306v112h306q-18 47 -60 76t-106 33.5t-145 -28.5v188z" />
    <glyph glyph-name="afii10048" unicode="&#x42e;" horiz-adv-x="1004" 
d="M813 448q-1 34 -20 60.5t-49 40.5t-66 20.5t-71.5 0t-65 -20t-48 -39.5t-17.5 -60q1 -43 36 -72t85 -36t99.5 -0.5t83.5 35.5t33 71zM298 502l34 -1q28 130 117 214.5t203 84.5q137 0 233.5 -117t96.5 -283t-96.5 -283t-233.5 -117q-132 0 -227 110t-102 269h-25v-378
h-276v800h276v-299z" />
    <glyph glyph-name="afii10049" unicode="&#x42f;" horiz-adv-x="784" 
d="M307 475q-284 13 -284 156q0 67 76 107.5t184 51t216 10t184 -8t75 -9.5v-211v-571h-304v398h-4q-5 1 -11 1t-15 0.5t-18 0t-19 -2t-19.5 -3.5t-17.5 -6t-14.5 -9t-10 -12.5t-3.5 -16.5v-350h-300v270v13q6 192 285 192zM317 573v1q0 -27 51.5 -39t84.5 -7v86
q-38 6 -87 -4t-49 -37z" />
    <glyph glyph-name="afii10065" unicode="&#x430;" horiz-adv-x="674" 
d="M342 550q126 0 216 -41t90 -99v-407h-272v13q-46 -13 -91 -13q-110 0 -188.5 63.5t-78.5 153.5q0 53 21 92.5t57 61t77 31.5t87 10q62 0 115 -15v31q0 28 -70 28q-36 0 -87 -7t-97 -15.5t-47 -8.5l2 104q24 4 129.5 11t136.5 7zM375 276v82q-26 6 -58 6q-111 0 -111 -51
q0 -42 109 -42q40 0 60 5z" />
    <glyph glyph-name="afii10066" unicode="&#x431;" horiz-adv-x="671" 
d="M292 591h-1q0 -15 0.5 -28t0.5 -27q184 52 285 -42q76 -70 74 -187q-3 -119 -82 -204q-103 -112 -278 -93q-33 4 -68 12q-203 67 -203 362v95q0 85 23.5 141.5t83.5 98.5t166.5 61t268.5 19l-31 -131q-78 42 -155.5 17.5t-83.5 -94.5zM292 448v-83q0 -89 59 -109
q47 -15 91 18q50 37 40 95q-6 35 -31 60.5t-65.5 34t-93.5 -15.5z" />
    <glyph glyph-name="afii10067" unicode="&#x432;" horiz-adv-x="638" 
d="M399 322l-1 1q92 -2 156.5 -37t62.5 -104q-1 -52 -35 -89t-86.5 -55t-116 -28t-126.5 -10t-115 2t-84 5t-32 2v133v251v145q-1 2 51.5 6t126.5 4t148.5 -8t127 -36.5t52.5 -74.5q0 -36 -40.5 -66t-88.5 -41zM381 237v1q0 40 -90 33h-1v-68q34 -5 62.5 4.5t28.5 29.5z
M370 391v-1q0 18 -27.5 25t-52.5 3v-59q22 -3 51 5.5t29 26.5z" />
    <glyph glyph-name="afii10068" unicode="&#x433;" horiz-adv-x="529" 
d="M23 0v550h482v-130h-207q-3 -145 -3 -420h-272z" />
    <glyph glyph-name="afii10069" unicode="&#x434;" horiz-adv-x="758" 
d="M470 522l5 28h256l2 -471q-7 -93 -66 -155t-144.5 -87.5t-194.5 -25.5q-84 0 -183 21l1 156q93 -58 166 -58q71 0 113 46t55 125q-124 -100 -235 -100q-102 0 -164 81t-62 189q0 53 17 101.5t51 88.5t90.5 63.5t128.5 23.5q74 0 164 -26zM469 440q-27 7 -53 7
q-63 0 -95.5 -39.5t-32.5 -95.5q0 -57 32 -100.5t85 -43.5q30 0 65 16z" />
    <glyph glyph-name="afii10070" unicode="&#x435;" horiz-adv-x="628" 
d="M318 550q106 0 187 -61t104 -154h-424q1 -45 53 -68.5t132 -23.5q121 0 229 46l1 -254q-136 -34 -245 -34q-153 0 -244.5 66t-91.5 207q0 114 87.5 195t211.5 81zM392 422q-38 49 -101 49q-64 0 -98 -49h199z" />
    <glyph glyph-name="afii10072" unicode="&#x436;" horiz-adv-x="800" 
d="M536 2h-270l-1 260q-29 0 -38 -65t-3 -130l5 -65h-206v33v67t3 59t9.5 56.5t19 44.5t30.5 37.5t46 22t65 10.5q-36 6 -63 31t-41 56t-22.5 61.5t-10.5 51.5l-2 20h165v-9t0.5 -22t2 -31t4.5 -33t7.5 -31.5t12 -23t16.5 -10.5v160h272v-160q20 2 28.5 42t7.5 79l-1 39h165
v-21.5t-5.5 -49t-16 -63.5t-35.5 -54t-61 -32q30 -1 54.5 -7.5t41 -20t28.5 -27.5t19 -37.5t11 -42t5 -47.5t1 -48.5t-1 -51t-1 -48.5h-209q32 259 -33 260z" />
    <glyph glyph-name="afii10073" unicode="&#x437;" horiz-adv-x="511" 
d="M150 329l-2 60q166 -17 165 17q0 25 -66 27t-137.5 -13t-89.5 -32v144q2 0 11 2t24 5t37.5 5.5t60 4.5t83.5 2q137 0 197 -57q46 -42 16 -87q-31 -46 -131 -65q123 -15 161 -96q31 -69 -13 -143q-50 -81 -158 -105q-35 -7 -71 -7q-72 0 -126 4.5t-71 8.5l-18 5v306
q24 -20 96 -33.5t135 -13t65 15.5q2 12 -4.5 21.5t-20.5 14t-29.5 7.5t-34.5 3.5t-33 0t-28.5 -1t-17.5 -0.5z" />
    <glyph glyph-name="afii10074" unicode="&#x438;" horiz-adv-x="655" 
d="M628 1h-274v28q-76 -28 -138 -28q-84 0 -136 48.5t-59 142.5v355h250l3 -394q0 -14 8 -25t23 -11q22 0 49 22v408h274v-546z" />
    <glyph glyph-name="afii10075" unicode="&#x439;" horiz-adv-x="654" 
d="M533 802h-1q-3 -72 -70.5 -113t-157.5 -41q-57 0 -105 16.5t-80.5 52.5t-33.5 86h107q3 -61 37.5 -94.5t80.5 -33.5q47 0 81 33.5t35 93.5h107zM627 1h-274v28q-76 -28 -138 -28q-84 0 -136 48.5t-59 142.5v355h250l3 -394q0 -14 8 -25t23 -11q22 0 49 22v408h274v-546z
" />
    <glyph glyph-name="afii10076" unicode="&#x43a;" horiz-adv-x="705" 
d="M23 0v548h272q0 -32 0.5 -80t0.5 -79q42 0 60 33.5t18 126.5h245v-20q0 -25 -3.5 -51t-13.5 -60t-34.5 -58.5t-60.5 -30.5q48 -1 82 -19t52 -43t28 -66t12 -73.5t2 -80.5v-47h-274q0 153 -23.5 206.5t-89.5 54.5v-261h-273z" />
    <glyph glyph-name="afii10077" unicode="&#x43b;" horiz-adv-x="587" 
d="M296 0l-83 252l-82 -252h-115l155 550h242l155 -550h-272z" />
    <glyph glyph-name="afii10078" unicode="&#x43c;" horiz-adv-x="758" 
d="M462 549h270v-550h-269v260l-86 -260l-85 260v-260h-269v550h269l83 -276z" />
    <glyph glyph-name="afii10079" unicode="&#x43d;" horiz-adv-x="679" 
d="M23 550h239v-160h121v160h269v-550h-269v260h-121v-260h-239v550z" />
    <glyph glyph-name="afii10080" unicode="&#x43e;" horiz-adv-x="628" 
d="M313 453q-36 0 -61.5 -27t-25.5 -65t25.5 -65.5t61.5 -27.5t61.5 27.5t25.5 65.5t-25.5 65t-61.5 27zM313 550q122 0 208 -80.5t86 -194.5t-86 -195t-208 -81t-208.5 81t-86.5 195t86.5 194.5t208.5 80.5z" />
    <glyph glyph-name="afii10081" unicode="&#x43f;" horiz-adv-x="657" 
d="M23 549h272v-27q74 28 140 28q85 0 137.5 -48.5t59.5 -143.5v-358h-251l-3 391v5q0 33 -29 33q-21 0 -54 -19v-411h-272v550z" />
    <glyph glyph-name="afii10082" unicode="&#x440;" horiz-adv-x="739" 
d="M23 -189l1 735h269v-15q70 19 132 19q137 0 215 -85t78 -199q0 -109 -72 -187.5t-202 -78.5q-74 0 -152 25l1 -214h-270zM293 188q35 -16 66 -16q56 0 89 48.5t33 112.5q0 61 -31.5 104.5t-89.5 43.5q-28 0 -67 -14v-279z" />
    <glyph glyph-name="afii10083" unicode="&#x441;" horiz-adv-x="551" 
d="M359 550q89 0 167 -35v-97q-50 40 -130 40q-74 0 -114.5 -30t-40.5 -72t40.5 -72t114.5 -30q81 0 130 39v-257q-78 -35 -168 -35q-161 0 -250.5 81.5t-89.5 192.5t90 193t251 82z" />
    <glyph glyph-name="afii10084" unicode="&#x442;" horiz-adv-x="987" 
d="M23 550h274v-28q74 28 140 28q81 0 130 -42q105 42 188 42q92 0 145.5 -49.5t60.5 -142.5l1 -358h-252l-1 388q0 49 -33 49q-18 0 -43 -14v-423h-252l-3 386q0 4 -1 11t-10 18t-24 11q-21 0 -46 -16v-410h-274v550z" />
    <glyph glyph-name="afii10085" unicode="&#x443;" horiz-adv-x="610" 
d="M65 -180l156 386l-204 344h126l114 -244l71 244h264q-38 -80 -102.5 -262.5t-109.5 -325.5l-45 -142h-270z" />
    <glyph glyph-name="afii10086" unicode="&#x444;" horiz-adv-x="835" 
d="M536 670v-120q63 1 114.5 -17.5t83.5 -50.5t54 -73t25 -86.5t-3 -91.5t-30 -87.5t-56.5 -73.5t-81.5 -51t-106 -19v-193h-234v193q-57 0 -106 19t-82.5 50.5t-58 73t-31.5 87t-4 91t24.5 87t54.5 73t86 50.5t118 19v120h233zM302 275l1 200q-31 0 -52 -20.5t-26 -50
t-0.5 -59t25.5 -50t52 -20.5zM537 275q32 0 53.5 20.5t26.5 50t-0.5 59t-27 50t-52.5 20.5v-200z" />
    <glyph glyph-name="afii10087" unicode="&#x445;" horiz-adv-x="571" 
d="M17 550h273l31 -85l44 85h145l-115 -220l157 -330h-267l-42 99l-52 -99h-145l123 234z" />
    <glyph glyph-name="afii10088" unicode="&#x446;" horiz-adv-x="808" 
d="M564 -1l-1 1h-153v28q-66 -25 -133 -27t-122.5 16.5t-92 64.5t-41.5 111v358h252l2 -358q2 -47 35 -63t101 10v410h294v-549l84 -1v-186h-173z" />
    <glyph glyph-name="afii10089" unicode="&#x447;" horiz-adv-x="659" 
d="M345 550l287 1v-550h-286v218q-136 -27 -231.5 28.5t-94.5 157.5l1 146h235q0 -27 -2 -129q-2 -27 0 -51t8 -42t27 -28.5t57 -10.5z" />
    <glyph glyph-name="afii10090" unicode="&#x448;" horiz-adv-x="1009" 
d="M982 0l-290 3v27q-173 -65 -265 13q-168 -68 -281 -25.5t-123 177.5v356h250l1 -386q0 -35 23 -46.5t64 8.5q0 70 0.5 211.5t0.5 211.5h250l1 -386q0 -3 0.5 -7.5t4 -14.5t10.5 -15t23 -3t38 15l2 411h293z" />
    <glyph glyph-name="afii10091" unicode="&#x449;" horiz-adv-x="1038" 
d="M795 1l-132 2v26q-166 -62 -255 13q-161 -65 -269.5 -24t-117.5 171v363h241l1 -393q0 -34 22 -45t62 8q0 68 0.5 215t0.5 214h241l1 -393q0 -3 0.5 -7.5t4 -14t10.5 -14t22 -3t36 14.5l2 417h189h3h90l-2 -550h74v-179h-115z" />
    <glyph glyph-name="afii10092" unicode="&#x44a;" horiz-adv-x="602" 
d="M79 450l-62 -1v100h295l-1 -121q159 0 232 -93q57 -73 32 -163q-24 -92 -119 -139q-68 -34 -158 -34h-219v129v25v297zM313 364v-99q78 0 111.5 25.5t1.5 50t-113 23.5z" />
    <glyph glyph-name="afii10093" unicode="&#x44b;" horiz-adv-x="761" 
d="M516 550h218v-550h-218v550zM23 550h232v-98q95 0 158 -46.5t75.5 -113t-5 -133t-83 -113t-158.5 -46.5h-219v129v25v396zM258 383l-1 -117q60 0 85 30t1 59t-85 28z" />
    <glyph glyph-name="afii10094" unicode="&#x44c;" horiz-adv-x="582" 
d="M23 550h232v-98q175 2 258 -92q65 -74 44 -166q-22 -95 -121 -149q-81 -43 -194 -45h-219v129v25v396zM258 385l-1 -119q78 0 111.5 30.5t2 60t-112.5 28.5z" />
    <glyph glyph-name="afii10095" unicode="&#x44d;" horiz-adv-x="474" 
d="M22 530h2q55 20 118 20q130 0 221.5 -80.5t91.5 -194.5t-91.5 -194.5t-221.5 -80.5q-63 0 -118 20v257q79 -20 137 -10t74 41h-208v105h208q-18 47 -73.5 56t-139.5 -24v85z" />
    <glyph glyph-name="afii10096" unicode="&#x44e;" horiz-adv-x="764" 
d="M627 368q-1 32 -25 54t-58.5 27.5t-68.5 0.5t-57.5 -27t-22.5 -54q1 -29 25 -49.5t58.5 -25t68.5 0t57.5 24.5t22.5 49zM273 345h24q19 92 77 148.5t142 56.5q88 0 157.5 -81.5t69.5 -193.5q0 -113 -67 -194t-160 -81q-92 0 -156.5 75.5t-69.5 184.5h-17v-260h-250v550
h250v-205z" />
    <glyph glyph-name="afii10097" unicode="&#x44f;" horiz-adv-x="644" 
d="M247 327v-2q-225 12 -225 108q0 46 61.5 74t149 35t175 6.5t149 -5t60.5 -6.5v-145v-392h-269v274h-1q-90 7 -90 -34v-240h-236v186v9q2 66 65 99t161 33zM254 392v1q0 -18 35 -26.5t58 -5.5v59q-26 4 -59.5 -3t-33.5 -25z" />
    <glyph glyph-name="afii10071" unicode="&#x451;" horiz-adv-x="628" 
d="M449 703q31 0 52.5 -19.5t21.5 -46.5t-21.5 -46.5t-52.5 -19.5t-52.5 19.5t-21.5 46.5t21.5 46.5t52.5 19.5zM182 702q31 0 52.5 -19.5t21.5 -46.5t-21.5 -46.5t-52.5 -19.5t-52.5 19.5t-21.5 46.5t21.5 46.5t52.5 19.5zM317 550l-1 -1q106 0 187.5 -61t104.5 -154h-424
q1 -45 52.5 -68t131.5 -23q124 0 231 45l1 -254q-130 -34 -245 -34q-74 0 -133.5 15t-106 47t-72 85.5t-25.5 126.5q0 114 87.5 195t211.5 81zM390 421v1q-38 48 -101 48q-64 0 -98 -49h199z" />
    <glyph glyph-name="uni1E00" unicode="&#x1e00;" horiz-adv-x="736" 
d="M346 -16h1q52 0 82 -19.5t30 -51.5q0 -24 -31.5 -44.5t-80.5 -20.5q-50 0 -80.5 20.5t-30.5 45.5q0 26 30.5 48t79.5 22zM348 -33h-1q-24 0 -36.5 -15.5t-12.5 -32.5t13 -32t36 -15q24 0 38.5 15.5t14.5 32.5q0 18 -13.5 32.5t-38.5 14.5zM360 202l-40 166l-41 -166h81z
M248 73l-18 -73h-211l195 802h308l195 -802h-309l-17 73h-143z" />
    <glyph glyph-name="uni1E01" unicode="&#x1e01;" horiz-adv-x="674" 
d="M346 -16h1q52 0 82 -19.5t30 -51.5q0 -24 -31.5 -44.5t-80.5 -20.5q-50 0 -80.5 20.5t-30.5 45.5q0 26 30.5 48t79.5 22zM348 -33h-1q-24 0 -36.5 -15.5t-12.5 -32.5t13 -32t36 -15q24 0 38.5 15.5t14.5 32.5q0 18 -13.5 32.5t-38.5 14.5zM344 550q126 0 216 -41t90 -99
v-407h-272v13q-46 -13 -91 -13q-110 0 -188.5 63.5t-78.5 153.5q0 53 21 92.5t57 61t77 31.5t87 10q62 0 115 -15v31q0 28 -70 28q-36 0 -87 -7t-97 -15.5t-47 -8.5l2 104q24 4 129.5 11t136.5 7zM377 276v82q-26 6 -58 6q-111 0 -111 -51q0 -42 109 -42q40 0 60 5z" />
    <glyph glyph-name="uni1E02" unicode="&#x1e02;" horiz-adv-x="781" 
d="M356 977q36 0 61 -22t25 -54t-25 -54.5t-61 -22.5q-23 0 -43 10.5t-31.5 28t-11.5 38.5q0 32 25 54t61 22zM486 476q125 -3 200.5 -51t75.5 -147v-7q-1 -55 -24 -99.5t-63.5 -73t-88 -48.5t-107.5 -30.5t-113 -14.5t-112 -4q-50 0 -102 2.5t-85.5 5.5t-38.5 3h-3v194v366
v211q0 1 30.5 5.5t87.5 8.5t113 4t105 -4t100 -15.5t87 -30t59 -49t23 -70.5v-1q0 -55 -40.5 -98t-103.5 -57zM462 351q0 50 -99 50h-10.5t-9.5 -0.5t-7 -1t-5 -0.5h-2v-98q20 -2 31 -2q43 0 72.5 13.5t29.5 38.5zM446 574q0 21 -27 31.5t-62 10.5q-12 0 -28 -2v-86
q5 -1 17 -1q35 0 67.5 12t32.5 35z" />
    <glyph glyph-name="uni1E03" unicode="&#x1e03;" horiz-adv-x="747" 
d="M452 800q42 0 71.5 -26.5t29.5 -63.5t-29.5 -63.5t-71.5 -26.5t-71.5 26.5t-29.5 63.5t29.5 63.5t71.5 26.5zM25 800h273l-1 -272q82 24 156 24q132 0 203 -73.5t71 -179.5q0 -75 -34.5 -142.5t-106 -113t-165.5 -45.5q-62 0 -123 18v-16h-273v800zM298 449l-3 -180
q41 -20 77 -20q50 0 78.5 35t28.5 81q0 43 -25.5 74t-72.5 31q-38 0 -83 -21z" />
    <glyph glyph-name="uni1E04" unicode="&#x1e04;" horiz-adv-x="781" 
d="M371 -16q36 0 61 -22t25 -54t-25 -54.5t-61 -22.5t-61 22.5t-25 54.5t25 54t61 22zM486 476q125 -3 200.5 -51t75.5 -147v-7q-1 -55 -24 -99.5t-63.5 -73t-88 -48.5t-107.5 -30.5t-113 -14.5t-112 -4q-50 0 -102 2.5t-85.5 5.5t-38.5 3h-3v194v366v211q0 1 30.5 5.5
t87.5 8.5t113 4t105 -4t100 -15.5t87 -30t59 -49t23 -70.5v-1q0 -55 -40.5 -98t-103.5 -57zM462 351q0 50 -99 50h-10.5t-9.5 -0.5t-7 -1t-5 -0.5h-2v-98q20 -2 31 -2q43 0 72.5 13.5t29.5 38.5zM446 574q0 21 -27 31.5t-62 10.5q-12 0 -28 -2v-86q5 -1 17 -1q35 0 67.5 12
t32.5 35z" />
    <glyph glyph-name="uni1E05" unicode="&#x1e05;" horiz-adv-x="747" 
d="M371 -16q36 0 61 -22t25 -54t-25 -54.5t-61 -22.5t-61 22.5t-25 54.5t25 54t61 22zM25 800h273l-1 -272q82 24 156 24q132 0 203 -73.5t71 -179.5q0 -75 -34.5 -142.5t-106 -113t-165.5 -45.5q-62 0 -123 18v-16h-273v800zM298 449l-3 -180q41 -20 77 -20q50 0 78.5 35
t28.5 81q0 43 -25.5 74t-72.5 31q-38 0 -83 -21z" />
    <glyph glyph-name="uni1E06" unicode="&#x1e06;" horiz-adv-x="781" 
d="M172 -99v39h444v-39h-444zM486 476q125 -3 200.5 -51t75.5 -147v-7q-1 -55 -24 -99.5t-63.5 -73t-88 -48.5t-107.5 -30.5t-113 -14.5t-112 -4q-50 0 -102 2.5t-85.5 5.5t-38.5 3h-3v194v366v211q0 1 30.5 5.5t87.5 8.5t113 4t105 -4t100 -15.5t87 -30t59 -49t23 -70.5v-1
q0 -55 -40.5 -98t-103.5 -57zM462 351q0 50 -99 50h-10.5t-9.5 -0.5t-7 -1t-5 -0.5h-2v-98q20 -2 31 -2q43 0 72.5 13.5t29.5 38.5zM446 574q0 21 -27 31.5t-62 10.5q-12 0 -28 -2v-86q5 -1 17 -1q35 0 67.5 12t32.5 35z" />
    <glyph glyph-name="uni1E07" unicode="&#x1e07;" horiz-adv-x="747" 
d="M172 -99v39h444v-39h-444zM25 800h273l-1 -272q82 24 156 24q132 0 203 -73.5t71 -179.5q0 -75 -34.5 -142.5t-106 -113t-165.5 -45.5q-62 0 -123 18v-16h-273v800zM298 449l-3 -180q41 -20 77 -20q50 0 78.5 35t28.5 81q0 43 -25.5 74t-72.5 31q-38 0 -83 -21z" />
    <glyph glyph-name="uni1E08" unicode="&#x1e08;" horiz-adv-x="779" 
d="M476 957h155l-129 -138h-86zM755 523l-1 1q-130 88 -242 88q-86 0 -138.5 -50t-52.5 -121q0 -63 56.5 -101.5t147.5 -38.5q111 0 229 57v-271q-94 -66 -212 -82v-18q26 3 48 3q57 0 88.5 -14t31.5 -37q0 -126 -363 -126h-6v142q22 -12 81.5 -29.5t117.5 -17.5q59 0 59 21
q0 19 -47 29t-92 10q-14 0 -18 -1l-1 35q-178 11 -300 126t-122 273q0 166 133.5 283t321.5 117q158 0 281 -86v-192z" />
    <glyph glyph-name="uni1E09" unicode="&#x1e09;" horiz-adv-x="567" 
d="M376 800h155l-129 -181h-86zM370 558l2 2q79 0 172 -42v-100q-51 41 -133 41q-76 0 -118 -31.5t-42 -74.5t42 -74.5t118 -31.5q82 0 133 41v-265q-80 -36 -173 -36h-9v-12q39 6 70 6q55 0 85 -15t30 -39q0 -42 -78 -77.5t-216 -35.5q-33 0 -50 1v103q18 -7 69.5 -15
t95.5 -8q73 0 73 25q-1 17 -58 17q-13 0 -123 -10l-3 71q-113 27 -175 102t-62 167q0 54 22.5 105t64.5 93t110.5 67.5t152.5 25.5z" />
    <glyph glyph-name="uni1E0A" unicode="&#x1e0a;" horiz-adv-x="781" 
d="M356 977q36 0 61 -22t25 -54t-25 -54.5t-61 -22.5q-23 0 -43 10.5t-31.5 28t-11.5 38.5q0 32 25 54t61 22zM334 800q176 0 301.5 -117t125.5 -283t-125 -283t-302 -117q-103 0 -309 8v784q254 8 309 8zM328 299q60 0 94.5 33.5t34.5 96.5q0 64 -32.5 102t-96.5 40v-272z
" />
    <glyph glyph-name="uni1E0B" unicode="&#x1e0b;" horiz-adv-x="746" 
d="M289 800q42 0 71.5 -26.5t29.5 -63.5t-29.5 -63.5t-71.5 -26.5t-71.5 26.5t-29.5 63.5t29.5 63.5t71.5 26.5zM721 800v-800h-272v16q-61 -18 -124 -18q-94 0 -165.5 45.5t-105.5 113t-34 142.5q0 106 70.5 179.5t202.5 73.5q75 0 157 -24l-1 272h272zM449 449
q-45 21 -84 21q-47 0 -72 -31t-25 -74q0 -46 28.5 -81t78.5 -35q36 0 77 20z" />
    <glyph glyph-name="uni1E0C" unicode="&#x1e0c;" horiz-adv-x="781" 
d="M371 -16q36 0 61 -22t25 -54t-25 -54.5t-61 -22.5t-61 22.5t-25 54.5t25 54t61 22zM334 800q176 0 301.5 -117t125.5 -283t-125 -283t-302 -117q-103 0 -309 8v784q254 8 309 8zM328 299q60 0 94.5 33.5t34.5 96.5q0 64 -32.5 102t-96.5 40v-272z" />
    <glyph glyph-name="uni1E0D" unicode="&#x1e0d;" horiz-adv-x="746" 
d="M371 -16q36 0 61 -22t25 -54t-25 -54.5t-61 -22.5t-61 22.5t-25 54.5t25 54t61 22zM721 800v-800h-272v16q-61 -18 -124 -18q-94 0 -165.5 45.5t-105.5 113t-34 142.5q0 106 70.5 179.5t202.5 73.5q75 0 157 -24l-1 272h272zM449 449q-45 21 -84 21q-47 0 -72 -31
t-25 -74q0 -46 28.5 -81t78.5 -35q36 0 77 20z" />
    <glyph glyph-name="uni1E0E" unicode="&#x1e0e;" horiz-adv-x="781" 
d="M172 -99v39h444v-39h-444zM334 800q176 0 301.5 -117t125.5 -283t-125 -283t-302 -117q-103 0 -309 8v784q254 8 309 8zM328 299q60 0 94.5 33.5t34.5 96.5q0 64 -32.5 102t-96.5 40v-272z" />
    <glyph glyph-name="uni1E0F" unicode="&#x1e0f;" horiz-adv-x="746" 
d="M172 -99v39h444v-39h-444zM721 800v-800h-272v16q-61 -18 -124 -18q-94 0 -165.5 45.5t-105.5 113t-34 142.5q0 106 70.5 179.5t202.5 73.5q75 0 157 -24l-1 272h272zM449 449q-45 21 -84 21q-47 0 -72 -31t-25 -74q0 -46 28.5 -81t78.5 -35q36 0 77 20z" />
    <glyph glyph-name="uni1E10" unicode="&#x1e10;" horiz-adv-x="781" 
d="M328 299q60 0 94.5 33.5t34.5 96.5q0 64 -32.5 102t-96.5 40v-272zM334 800q116 0 214 -53.5t155.5 -145.5t57.5 -201q0 -104 -53 -193.5t-144.5 -144t-201.5 -61.5l1 -13q27 6 47 6q27 0 49.5 -8t35 -21t12.5 -29q0 -46 -64 -84.5t-177 -38.5q-23 0 -35 1v112
q7 -4 29.5 -10t52.5 -10.5t52 -4.5q27 0 47.5 7t20.5 21q0 19 -56 19q-14 0 -30.5 -2t-35.5 -5t-20 -3l-2 62q-88 1 -264 8v784q254 8 309 8z" />
    <glyph glyph-name="uni1E11" unicode="&#x1e11;" horiz-adv-x="746" 
d="M449 449q-45 21 -84 21q-47 0 -72 -31t-25 -74q0 -46 28.5 -81t78.5 -35q36 0 77 20zM721 800v-800h-272v16q-43 -13 -87 -16l1 -12q27 6 47 6q27 0 49.5 -8t35 -21t12.5 -29q0 -46 -64 -84.5t-177 -38.5q-23 0 -35 1v112q7 -4 29.5 -10t52.5 -10.5t52 -4.5q27 0 47.5 7
t20.5 21q0 19 -56 19q-14 0 -30.5 -2t-35.5 -5t-20 -3l-2 62q-63 6 -115 34.5t-85 70.5t-51 92t-18 102q0 106 70.5 179.5t202.5 73.5q75 0 157 -24l-1 272h272z" />
    <glyph glyph-name="uni1E12" unicode="&#x1e12;" horiz-adv-x="781" 
d="M199 -157l133 137h116l133 -137h-128l-63 55l-63 -55h-128zM334 800q176 0 301.5 -117t125.5 -283t-125 -283t-302 -117q-103 0 -309 8v784q254 8 309 8zM328 299q60 0 94.5 33.5t34.5 96.5q0 64 -32.5 102t-96.5 40v-272z" />
    <glyph glyph-name="uni1E13" unicode="&#x1e13;" horiz-adv-x="746" 
d="M199 -157l133 137h116l133 -137h-128l-63 55l-63 -55h-128zM721 800v-800h-272v16q-61 -18 -124 -18q-94 0 -165.5 45.5t-105.5 113t-34 142.5q0 106 70.5 179.5t202.5 73.5q75 0 157 -24l-1 272h272zM449 449q-45 21 -84 21q-47 0 -72 -31t-25 -74q0 -46 28.5 -81
t78.5 -35q36 0 77 20z" />
    <glyph glyph-name="uni1E14" unicode="&#x1e14;" horiz-adv-x="741" 
d="M340 969l60 -108h-74l-105 108h119zM136 811v39h444v-39h-444zM25 0v800h690v-189h-386v-44h386v-189h-386v-79h386v-299h-690z" />
    <glyph glyph-name="uni1E15" unicode="&#x1e15;" horiz-adv-x="630" 
d="M297 745l60 -108h-74l-105 108h119zM93 587v39h444v-39h-444zM320 550q106 0 187 -61t104 -154h-424q1 -45 53 -68.5t132 -23.5q121 0 229 46l1 -254q-136 -34 -245 -34q-153 0 -244.5 66t-91.5 207q0 114 87.5 195t211.5 81zM394 422q-38 49 -101 49q-64 0 -98 -49h199z
" />
    <glyph glyph-name="uni1E16" unicode="&#x1e16;" horiz-adv-x="741" 
d="M364 969l-60 -108h74l105 108h-119zM136 811v39h444v-39h-444zM25 0v800h690v-189h-386v-44h386v-189h-386v-79h386v-299h-690z" />
    <glyph glyph-name="uni1E17" unicode="&#x1e17;" horiz-adv-x="630" 
d="M331 745l-60 -108h74l105 108h-119zM93 587v39h444v-39h-444zM320 550q106 0 187 -61t104 -154h-424q1 -45 53 -68.5t132 -23.5q121 0 229 46l1 -254q-136 -34 -245 -34q-153 0 -244.5 66t-91.5 207q0 114 87.5 195t211.5 81zM394 422q-38 49 -101 49q-64 0 -98 -49h199z
" />
    <glyph glyph-name="uni1E18" unicode="&#x1e18;" horiz-adv-x="741" 
d="M180 -157l133 137h116l133 -137h-128l-63 55l-63 -55h-128zM25 0v800h690v-189h-386v-44h386v-189h-386v-79h386v-299h-690z" />
    <glyph glyph-name="uni1E19" unicode="&#x1e19;" horiz-adv-x="630" 
d="M153 -157l133 137h116l133 -137h-128l-63 55l-63 -55h-128zM320 550q106 0 187 -61t104 -154h-424q1 -45 53 -68.5t132 -23.5q121 0 229 46l1 -254q-136 -34 -245 -34q-153 0 -244.5 66t-91.5 207q0 114 87.5 195t211.5 81zM394 422q-38 49 -101 49q-64 0 -98 -49h199z
" />
    <glyph glyph-name="uni1E1A" unicode="&#x1e1a;" horiz-adv-x="741" 
d="M93 -144l-1 1q1 129 101 129q42 0 132 -29t118 -29q44 0 47 43h167q-31 -134 -131 -134q-46 0 -128 32.5t-103 32.5q-35 0 -35 -45zM25 0v800h690v-189h-386v-44h386v-189h-386v-79h386v-299h-690z" />
    <glyph glyph-name="uni1E1B" unicode="&#x1e1b;" horiz-adv-x="630" 
d="M37 -144l-1 1q1 129 101 129q42 0 132 -29t118 -29q44 0 47 43h167q-31 -134 -131 -134q-46 0 -128 32.5t-103 32.5q-35 0 -35 -45zM320 550q106 0 187 -61t104 -154h-424q1 -45 53 -68.5t132 -23.5q121 0 229 46l1 -254q-136 -34 -245 -34q-153 0 -244.5 66t-91.5 207
q0 114 87.5 195t211.5 81zM394 422q-38 49 -101 49q-64 0 -98 -49h199z" />
    <glyph glyph-name="uni1E1C" unicode="&#x1e1c;" horiz-adv-x="741" 
d="M620 954h-2q-3 -58 -70.5 -91t-157.5 -33q-57 0 -105 13.5t-80.5 42.5t-33.5 69h107q3 -47 37.5 -72.5t80.5 -25.5q47 0 81.5 26t35.5 71h107zM25 0v800h690v-189h-386v-44h386v-189h-386v-79h386v-299h-353l1 -12q27 6 47 6q41 0 69 -17t28 -41q0 -46 -64 -84.5
t-177 -38.5q-23 0 -35 1v112q11 -7 56.5 -16t77.5 -9q68 0 68 28q0 19 -56 19q-11 0 -86 -10l-2 62h-264z" />
    <glyph glyph-name="uni1E1D" unicode="&#x1e1d;" horiz-adv-x="630" 
d="M551 802q-2 -49 -36 -85t-84 -52.5t-108 -16.5q-57 0 -105 16t-81 52t-34 86h107q3 -61 37.5 -94t80.5 -33q30 0 55.5 13.5t42.5 43.5t18 70h107zM394 422q-38 49 -101 49q-64 0 -98 -49h199zM320 550q106 0 187 -61t104 -154h-424q1 -45 53 -68.5t132 -23.5
q121 0 229 46l1 -254q-110 -28 -204 -33l1 -14q27 6 47 6q41 0 69 -17t28 -41q0 -46 -64 -84.5t-177 -38.5q-23 0 -35 1v112q11 -7 56.5 -16t77.5 -9q27 0 47.5 7t20.5 21q0 19 -56 19q-14 0 -30.5 -2t-35.5 -5t-20 -3l-2 64q-67 3 -121 20t-96 48.5t-64.5 83.5t-22.5 120
q0 114 87.5 195t211.5 81z" />
    <glyph glyph-name="uni1E1E" unicode="&#x1e1e;" horiz-adv-x="739" 
d="M371 977q36 0 61 -22t25 -54t-25 -54.5t-61 -22.5q-23 0 -43 10.5t-31.5 28t-11.5 38.5q0 32 25 54t61 22zM25 0v800h690v-189h-386v-44h228v-189h-228v-378h-304z" />
    <glyph glyph-name="uni1E1F" unicode="&#x1e1f;" horiz-adv-x="547" 
d="M326 977q36 0 61 -22t25 -54t-25 -54.5t-61 -22.5q-23 0 -43 10.5t-31.5 28t-11.5 38.5q0 32 25 54t61 22zM71 599q0 58 30 99t80.5 62t104 30t113.5 9q73 0 126 -10l2 -131q-68 40 -106 40q-73 0 -73 -135v-13h164v-99h-164q0 -68 1 -205.5t1 -203.5v-42h-279v451h-52
v99h52v49z" />
    <glyph glyph-name="uni1E20" unicode="&#x1e20;" horiz-adv-x="779" 
d="M246 844v39h444v-39h-444zM755 523q-122 58 -231 58q-91 0 -146 -40.5t-55 -99.5q0 -58 48 -96.5t128 -44.5v98v2v80h256v-258v-136q-123 -86 -281 -86q-188 0 -321.5 117t-133.5 283t133.5 283t321.5 117q158 0 281 -86v-191z" />
    <glyph glyph-name="uni1E21" unicode="&#x1e21;" horiz-adv-x="759" 
d="M166 609v42h444v-42h-444zM472 522l5 28h256l2 -471q-7 -93 -66 -155t-144.5 -87.5t-194.5 -25.5q-84 0 -183 21l1 156q93 -58 166 -58q74 0 111.5 33t49.5 108q-32 -25 -62 -40.5t-63 -21.5t-50 -7t-53 -1q-102 0 -164 81t-62 189q0 53 17 101.5t51 88.5t90.5 63.5
t128.5 23.5q74 0 164 -26zM471 440q-27 7 -53 7q-63 0 -95.5 -39.5t-32.5 -95.5q0 -57 32 -100.5t85 -43.5q30 0 65 16z" />
    <glyph glyph-name="uni1E22" unicode="&#x1e22;" horiz-adv-x="834" 
d="M412 977q36 0 61 -22t25 -54t-25 -54.5t-61 -22.5q-23 0 -43 10.5t-31.5 28t-11.5 38.5q0 32 25 54t61 22zM25 800h304v-233h176v233h304v-800h-304v378h-176v-378h-304v800z" />
    <glyph glyph-name="uni1E23" unicode="&#x1e23;" horiz-adv-x="701" 
d="M360 977q36 0 61 -22t25 -54t-25 -54.5t-61 -22.5q-23 0 -43 10.5t-31.5 28t-11.5 38.5q0 32 25 54t61 22zM25 800h293v-279q72 28 144 28q91 0 150.5 -48.5t65.5 -142.5v-357h-251l2 384q-3 22 -14.5 37t-32.5 15q-27 0 -64 -27v-409h-293v799z" />
    <glyph glyph-name="uni1E24" unicode="&#x1e24;" horiz-adv-x="834" 
d="M418 -16q36 0 61 -22t25 -54t-25 -54.5t-61 -22.5t-61 22.5t-25 54.5t25 54t61 22zM25 800h304v-233h176v233h304v-800h-304v378h-176v-378h-304v800z" />
    <glyph glyph-name="uni1E25" unicode="&#x1e25;" horiz-adv-x="701" 
d="M371 -16q36 0 61 -22t25 -54t-25 -54.5t-61 -22.5t-61 22.5t-25 54.5t25 54t61 22zM25 800h293v-279q72 28 144 28q91 0 150.5 -48.5t65.5 -142.5v-357h-251l2 384q-3 22 -14.5 37t-32.5 15q-27 0 -64 -27v-409h-293v799z" />
    <glyph glyph-name="uni1E26" unicode="&#x1e26;" horiz-adv-x="834" 
d="M304 968q44 0 72.5 -21t28.5 -57t-28 -53.5t-73 -17.5t-73 17.5t-28 53.5t28.5 57t72.5 21zM543 968q44 0 72.5 -21t28.5 -57t-28 -53.5t-73 -17.5t-73 17.5t-28 53.5t28.5 57t72.5 21zM25 800h304v-233h176v233h304v-800h-304v378h-176v-378h-304v800z" />
    <glyph glyph-name="uni1E27" unicode="&#x1e27;" horiz-adv-x="701" 
d="M254 968q44 0 72.5 -21t28.5 -57t-28 -53.5t-73 -17.5t-73 17.5t-28 53.5t28.5 57t72.5 21zM493 968q44 0 72.5 -21t28.5 -57t-28 -53.5t-73 -17.5t-73 17.5t-28 53.5t28.5 57t72.5 21zM25 800h293v-279q72 28 144 28q91 0 150.5 -48.5t65.5 -142.5v-357h-251l2 384
q-3 22 -14.5 37t-32.5 15q-27 0 -64 -27v-409h-293v799z" />
    <glyph glyph-name="uni1E28" unicode="&#x1e28;" horiz-adv-x="834" 
d="M25 800h304v-233h176v233h304v-800h-304v378h-176v-378h-17l1 -12q27 6 47 6q41 0 69 -17t28 -41q0 -46 -64 -84.5t-177 -38.5q-23 0 -35 1v112q11 -7 56.5 -16t77.5 -9q68 0 68 28q0 19 -56 19q-11 0 -86 -10l-2 62h-214v800z" />
    <glyph glyph-name="uni1E29" unicode="&#x1e29;" horiz-adv-x="701" 
d="M25 800h293v-279q72 28 144 28q91 0 150.5 -48.5t65.5 -142.5v-357h-251l2 384q-3 22 -14.5 37t-32.5 15q-27 0 -64 -27v-409h-14l1 -13q27 6 47 6q41 0 69 -17t28 -41q0 -46 -64 -84.5t-177 -38.5q-23 0 -35 1v112q11 -7 56.5 -16t77.5 -9q68 0 68 28q0 19 -56 19
q-11 0 -86 -10l-2 63h-206v799z" />
    <glyph glyph-name="uni1E2A" unicode="&#x1e2a;" horiz-adv-x="834" 
d="M640 -13h-2q-3 -58 -70.5 -91t-157.5 -33q-57 0 -105 13.5t-80.5 42.5t-33.5 69h107q3 -47 37.5 -72.5t80.5 -25.5q47 0 81.5 26t35.5 71h107zM25 800h304v-233h176v233h304v-800h-304v378h-176v-378h-304v800z" />
    <glyph glyph-name="uni1E2B" unicode="&#x1e2b;" horiz-adv-x="701" 
d="M589 -13h-2q-3 -58 -70.5 -91t-157.5 -33q-57 0 -105 13.5t-80.5 42.5t-33.5 69h107q3 -47 37.5 -72.5t80.5 -25.5q47 0 81.5 26t35.5 71h107zM25 800h293v-279q72 28 144 28q91 0 150.5 -48.5t65.5 -142.5v-357h-251l2 384q-3 22 -14.5 37t-32.5 15q-27 0 -64 -27v-409
h-293v799z" />
    <glyph glyph-name="uni1E2C" unicode="&#x1e2c;" horiz-adv-x="354" 
d="M-85 -144l-1 1q1 129 101 129q42 0 132 -29t118 -29q44 0 47 43h167q-31 -134 -131 -134q-46 0 -128 32.5t-103 32.5q-35 0 -35 -45zM25 0v800h304v-800h-304z" />
    <glyph glyph-name="uni1E2D" unicode="&#x1e2d;" horiz-adv-x="323" 
d="M-115 -144l-1 1q1 129 101 129q42 0 132 -29t118 -29q44 0 47 43h167q-31 -134 -131 -134q-46 0 -128 32.5t-103 32.5q-35 0 -35 -45zM25 550h274v-553h-274v553zM162 749q57 0 97 -23t40 -55t-40 -55t-97 -23t-97 23t-40 55t40 55t97 23z" />
    <glyph glyph-name="uni1E2E" unicode="&#x1e2e;" horiz-adv-x="354" 
d="M194 985h119l-105 -108h-74zM66 913q12 0 22.5 -4t18 -11t12 -16t4.5 -20q0 -21 -16.5 -35.5t-40.5 -14.5t-40.5 14.5t-16.5 35.5t16.5 36t40.5 15zM293.5 913q23.5 0 40 -15t16.5 -36t-16.5 -35.5t-40 -14.5t-40 14.5t-16.5 35.5t16.5 36t40 15zM25 0v800h304v-800h-304
z" />
    <glyph glyph-name="uni1E2F" unicode="&#x1e2f;" horiz-adv-x="323" 
d="M166 785l-60 -108h74l105 108h-119zM62 665q12 0 22.5 -4t18 -11t12 -16.5t4.5 -19.5q0 -21 -16.5 -35.5t-40.5 -14.5t-40.5 14.5t-16.5 35.5t16.5 36t40.5 15zM260 665q11 0 21.5 -4t18 -11t12 -16.5t4.5 -19.5q0 -21 -16.5 -35.5t-40 -14.5t-40 14.5t-16.5 35.5
t16.5 36t40.5 15zM25 550h274v-553h-274v553z" />
    <glyph glyph-name="uni1E30" unicode="&#x1e30;" horiz-adv-x="781" 
d="M373 957h155l-129 -138h-86zM25 0v781v18h304v-233q55 0 66 39t11 183v11h300q-1 -12 -3 -31.5t-15 -71t-32.5 -92.5t-59 -78.5t-91.5 -46.5q44 -1 80.5 -11t62 -29t45 -41t31.5 -54.5t20 -61.5t11.5 -69.5t4.5 -71t1 -73.5v-69h-304v14q0 234 -19 300t-109 67v-380h-304
z" />
    <glyph glyph-name="uni1E31" unicode="&#x1e31;" horiz-adv-x="705" 
d="M363 957h155l-129 -138h-86zM25 0v800h272q0 -32 0.5 -206t0.5 -205q42 0 60 33.5t18 126.5h245v-20q0 -25 -3.5 -51t-13.5 -60t-34.5 -58.5t-60.5 -30.5q48 -1 82 -19t52 -43t28 -66t12 -73.5t2 -80.5v-47h-274q0 153 -23.5 206.5t-89.5 54.5v-261h-273z" />
    <glyph glyph-name="uni1E32" unicode="&#x1e32;" horiz-adv-x="781" 
d="M371 -16q36 0 61 -22t25 -54t-25 -54.5t-61 -22.5t-61 22.5t-25 54.5t25 54t61 22zM25 0v781v18h304v-233q55 0 66 39t11 183v11h300q-1 -12 -3 -31.5t-15 -71t-32.5 -92.5t-59 -78.5t-91.5 -46.5q44 -1 80.5 -11t62 -29t45 -41t31.5 -54.5t20 -61.5t11.5 -69.5t4.5 -71
t1 -73.5v-69h-304v14q0 234 -19 300t-109 67v-380h-304z" />
    <glyph glyph-name="uni1E33" unicode="&#x1e33;" horiz-adv-x="705" 
d="M345 -16q36 0 61 -22t25 -54t-25 -54.5t-61 -22.5t-61 22.5t-25 54.5t25 54t61 22zM25 0v800h272q0 -32 0.5 -206t0.5 -205q42 0 60 33.5t18 126.5h245v-20q0 -25 -3.5 -51t-13.5 -60t-34.5 -58.5t-60.5 -30.5q48 -1 82 -19t52 -43t28 -66t12 -73.5t2 -80.5v-47h-274
q0 153 -23.5 206.5t-89.5 54.5v-261h-273z" />
    <glyph glyph-name="uni1E34" unicode="&#x1e34;" horiz-adv-x="781" 
d="M172 -99v39h444v-39h-444zM25 0v781v18h304v-233q55 0 66 39t11 183v11h300q-1 -12 -3 -31.5t-15 -71t-32.5 -92.5t-59 -78.5t-91.5 -46.5q44 -1 80.5 -11t62 -29t45 -41t31.5 -54.5t20 -61.5t11.5 -69.5t4.5 -71t1 -73.5v-69h-304v14q0 234 -19 300t-109 67v-380h-304z
" />
    <glyph glyph-name="uni1E35" unicode="&#x1e35;" horiz-adv-x="705" 
d="M128 -99v39h444v-39h-444zM25 0v800h272q0 -32 0.5 -206t0.5 -205q42 0 60 33.5t18 126.5h245v-20q0 -25 -3.5 -51t-13.5 -60t-34.5 -58.5t-60.5 -30.5q48 -1 82 -19t52 -43t28 -66t12 -73.5t2 -80.5v-47h-274q0 153 -23.5 206.5t-89.5 54.5v-261h-273z" />
    <glyph glyph-name="uni1E36" unicode="&#x1e36;" horiz-adv-x="739" 
d="M371 -16q36 0 61 -22t25 -54t-25 -54.5t-61 -22.5t-61 22.5t-25 54.5t25 54t61 22zM25 0v800h304v-501h386v-299h-690z" />
    <glyph glyph-name="uni1E37" unicode="&#x1e37;" horiz-adv-x="324" 
d="M162 -16q36 0 61 -22t25 -54t-25 -54.5t-61 -22.5t-61 22.5t-25 54.5t25 54t61 22zM25 0v800h274v-800h-274z" />
    <glyph glyph-name="uni1E38" unicode="&#x1e38;" horiz-adv-x="739" 
d="M371 -16q36 0 61 -22t25 -54t-25 -54.5t-61 -22.5t-61 22.5t-25 54.5t25 54t61 22zM136 855v39h444v-39h-444zM25 0v800h304v-501h386v-299h-690z" />
    <glyph glyph-name="uni1E39" unicode="&#x1e39;" horiz-adv-x="324" 
d="M163 -16q36 0 61 -22t25 -54t-25 -54.5t-61 -22.5q-23 0 -43 10.5t-31.5 28t-11.5 38.5q0 32 25 54t61 22zM-53 855v39h444v-39h-444zM25 0v800h274v-800h-274z" />
    <glyph glyph-name="uni1E3A" unicode="&#x1e3a;" horiz-adv-x="739" 
d="M172 -99v39h444v-39h-444zM25 0v800h304v-501h386v-299h-690z" />
    <glyph glyph-name="uni1E3B" unicode="&#x1e3b;" horiz-adv-x="324" 
d="M-60 -99v39h444v-39h-444zM25 0v800h274v-800h-274z" />
    <glyph glyph-name="uni1E3C" unicode="&#x1e3c;" horiz-adv-x="739" 
d="M175 -157l133 137h116l133 -137h-128l-63 55l-63 -55h-128zM25 0v800h304v-501h386v-299h-690z" />
    <glyph glyph-name="uni1E3D" unicode="&#x1e3d;" horiz-adv-x="324" 
d="M-26 -157l133 137h116l133 -137h-128l-63 55l-63 -55h-128zM25 0v800h274v-800h-274z" />
    <glyph glyph-name="uni1E3E" unicode="&#x1e3e;" horiz-adv-x="905" 
d="M462 957h155l-129 -138h-86zM576 800h304v-188v-612h-304v299l-124 -299l-124 299v-299h-303v612v188h303l124 -188z" />
    <glyph glyph-name="uni1E3F" unicode="&#x1e3f;" horiz-adv-x="987" 
d="M502 799h155l-129 -181h-86zM25 550h274v-28q74 28 140 28q81 0 130 -42q105 42 188 42q92 0 145.5 -49.5t60.5 -142.5l1 -358h-252l-1 388q0 49 -33 49q-18 0 -43 -14v-423h-252l-3 386q0 4 -1 11t-10 18t-24 11q-21 0 -46 -16v-410h-274v550z" />
    <glyph glyph-name="uni1E40" unicode="&#x1e40;" horiz-adv-x="905" 
d="M454 977q36 0 61 -22t25 -54t-25 -54.5t-61 -22.5q-23 0 -43 10.5t-31.5 28t-11.5 38.5q0 32 25 54t61 22zM576 800h304v-188v-612h-304v299l-124 -299l-124 299v-299h-303v612v188h303l124 -188z" />
    <glyph glyph-name="uni1E41" unicode="&#x1e41;" horiz-adv-x="987" 
d="M513 800q42 0 71.5 -26.5t29.5 -63.5t-29.5 -63.5t-71.5 -26.5t-71.5 26.5t-29.5 63.5t29.5 63.5t71.5 26.5zM25 550h274v-28q74 28 140 28q81 0 130 -42q105 42 188 42q92 0 145.5 -49.5t60.5 -142.5l1 -358h-252l-1 388q0 49 -33 49q-18 0 -43 -14v-423h-252l-3 386
q0 4 -1 11t-10 18t-24 11q-21 0 -46 -16v-410h-274v550z" />
    <glyph glyph-name="uni1E42" unicode="&#x1e42;" horiz-adv-x="905" 
d="M453 -16q36 0 61 -22t25 -54t-25 -54.5t-61 -22.5t-61 22.5t-25 54.5t25 54t61 22zM576 800h304v-188v-612h-304v299l-124 -299l-124 299v-299h-303v612v188h303l124 -188z" />
    <glyph glyph-name="uni1E43" unicode="&#x1e43;" horiz-adv-x="987" 
d="M514 -16q36 0 61 -22t25 -54q0 -21 -11.5 -38.5t-31.5 -28t-43 -10.5q-36 0 -61 22.5t-25 54.5t25 54t61 22zM25 550h274v-28q74 28 140 28q81 0 130 -42q105 42 188 42q92 0 145.5 -49.5t60.5 -142.5l1 -358h-252l-1 388q0 49 -33 49q-18 0 -43 -14v-423h-252l-3 386
q0 4 -1 11t-10 18t-24 11q-21 0 -46 -16v-410h-274v550z" />
    <glyph glyph-name="uni1E44" unicode="&#x1e44;" horiz-adv-x="786" 
d="M393 977q36 0 61 -22t25 -54t-25 -54.5t-61 -22.5q-23 0 -43 10.5t-31.5 28t-11.5 38.5q0 32 25 54t61 22zM761 800v-800h-309l-124 299v-299h-303v800h303l124 -188v188h309z" />
    <glyph glyph-name="uni1E45" unicode="&#x1e45;" horiz-adv-x="658" 
d="M351 800q42 0 71.5 -26.5t29.5 -63.5t-29.5 -63.5t-71.5 -26.5t-71.5 26.5t-29.5 63.5t29.5 63.5t71.5 26.5zM25 549h272v-27q74 28 140 28q85 0 137.5 -48.5t59.5 -143.5v-358h-251l-3 391v5q0 33 -29 33q-21 0 -54 -19v-411h-272v550z" />
    <glyph glyph-name="uni1E46" unicode="&#x1e46;" horiz-adv-x="786" 
d="M387 -16q36 0 61 -22t25 -54t-25 -54.5t-61 -22.5t-61 22.5t-25 54.5t25 54t61 22zM761 800v-800h-309l-124 299v-299h-303v800h303l124 -188v188h309z" />
    <glyph glyph-name="uni1E47" unicode="&#x1e47;" horiz-adv-x="658" 
d="M340 -16q36 0 61 -22t25 -54t-25 -54.5t-61 -22.5t-61 22.5t-25 54.5t25 54t61 22zM25 549h272v-27q74 28 140 28q85 0 137.5 -48.5t59.5 -143.5v-358h-251l-3 391v5q0 33 -29 33q-21 0 -54 -19v-411h-272v550z" />
    <glyph glyph-name="uni1E48" unicode="&#x1e48;" horiz-adv-x="786" 
d="M172 -99v39h444v-39h-444zM761 800v-800h-309l-124 299v-299h-303v800h303l124 -188v188h309z" />
    <glyph glyph-name="uni1E49" unicode="&#x1e49;" horiz-adv-x="658" 
d="M108 -99v39h444v-39h-444zM25 549h272v-27q74 28 140 28q85 0 137.5 -48.5t59.5 -143.5v-358h-251l-3 391v5q0 33 -29 33q-21 0 -54 -19v-411h-272v550z" />
    <glyph glyph-name="uni1E4A" unicode="&#x1e4a;" horiz-adv-x="786" 
d="M199 -157l133 137h116l133 -137h-128l-63 55l-63 -55h-128zM761 800v-800h-309l-124 299v-299h-303v800h303l124 -188v188h309z" />
    <glyph glyph-name="uni1E4B" unicode="&#x1e4b;" horiz-adv-x="658" 
d="M141 -157l133 137h116l133 -137h-128l-63 55l-63 -55h-128zM25 549h272v-27q74 28 140 28q85 0 137.5 -48.5t59.5 -143.5v-358h-251l-3 391v5q0 33 -29 33q-21 0 -54 -19v-411h-272v550z" />
    <glyph glyph-name="uni1E4C" unicode="&#x1e4c;" horiz-adv-x="914" 
d="M508 969h119l-105 -108h-74zM312 813l-7 1q0 40 16 52.5t45 9.5q23 -2 77 -19t73 -17q13 0 20 6.5t8 25.5h104q-5 -22 -14 -37t-20.5 -21.5t-22.5 -9t-26 -2.5q-27 0 -76 19.5t-62 19.5q-21 0 -21 -27zM468 567q-52 0 -89 -39t-37 -95t37 -95t89 -39q53 0 90 39.5
t37 94.5t-37 94.5t-90 39.5zM466 800q177 0 302.5 -117t125.5 -283t-125.5 -283t-302.5 -117t-302 117t-125 283t125 283t302 117z" />
    <glyph glyph-name="uni1E4D" unicode="&#x1e4d;" horiz-adv-x="624" 
d="M128 579l-1 10q0 49 18.5 68t52.5 19q29 0 92 -28.5t82 -28.5q14 0 23 18.5t10 37.5h117q-12 -53 -36.5 -81.5t-54.5 -28.5q-32 0 -89.5 27.5t-72.5 27.5q-11 0 -18 -11.5t-7 -29.5h-116zM301 802h163l-101 -107h-103zM311 453q-36 0 -61.5 -27t-25.5 -65t25.5 -65.5
t61.5 -27.5t61.5 27.5t25.5 65.5t-25.5 65t-61.5 27zM311 550q122 0 208 -80.5t86 -194.5t-86 -195t-208 -81t-208.5 81t-86.5 195t86.5 194.5t208.5 80.5z" />
    <glyph glyph-name="uni1E4E" unicode="&#x1e4e;" horiz-adv-x="914" 
d="M422 963q19 0 32 -11.5t13 -28.5q0 -11 -6 -20.5t-16.5 -15t-22.5 -5.5q-19 0 -32 12t-13 29t13 28.5t32 11.5zM529 963q19 0 32 -11.5t13 -28.5t-13 -29t-32 -12t-32 12t-13 29t13 28.5t32 11.5zM312 813l-7 1q0 40 16 52.5t45 9.5q23 -2 77 -19t73 -17q13 0 20 6.5
t8 25.5h104q-5 -22 -14 -37t-20.5 -21.5t-22.5 -9t-26 -2.5q-27 0 -76 19.5t-62 19.5q-21 0 -21 -27zM468 567q-52 0 -89 -39t-37 -95t37 -95t89 -39q53 0 90 39.5t37 94.5t-37 94.5t-90 39.5zM466 800q177 0 302.5 -117t125.5 -283t-125.5 -283t-302.5 -117t-302 117
t-125 283t125 283t302 117z" />
    <glyph glyph-name="uni1E4F" unicode="&#x1e4f;" horiz-adv-x="624" 
d="M249 797q23 0 39.5 -14.5t16.5 -35.5t-16.5 -35.5t-40 -14.5t-40 14.5t-16.5 35.5q0 14 7.5 25.5t20.5 18t29 6.5zM382.5 797q23.5 0 40 -14.5t16.5 -35.5t-16.5 -35.5t-40.5 -14.5q-11 0 -21.5 4t-18 10.5t-12 16t-4.5 19.5q0 21 16.5 35.5t40 14.5zM128 579l-1 10
q0 49 18.5 68t52.5 19q29 0 92 -28.5t82 -28.5q14 0 23 18.5t10 37.5h117q-12 -53 -36.5 -81.5t-54.5 -28.5q-32 0 -89.5 27.5t-72.5 27.5q-11 0 -18 -11.5t-7 -29.5h-116zM311 453q-36 0 -61.5 -27t-25.5 -65t25.5 -65.5t61.5 -27.5t61.5 27.5t25.5 65.5t-25.5 65t-61.5 27
zM311 550q122 0 208 -80.5t86 -194.5t-86 -195t-208 -81t-208.5 81t-86.5 195t86.5 194.5t208.5 80.5z" />
    <glyph glyph-name="uni1E50" unicode="&#x1e50;" horiz-adv-x="914" 
d="M441 969l60 -108h-74l-105 108h119zM237 811v39h444v-39h-444zM468 567q-52 0 -89 -39t-37 -95t37 -95t89 -39q53 0 90 39.5t37 94.5t-37 94.5t-90 39.5zM466 800q177 0 302.5 -117t125.5 -283t-125.5 -283t-302.5 -117t-302 117t-125 283t125 283t302 117z" />
    <glyph glyph-name="uni1E51" unicode="&#x1e51;" horiz-adv-x="624" 
d="M297 745l60 -108h-74l-105 108h119zM93 587v39h444v-39h-444zM311 453q-36 0 -61.5 -27t-25.5 -65t25.5 -65.5t61.5 -27.5t61.5 27.5t25.5 65.5t-25.5 65t-61.5 27zM311 550q122 0 208 -80.5t86 -194.5t-86 -195t-208 -81t-208.5 81t-86.5 195t86.5 194.5t208.5 80.5z
" />
    <glyph glyph-name="uni1E52" unicode="&#x1e52;" horiz-adv-x="914" 
d="M498 969l-60 -108h74l105 108h-119zM270 811v39h444v-39h-444zM468 567q-52 0 -89 -39t-37 -95t37 -95t89 -39q53 0 90 39.5t37 94.5t-37 94.5t-90 39.5zM466 800q177 0 302.5 -117t125.5 -283t-125.5 -283t-302.5 -117t-302 117t-125 283t125 283t302 117z" />
    <glyph glyph-name="uni1E53" unicode="&#x1e53;" horiz-adv-x="624" 
d="M331 745l-60 -108h74l105 108h-119zM93 587v39h444v-39h-444zM311 453q-36 0 -61.5 -27t-25.5 -65t25.5 -65.5t61.5 -27.5t61.5 27.5t25.5 65.5t-25.5 65t-61.5 27zM311 550q122 0 208 -80.5t86 -194.5t-86 -195t-208 -81t-208.5 81t-86.5 195t86.5 194.5t208.5 80.5z
" />
    <glyph glyph-name="uni1E54" unicode="&#x1e54;" horiz-adv-x="725" 
d="M360 957h155l-129 -138h-86zM25 0v211v365v211q127 13 217 13h61.5t65 -2t70 -5.5t66.5 -10t64.5 -16t53.5 -24.5t44.5 -34t27.5 -45.5t11 -58.5q0 -48 -31.5 -87.5t-77 -63t-100 -40t-97.5 -23t-72 -6.5v-384h-303zM489 563q-2 28 -42 41t-83 13q-3 0 -35 -4v-114
q20 -4 29 -4q19 0 39 3t42 9.5t36 21t14 34.5z" />
    <glyph glyph-name="uni1E55" unicode="&#x1e55;" horiz-adv-x="740" 
d="M377 800h155l-129 -181h-86zM25 -189l1 735h269v-15q70 19 132 19q137 0 215 -85t78 -199q0 -109 -72 -187.5t-202 -78.5q-74 0 -152 25l1 -214h-270zM295 188q35 -16 66 -16q56 0 89 48.5t33 112.5q0 61 -31.5 104.5t-89.5 43.5q-28 0 -67 -14v-279z" />
    <glyph glyph-name="uni1E56" unicode="&#x1e56;" horiz-adv-x="725" 
d="M355 977q36 0 61 -22t25 -54t-25 -54.5t-61 -22.5q-23 0 -43 10.5t-31.5 28t-11.5 38.5q0 32 25 54t61 22zM25 0v211v365v211q127 13 217 13h61.5t65 -2t70 -5.5t66.5 -10t64.5 -16t53.5 -24.5t44.5 -34t27.5 -45.5t11 -58.5q0 -48 -31.5 -87.5t-77 -63t-100 -40
t-97.5 -23t-72 -6.5v-384h-303zM489 563q-2 28 -42 41t-83 13q-3 0 -35 -4v-114q20 -4 29 -4q19 0 39 3t42 9.5t36 21t14 34.5z" />
    <glyph glyph-name="uni1E57" unicode="&#x1e57;" horiz-adv-x="740" 
d="M388 800q42 0 71.5 -26.5t29.5 -63.5t-29.5 -63.5t-71.5 -26.5t-71.5 26.5t-29.5 63.5t29.5 63.5t71.5 26.5zM25 -189l1 735h269v-15q70 19 132 19q137 0 215 -85t78 -199q0 -109 -72 -187.5t-202 -78.5q-74 0 -152 25l1 -214h-270zM295 188q35 -16 66 -16q56 0 89 48.5
t33 112.5q0 61 -31.5 104.5t-89.5 43.5q-28 0 -67 -14v-279z" />
    <glyph glyph-name="uni1E58" unicode="&#x1e58;" horiz-adv-x="784" 
d="M381 977q36 0 61 -22t25 -54t-25 -54.5t-61 -22.5q-23 0 -43 10.5t-31.5 28t-11.5 38.5q0 32 25 54t61 22zM476 475q279 0 285 -191q0 -1 0.5 -3.5t0.5 -3.5t-0.5 -3.5t-0.5 -3.5v-270h-300v350q0 50 -98 50h-10.5t-9.5 -0.5t-7 -1t-5 -0.5h-2v-398h-304v571v211
q0 1 37 5.5t106.5 8.5t137.5 4q86 0 160 -7.5t143.5 -25t110 -52.5t40.5 -85q0 -142 -284 -155zM466 573q0 21 -32.5 31.5t-72.5 10.5q-15 0 -31 -2v-86q5 -1 18 -1q40 0 79 12t39 35z" />
    <glyph glyph-name="uni1E59" unicode="&#x1e59;" horiz-adv-x="465" 
d="M242 800q42 0 71.5 -26.5t29.5 -63.5t-29.5 -63.5t-71.5 -26.5t-71.5 26.5t-29.5 63.5t29.5 63.5t71.5 26.5zM25 550h276v-39q12 13 51.5 25.5t75.5 12.5h14v-164q-54 18 -84 18q-57 0 -57 -50v-353h-276v550z" />
    <glyph glyph-name="uni1E5A" unicode="&#x1e5a;" horiz-adv-x="784" 
d="M371 -16q36 0 61 -22t25 -54t-25 -54.5t-61 -22.5t-61 22.5t-25 54.5t25 54t61 22zM476 475q279 0 285 -191q0 -1 0.5 -3.5t0.5 -3.5t-0.5 -3.5t-0.5 -3.5v-270h-300v350q0 50 -98 50h-10.5t-9.5 -0.5t-7 -1t-5 -0.5h-2v-398h-304v571v211q0 1 37 5.5t106.5 8.5t137.5 4
q86 0 160 -7.5t143.5 -25t110 -52.5t40.5 -85q0 -142 -284 -155zM466 573q0 21 -32.5 31.5t-72.5 10.5q-15 0 -31 -2v-86q5 -1 18 -1q40 0 79 12t39 35z" />
    <glyph glyph-name="uni1E5B" unicode="&#x1e5b;" horiz-adv-x="465" 
d="M229 -16q36 0 61 -22t25 -54t-25 -54.5t-61 -22.5t-61 22.5t-25 54.5t25 54t61 22zM25 550h276v-39q12 13 51.5 25.5t75.5 12.5h14v-164q-54 18 -84 18q-57 0 -57 -50v-353h-276v550z" />
    <glyph glyph-name="uni1E5C" unicode="&#x1e5c;" horiz-adv-x="784" 
d="M173 844v39h444v-39h-444zM396 -16q36 0 61 -22t25 -54t-25 -54.5t-61 -22.5t-61 22.5t-25 54.5t25 54t61 22zM476 475q279 0 285 -191q0 -1 0.5 -3.5t0.5 -3.5t-0.5 -3.5t-0.5 -3.5v-270h-300v350q0 50 -98 50h-10.5t-9.5 -0.5t-7 -1t-5 -0.5h-2v-398h-304v571v211
q0 1 37 5.5t106.5 8.5t137.5 4q86 0 160 -7.5t143.5 -25t110 -52.5t40.5 -85q0 -142 -284 -155zM466 573q0 21 -32.5 31.5t-72.5 10.5q-15 0 -31 -2v-86q5 -1 18 -1q40 0 79 12t39 35z" />
    <glyph glyph-name="uni1E5D" unicode="&#x1e5d;" horiz-adv-x="465" 
d="M8 609v42h444v-42h-444zM232 -16q36 0 61 -22t25 -54t-25 -54.5t-61 -22.5t-61 22.5t-25 54.5t25 54t61 22zM25 550h276v-39q12 13 51.5 25.5t75.5 12.5h14v-164q-54 18 -84 18q-57 0 -57 -50v-353h-276v550z" />
    <glyph glyph-name="uni1E5E" unicode="&#x1e5e;" horiz-adv-x="784" 
d="M171 -99v39h444v-39h-444zM476 475q279 0 285 -191q0 -1 0.5 -3.5t0.5 -3.5t-0.5 -3.5t-0.5 -3.5v-270h-300v350q0 50 -98 50h-10.5t-9.5 -0.5t-7 -1t-5 -0.5h-2v-398h-304v571v211q0 1 37 5.5t106.5 8.5t137.5 4q86 0 160 -7.5t143.5 -25t110 -52.5t40.5 -85
q0 -142 -284 -155zM466 573q0 21 -32.5 31.5t-72.5 10.5q-15 0 -31 -2v-86q5 -1 18 -1q40 0 79 12t39 35z" />
    <glyph glyph-name="uni1E5F" unicode="&#x1e5f;" horiz-adv-x="465" 
d="M7 -99v39h444v-39h-444zM25 550h276v-39q12 13 51.5 25.5t75.5 12.5h14v-164q-54 18 -84 18q-57 0 -57 -50v-353h-276v550z" />
    <glyph glyph-name="uni1E60" unicode="&#x1e60;" horiz-adv-x="779" 
d="M393 977q36 0 61 -22t25 -54t-25 -54.5t-61 -22.5q-23 0 -43 10.5t-31.5 28t-11.5 38.5q0 32 25 54t61 22zM760 299q0 -72 -20.5 -126.5t-53.5 -86.5t-82 -52t-99.5 -27t-112.5 -7q-85 0 -177 14.5t-141 29.5l-50 14v320l-1 1l25 -9q25 -8 67 -20.5t89.5 -24.5t100.5 -21
t93 -9q106 0 106 62q0 27 -34.5 41t-86 16t-112 9.5t-112 20t-86 50t-34.5 96.5q0 10 2 30q11 85 112.5 132.5t239.5 47.5q56 0 119.5 -7t98.5 -13l35 -7v-206q-140 46 -234 46q-84 0 -84 -46q0 -18 32 -30t80 -19t104 -21.5t104 -34.5t80 -62t32 -101z" />
    <glyph glyph-name="uni1E61" unicode="&#x1e61;" horiz-adv-x="496" 
d="M242 800q42 0 71.5 -26.5t29.5 -63.5t-29.5 -63.5t-71.5 -26.5t-71.5 26.5t-29.5 63.5t29.5 63.5t71.5 26.5zM477 236q0 -71 -19.5 -119.5t-54.5 -72.5t-73 -33.5t-86 -9.5q-51 0 -106 8.5t-84 16.5l-30 9v273h-1l40 -13q40 -13 98.5 -26.5t95.5 -13.5q54 0 54 30
q0 19 -28.5 27t-69.5 10t-82 8t-69.5 29.5t-28.5 65.5q0 11 1 17q6 51 67 79.5t144 28.5q34 0 85 -4t86 -8l34 -4v-138q-127 34 -198 34q-46 0 -46 -19q0 -13 28 -19t68 -12t79.5 -18t67.5 -44t28 -82z" />
    <glyph glyph-name="uni1E62" unicode="&#x1e62;" horiz-adv-x="779" 
d="M396 -16q36 0 61 -22t25 -54t-25 -54.5t-61 -22.5t-61 22.5t-25 54.5t25 54t61 22zM760 299q0 -72 -20.5 -126.5t-53.5 -86.5t-82 -52t-99.5 -27t-112.5 -7q-85 0 -177 14.5t-141 29.5l-50 14v320l-1 1l25 -9q25 -8 67 -20.5t89.5 -24.5t100.5 -21t93 -9q106 0 106 62
q0 27 -34.5 41t-86 16t-112 9.5t-112 20t-86 50t-34.5 96.5q0 10 2 30q11 85 112.5 132.5t239.5 47.5q56 0 119.5 -7t98.5 -13l35 -7v-206q-140 46 -234 46q-84 0 -84 -46q0 -18 32 -30t80 -19t104 -21.5t104 -34.5t80 -62t32 -101z" />
    <glyph glyph-name="uni1E63" unicode="&#x1e63;" horiz-adv-x="496" 
d="M244 -16q36 0 61 -22t25 -54t-25 -54.5t-61 -22.5t-61 22.5t-25 54.5t25 54t61 22zM477 236q0 -71 -19.5 -119.5t-54.5 -72.5t-73 -33.5t-86 -9.5q-51 0 -106 8.5t-84 16.5l-30 9v273h-1l40 -13q40 -13 98.5 -26.5t95.5 -13.5q54 0 54 30q0 19 -28.5 27t-69.5 10t-82 8
t-69.5 29.5t-28.5 65.5q0 11 1 17q6 51 67 79.5t144 28.5q34 0 85 -4t86 -8l34 -4v-138q-127 34 -198 34q-46 0 -46 -19q0 -13 28 -19t68 -12t79.5 -18t67.5 -44t28 -82z" />
    <glyph glyph-name="uni1E64" unicode="&#x1e64;" horiz-adv-x="779" 
d="M415 969h119l-105 -67l-74 1zM393 894q19 0 32 -11.5t13 -28.5t-13 -29t-32 -12t-32 12t-13 29t13 28.5t32 11.5zM760 299q0 -72 -20.5 -126.5t-53.5 -86.5t-82 -52t-99.5 -27t-112.5 -7q-85 0 -177 14.5t-141 29.5l-50 14v320l-1 1l25 -9q25 -8 67 -20.5t89.5 -24.5
t100.5 -21t93 -9q106 0 106 62q0 27 -34.5 41t-86 16t-112 9.5t-112 20t-86 50t-34.5 96.5q0 10 2 30q11 85 112.5 132.5t239.5 47.5q56 0 119.5 -7t98.5 -13l35 -7v-206q-140 46 -234 46q-84 0 -84 -46q0 -18 32 -30t80 -19t104 -21.5t104 -34.5t80 -62t32 -101z" />
    <glyph glyph-name="uni1E65" unicode="&#x1e65;" horiz-adv-x="496" 
d="M243 802h163l-101 -107h-103zM249 677q24 0 40.5 -15t16.5 -36t-16.5 -35.5t-40.5 -14.5t-40.5 14.5t-16.5 35.5t16.5 36t40.5 15zM477 236q0 -71 -19.5 -119.5t-54.5 -72.5t-73 -33.5t-86 -9.5q-51 0 -106 8.5t-84 16.5l-30 9v273h-1l40 -13q40 -13 98.5 -26.5
t95.5 -13.5q54 0 54 30q0 19 -28.5 27t-69.5 10t-82 8t-69.5 29.5t-28.5 65.5q0 11 1 17q6 51 67 79.5t144 28.5q34 0 85 -4t86 -8l34 -4v-138q-127 34 -198 34q-46 0 -46 -19q0 -13 28 -19t68 -12t79.5 -18t67.5 -44t28 -82z" />
    <glyph glyph-name="uni1E66" unicode="&#x1e66;" horiz-adv-x="779" 
d="M230 905l134 70h62l132 -70h-104l-60 36l-58 -36h-106zM390 911q12 0 22.5 -4t18 -11t12 -16t4.5 -20q0 -21 -16.5 -35.5t-40 -14.5t-40 14.5t-16.5 35.5t16.5 36t39.5 15zM760 299q0 -72 -20.5 -126.5t-53.5 -86.5t-82 -52t-99.5 -27t-112.5 -7q-85 0 -177 14.5
t-141 29.5l-50 14v320l-1 1l25 -9q25 -8 67 -20.5t89.5 -24.5t100.5 -21t93 -9q106 0 106 62q0 27 -34.5 41t-86 16t-112 9.5t-112 20t-86 50t-34.5 96.5q0 10 2 30q11 85 112.5 132.5t239.5 47.5q56 0 119.5 -7t98.5 -13l35 -7v-206q-140 46 -234 46q-84 0 -84 -46
q0 -18 32 -30t80 -19t104 -21.5t104 -34.5t80 -62t32 -101z" />
    <glyph glyph-name="uni1E67" unicode="&#x1e67;" horiz-adv-x="494" 
d="M62 687l133 113h116l133 -113h-128l-63 55l-63 -55h-128zM249 677q24 0 40.5 -15t16.5 -36t-16.5 -35.5t-40.5 -14.5t-40.5 14.5t-16.5 35.5t16.5 36t40.5 15zM477 236q0 -71 -19.5 -119.5t-54.5 -72.5t-73 -33.5t-86 -9.5q-51 0 -106 8.5t-84 16.5l-30 9v273h-1l40 -13
q40 -13 98.5 -26.5t95.5 -13.5q54 0 54 30q0 19 -28.5 27t-69.5 10t-82 8t-69.5 29.5t-28.5 65.5q0 11 1 17q6 51 67 79.5t144 28.5q34 0 85 -4t86 -8l34 -4v-138q-127 34 -198 34q-46 0 -46 -19q0 -13 28 -19t68 -12t79.5 -18t67.5 -44t28 -82z" />
    <glyph glyph-name="uni1E68" unicode="&#x1e68;" horiz-adv-x="779" 
d="M393 977q36 0 61 -22t25 -54t-25 -54.5t-61 -22.5q-23 0 -43 10.5t-31.5 28t-11.5 38.5q0 32 25 54t61 22zM396 -16q36 0 61 -22t25 -54t-25 -54.5t-61 -22.5t-61 22.5t-25 54.5t25 54t61 22zM760 299q0 -72 -20.5 -126.5t-53.5 -86.5t-82 -52t-99.5 -27t-112.5 -7
q-85 0 -177 14.5t-141 29.5l-50 14v320l-1 1l25 -9q25 -8 67 -20.5t89.5 -24.5t100.5 -21t93 -9q106 0 106 62q0 27 -34.5 41t-86 16t-112 9.5t-112 20t-86 50t-34.5 96.5q0 10 2 30q11 85 112.5 132.5t239.5 47.5q56 0 119.5 -7t98.5 -13l35 -7v-206q-140 46 -234 46
q-84 0 -84 -46q0 -18 32 -30t80 -19t104 -21.5t104 -34.5t80 -62t32 -101z" />
    <glyph glyph-name="uni1E69" unicode="&#x1e69;" horiz-adv-x="496" 
d="M242 800q42 0 71.5 -26.5t29.5 -63.5t-29.5 -63.5t-71.5 -26.5t-71.5 26.5t-29.5 63.5t29.5 63.5t71.5 26.5zM244 -16q36 0 61 -22t25 -54t-25 -54.5t-61 -22.5t-61 22.5t-25 54.5t25 54t61 22zM477 236q0 -71 -19.5 -119.5t-54.5 -72.5t-73 -33.5t-86 -9.5
q-51 0 -106 8.5t-84 16.5l-30 9v273h-1l40 -13q40 -13 98.5 -26.5t95.5 -13.5q54 0 54 30q0 19 -28.5 27t-69.5 10t-82 8t-69.5 29.5t-28.5 65.5q0 11 1 17q6 51 67 79.5t144 28.5q34 0 85 -4t86 -8l34 -4v-138q-127 34 -198 34q-46 0 -46 -19q0 -13 28 -19t68 -12t79.5 -18
t67.5 -44t28 -82z" />
    <glyph glyph-name="uni1E6A" unicode="&#x1e6a;" horiz-adv-x="777" 
d="M384 977q36 0 61 -22t25 -54t-25 -54.5t-61 -22.5q-23 0 -43 10.5t-31.5 28t-11.5 38.5q0 32 25 54t61 22zM756 800v-188h-219v-612h-304v612h-213v188h736z" />
    <glyph glyph-name="uni1E6B" unicode="&#x1e6b;" horiz-adv-x="509" 
d="M286 800q42 0 71.5 -26.5t29.5 -63.5t-29.5 -63.5t-71.5 -26.5t-71.5 26.5t-29.5 63.5t29.5 63.5t71.5 26.5zM92 550h-73v-89h46v-65v-110v-88v-26q0 -50 27.5 -86t74 -54t95.5 -26t104 -8q63 0 121 10v119q-56 -31 -92 -31q-54 0 -54 88v14v88h-1q0 21 0.5 80.5
t0.5 94.5h146v89h-198h-197z" />
    <glyph glyph-name="uni1E6C" unicode="&#x1e6c;" horiz-adv-x="777" 
d="M396 -16q36 0 61 -22t25 -54t-25 -54.5t-61 -22.5t-61 22.5t-25 54.5t25 54t61 22zM756 800v-188h-219v-612h-304v612h-213v188h736z" />
    <glyph glyph-name="uni1E6D" unicode="&#x1e6d;" horiz-adv-x="509" 
d="M273 -16q36 0 61 -22t25 -54t-25 -54.5t-61 -22.5t-61 22.5t-25 54.5t25 54t61 22zM65 172v26v88v110v65h-46v89h46v255h277v-40q0 -28 -0.5 -101t-0.5 -114h146v-89h-146q0 -35 -0.5 -94.5t-0.5 -80.5h1v-88v-14q0 -88 54 -88q36 0 92 31v-119q-58 -10 -121 -10
q-55 0 -104 8t-95.5 26t-74 54t-27.5 86z" />
    <glyph glyph-name="uni1E6E" unicode="&#x1e6e;" horiz-adv-x="777" 
d="M157 -99v39h444v-39h-444zM756 800v-188h-219v-612h-304v612h-213v188h736z" />
    <glyph glyph-name="uni1E6F" unicode="&#x1e6f;" horiz-adv-x="509" 
d="M32 -99v39h444v-39h-444zM65 172v26v88v110v65h-46v89h46v255h277v-40q0 -28 -0.5 -101t-0.5 -114h146v-89h-146q0 -35 -0.5 -94.5t-0.5 -80.5h1v-88v-14q0 -88 54 -88q36 0 92 31v-119q-58 -10 -121 -10q-55 0 -104 8t-95.5 26t-74 54t-27.5 86z" />
    <glyph glyph-name="uni1E70" unicode="&#x1e70;" horiz-adv-x="777" 
d="M198 -157l133 137h116l133 -137h-128l-63 55l-63 -55h-128zM756 800v-188h-219v-612h-304v612h-213v188h736z" />
    <glyph glyph-name="uni1E71" unicode="&#x1e71;" horiz-adv-x="509" 
d="M68 -157l133 137h116l133 -137h-128l-63 55l-63 -55h-128zM65 172v26v88v110v65h-46v89h46v255h277v-40q0 -28 -0.5 -101t-0.5 -114h146v-89h-146q0 -35 -0.5 -94.5t-0.5 -80.5h1v-88v-14q0 -88 54 -88q36 0 92 31v-119q-58 -10 -121 -10q-55 0 -104 8t-95.5 26t-74 54
t-27.5 86z" />
    <glyph glyph-name="uni1E72" unicode="&#x1e72;" horiz-adv-x="782" 
d="M300 -8q34 0 57.5 -21t23.5 -51t-23.5 -51t-57.5 -21t-57.5 21t-23.5 51t23.5 51t57.5 21zM491 -8q34 0 57.5 -21t23.5 -51q0 -15 -6.5 -28t-17 -23t-25.5 -15.5t-32 -5.5q-34 0 -57.5 21t-23.5 51t23.5 51t57.5 21zM327 800v-422q18 -78 61 -78q23 0 42 22.5t24 55.5
v421h305v-504q0 -71 -31 -128.5t-82.5 -93t-116 -54.5t-134.5 -19q-71 0 -136.5 19.5t-118.5 55.5t-85 94t-32 129v502h304z" />
    <glyph glyph-name="uni1E73" unicode="&#x1e73;" horiz-adv-x="656" 
d="M224 -8q34 0 57.5 -21t23.5 -51t-23.5 -51t-57.5 -21t-57.5 21t-23.5 51q0 20 11 36.5t29.5 26t40.5 9.5zM415 -8q34 0 57.5 -21t23.5 -51t-23.5 -51t-57.5 -21t-57.5 21t-23.5 51t23.5 51t57.5 21zM631 1h-274v28q-76 -28 -138 -28q-84 0 -136 48.5t-59 142.5v355h250
l3 -394q0 -14 8 -25t23 -11q22 0 49 22v408h274v-546z" />
    <glyph glyph-name="uni1E74" unicode="&#x1e74;" horiz-adv-x="782" 
d="M135 -144l-1 1q1 129 101 129q42 0 132 -29t118 -29q44 0 47 43h167q-31 -134 -131 -134q-46 0 -128 32.5t-103 32.5q-35 0 -35 -45zM327 800v-422q18 -78 61 -78q23 0 42 22.5t24 55.5v421h305v-504q0 -71 -31 -128.5t-82.5 -93t-116 -54.5t-134.5 -19
q-71 0 -136.5 19.5t-118.5 55.5t-85 94t-32 129v502h304z" />
    <glyph glyph-name="uni1E75" unicode="&#x1e75;" horiz-adv-x="656" 
d="M50 -144l-1 1q1 129 101 129q42 0 132 -29t118 -29q44 0 47 43h167q-31 -134 -131 -134q-45 0 -127 32.5t-104 32.5q-35 0 -35 -45zM631 1h-274v28q-76 -28 -138 -28q-84 0 -136 48.5t-59 142.5v355h250l3 -394q0 -14 8 -25t23 -11q22 0 49 22v408h274v-546z" />
    <glyph glyph-name="uni1E76" unicode="&#x1e76;" horiz-adv-x="782" 
d="M199 -157l133 137h116l133 -137h-128l-63 55l-63 -55h-128zM327 800v-422q18 -78 61 -78q23 0 42 22.5t24 55.5v421h305v-504q0 -71 -31 -128.5t-82.5 -93t-116 -54.5t-134.5 -19q-71 0 -136.5 19.5t-118.5 55.5t-85 94t-32 129v502h304z" />
    <glyph glyph-name="uni1E77" unicode="&#x1e77;" horiz-adv-x="656" 
d="M139 -157l133 137h116l133 -137h-128l-63 55l-63 -55h-128zM631 1h-274v28q-76 -28 -138 -28q-84 0 -136 48.5t-59 142.5v355h250l3 -394q0 -14 8 -25t23 -11q22 0 49 22v408h274v-546z" />
    <glyph glyph-name="uni1E78" unicode="&#x1e78;" horiz-adv-x="782" 
d="M425 969h119l-105 -108h-74zM228 813l-6 1q0 40 16 52.5t44 9.5q24 -2 78 -19t72 -17q14 0 21 6.5t8 25.5h104q-10 -42 -31 -56t-52 -14q-27 0 -76 19.5t-62 19.5q-21 0 -21 -27zM327 800v-422q18 -78 61 -78q23 0 42 22.5t24 55.5v421h305v-504q0 -71 -31 -128.5
t-82.5 -93t-116 -54.5t-134.5 -19q-71 0 -136.5 19.5t-118.5 55.5t-85 94t-32 129v502h304z" />
    <glyph glyph-name="uni1E79" unicode="&#x1e79;" horiz-adv-x="656" 
d="M128 579l-1 10q0 49 18.5 68t52.5 19q29 0 92 -28.5t82 -28.5q14 0 23 18.5t10 37.5h117q-12 -53 -36.5 -81.5t-54.5 -28.5q-32 0 -89.5 27.5t-72.5 27.5q-11 0 -18 -11.5t-7 -29.5h-116zM301 802h163l-101 -107h-103zM631 1h-274v28q-76 -28 -138 -28q-84 0 -136 48.5
t-59 142.5v355h250l3 -394q0 -14 8 -25t23 -11q22 0 49 22v408h274v-546z" />
    <glyph glyph-name="uni1E7A" unicode="&#x1e7a;" horiz-adv-x="782" 
d="M308 991q24 0 40.5 -15t16.5 -36q0 -13 -8 -25t-21 -18.5t-28 -6.5t-28 6.5t-21 18.5t-8 25q0 21 16.5 36t40.5 15zM481 991q15 0 28 -7t20.5 -18.5t7.5 -25t-7.5 -25.5t-20.5 -18.5t-28 -6.5q-12 0 -22.5 4t-18 10.5t-12 16t-4.5 19.5q0 21 16.5 36t40.5 15zM173 844v39
h444v-39h-444zM327 800v-422q18 -78 61 -78q23 0 42 22.5t24 55.5v421h305v-504q0 -71 -31 -128.5t-82.5 -93t-116 -54.5t-134.5 -19q-71 0 -136.5 19.5t-118.5 55.5t-85 94t-32 129v502h304z" />
    <glyph glyph-name="uni1E7B" unicode="&#x1e7b;" horiz-adv-x="656" 
d="M234 781q24 0 40.5 -15t16.5 -35.5t-16.5 -35.5t-40 -15t-40 15t-16.5 36q0 13 7.5 24.5t20.5 18.5t28 7zM396.5 781q23.5 0 40 -15t16.5 -35.5t-16.5 -35.5t-40 -15t-40 15t-16.5 35.5t16.5 35.5t40 15zM93 609v42h444v-42h-444zM631 1h-274v28q-76 -28 -138 -28
q-84 0 -136 48.5t-59 142.5v355h250l3 -394q0 -14 8 -25t23 -11q22 0 49 22v408h274v-546z" />
    <glyph glyph-name="uni1E7C" unicode="&#x1e7c;" horiz-adv-x="736" 
d="M114 842l-1 1q1 129 101 129q42 0 132 -29t118 -29q44 0 47 43h167q-31 -134 -131 -134q-45 0 -127 32.5t-104 32.5q-35 0 -35 -45zM522 0h-308l-195 800h309l95 -501l83 501h211z" />
    <glyph glyph-name="uni1E7D" unicode="&#x1e7d;" horiz-adv-x="601" 
d="M19 637l-1 1q5 85 39.5 119t91.5 34q39 0 114 -18.5t100 -18.5q49 0 52 46h167q-3 -164 -100 -164q-40 0 -125 33t-115 33q-51 0 -56 -64zM440 4h-288l-133 546h271l65 -342l56 342h162z" />
    <glyph glyph-name="uni1E7E" unicode="&#x1e7e;" horiz-adv-x="736" 
d="M396 -16q36 0 61 -22t25 -54t-25 -54.5t-61 -22.5t-61 22.5t-25 54.5t25 54t61 22zM522 0h-308l-195 800h309l95 -501l83 501h211z" />
    <glyph glyph-name="uni1E7F" unicode="&#x1e7f;" horiz-adv-x="592" 
d="M281 -16q36 0 61 -22t25 -54t-25 -54.5t-61 -22.5t-61 22.5t-25 54.5t25 54t61 22zM440 4h-288l-133 546h271l65 -342l56 342h162z" />
    <glyph glyph-name="Wgrave" unicode="&#x1e80;" horiz-adv-x="959" 
d="M471 957h-155l129 -138h86zM407 0h-248l-140 800h303l35 -219q111 190 126 219l121 -219l30 219h306l-135 -800h-241l-82 299z" />
    <glyph glyph-name="wgrave" unicode="&#x1e81;" horiz-adv-x="985" 
d="M514 799h-155l129 -181h86zM440 4h-288l-133 546h271l65 -342l56 342h1h270l66 -342l56 342h162l-133 -546h-288l-53 215z" />
    <glyph glyph-name="Wacute" unicode="&#x1e82;" horiz-adv-x="959" 
d="M486 957h155l-129 -138h-86zM407 0h-248l-140 800h303l35 -219q111 190 126 219l121 -219l30 219h306l-135 -800h-241l-82 299z" />
    <glyph glyph-name="wacute" unicode="&#x1e83;" horiz-adv-x="985" 
d="M530 800h155l-129 -181h-86zM440 4h-288l-133 546h271l65 -342l56 342h1h270l66 -342l56 342h162l-133 -546h-288l-53 215z" />
    <glyph glyph-name="Wdieresis" unicode="&#x1e84;" horiz-adv-x="959" 
d="M365 968q44 0 72.5 -21t28.5 -57t-28 -53.5t-73 -17.5t-73 17.5t-28 53.5t28.5 57t72.5 21zM604 968q44 0 72.5 -21t28.5 -57t-28 -53.5t-73 -17.5t-73 17.5t-28 53.5t28.5 57t72.5 21zM407 0h-248l-140 800h303l35 -219q111 190 126 219l121 -219l30 219h306l-135 -800
h-241l-82 299z" />
    <glyph glyph-name="wdieresis" unicode="&#x1e85;" horiz-adv-x="985" 
d="M356 800q42 0 71.5 -26.5t29.5 -63.5t-29.5 -63.5t-71.5 -26.5t-71.5 26.5t-29.5 63.5t29.5 63.5t71.5 26.5zM595 800q42 0 71.5 -26.5t29.5 -63.5t-29.5 -63.5t-71.5 -26.5t-71.5 26.5t-29.5 63.5t29.5 63.5t71.5 26.5zM440 4h-288l-133 546h271l65 -342l56 342h1h270
l66 -342l56 342h162l-133 -546h-288l-53 215z" />
    <glyph glyph-name="uni1E86" unicode="&#x1e86;" horiz-adv-x="959" 
d="M481 977q36 0 61 -22t25 -54t-25 -54.5t-61 -22.5q-23 0 -43 10.5t-31.5 28t-11.5 38.5q0 32 25 54t61 22zM407 0h-248l-140 800h303l35 -219q111 190 126 219l121 -219l30 219h306l-135 -800h-241l-82 299z" />
    <glyph glyph-name="uni1E87" unicode="&#x1e87;" horiz-adv-x="985" 
d="M524 801q43 0 72.5 -26.5t29.5 -63.5q0 -25 -13.5 -45.5t-37 -32.5t-51.5 -12q-42 0 -71 26.5t-29 63.5q0 25 13 45.5t36.5 32.5t50.5 12zM440 4h-288l-133 546h271l65 -342l56 342h1h270l66 -342l56 342h162l-133 -546h-288l-53 215z" />
    <glyph glyph-name="uni1E88" unicode="&#x1e88;" horiz-adv-x="959" 
d="M469 -16q36 0 61 -22t25 -54t-25 -54.5t-61 -22.5t-61 22.5t-25 54.5t25 54t61 22zM407 0h-248l-140 800h303l35 -219q111 190 126 219l121 -219l30 219h306l-135 -800h-241l-82 299z" />
    <glyph glyph-name="uni1E89" unicode="&#x1e89;" horiz-adv-x="985" 
d="M491 -16q36 0 61 -22t25 -54q0 -21 -11.5 -38.5t-31.5 -28t-43 -10.5q-36 0 -61 22.5t-25 54.5t25 54t61 22zM440 4h-288l-133 546h271l65 -342l56 342h1h270l66 -342l56 342h162l-133 -546h-288l-53 215z" />
    <glyph glyph-name="uni1E8A" unicode="&#x1e8a;" horiz-adv-x="771" 
d="M371 977q36 0 61 -22t25 -54t-25 -54.5t-61 -22.5q-23 0 -43 10.5t-31.5 28t-11.5 38.5q0 32 25 54t61 22zM19 800h353l45 -124l60 124h211l-165 -321l229 -479h-344l-60 144l-76 -144h-211l179 341z" />
    <glyph glyph-name="uni1E8B" unicode="&#x1e8b;" horiz-adv-x="573" 
d="M280 800q42 0 71.5 -26.5t29.5 -63.5t-29.5 -63.5t-71.5 -26.5t-71.5 26.5t-29.5 63.5t29.5 63.5t71.5 26.5zM19 550h273l31 -85l44 85h145l-115 -220l157 -330h-267l-42 99l-52 -99h-145l123 234z" />
    <glyph glyph-name="uni1E8C" unicode="&#x1e8c;" horiz-adv-x="771" 
d="M262 968q44 0 72.5 -21t28.5 -57t-28 -53.5t-73 -17.5t-73 17.5t-28 53.5t28.5 57t72.5 21zM501 968q44 0 72.5 -21t28.5 -57t-28 -53.5t-73 -17.5t-73 17.5t-28 53.5t28.5 57t72.5 21zM19 800h353l45 -124l60 124h211l-165 -321l229 -479h-344l-60 144l-76 -144h-211
l179 341z" />
    <glyph glyph-name="uni1E8D" unicode="&#x1e8d;" horiz-adv-x="573" 
d="M160 800q42 0 71.5 -26.5t29.5 -63.5t-29.5 -63.5t-71.5 -26.5t-71.5 26.5t-29.5 63.5t29.5 63.5t71.5 26.5zM399 800q42 0 71.5 -26.5t29.5 -63.5t-29.5 -63.5t-71.5 -26.5t-71.5 26.5t-29.5 63.5t29.5 63.5t71.5 26.5zM19 550h273l31 -85l44 85h145l-115 -220l157 -330
h-267l-42 99l-52 -99h-145l123 234z" />
    <glyph glyph-name="uni1E8E" unicode="&#x1e8e;" horiz-adv-x="735" 
d="M385 977q36 0 61 -22t25 -54t-25 -54.5t-61 -22.5q-23 0 -43 10.5t-31.5 28t-11.5 38.5q0 32 25 54t61 22zM518 480v-480h-304v480l-195 320h308l88 -188l90 188h211z" />
    <glyph glyph-name="uni1E8F" unicode="&#x1e8f;" horiz-adv-x="660" 
d="M328 800q42 0 71.5 -26.5t29.5 -63.5t-29.5 -63.5t-71.5 -26.5t-71.5 26.5t-29.5 63.5t29.5 63.5t71.5 26.5zM359 27q-73 -27 -138 -27q-85 0 -137.5 48.5t-59.5 143.5v358h222l3 -397q0 -13 15.5 -25t37.5 -12q30 0 58 23v411h275v-474q-9 -135 -99.5 -201t-232.5 -66
q-117 0 -244 49l1 157q104 -77 183 -77q99 0 116 89z" />
    <glyph glyph-name="uni1E90" unicode="&#x1e90;" horiz-adv-x="779" 
d="M205 819l133 137h116l133 -137h-128l-63 55l-63 -55h-128zM451 299h305v-299h-736l390 612h-390v188h736z" />
    <glyph glyph-name="uni1E91" unicode="&#x1e91;" horiz-adv-x="602" 
d="M370 269h209v-269h-560l268 421h-264v129h556z" />
    <glyph glyph-name="uni1E92" unicode="&#x1e92;" horiz-adv-x="779" 
d="M396 -16q36 0 61 -22t25 -54t-25 -54.5t-61 -22.5t-61 22.5t-25 54.5t25 54t61 22zM451 299h305v-299h-736l390 612h-390v188h736z" />
    <glyph glyph-name="uni1E93" unicode="&#x1e93;" horiz-adv-x="602" 
d="M299 -16q36 0 61 -22t25 -54t-25 -54.5t-61 -22.5t-61 22.5t-25 54.5t25 54t61 22zM370 269h209v-269h-560l268 421h-264v129h556z" />
    <glyph glyph-name="uni1E94" unicode="&#x1e94;" horiz-adv-x="779" 
d="M172 -99v39h444v-39h-444zM451 299h305v-299h-736l390 612h-390v188h736z" />
    <glyph glyph-name="uni1E95" unicode="&#x1e95;" horiz-adv-x="602" 
d="M70 -99v39h444v-39h-444zM370 269h209v-269h-560l268 421h-264v129h556z" />
    <glyph glyph-name="uni1E96" unicode="&#x1e96;" horiz-adv-x="701" 
d="M127 -99v39h444v-39h-444zM25 800h293v-279q72 28 144 28q91 0 150.5 -48.5t65.5 -142.5v-357h-251l2 384q-3 22 -14.5 37t-32.5 15q-27 0 -64 -27v-409h-293v799z" />
    <glyph glyph-name="uni1E97" unicode="&#x1e97;" horiz-adv-x="509" 
d="M137 968q44 0 72.5 -21t28.5 -57t-28 -53.5t-73 -17.5t-73 17.5t-28 53.5t28.5 57t72.5 21zM376 968q44 0 72.5 -21t28.5 -57t-28 -53.5t-73 -17.5t-73 17.5t-28 53.5t28.5 57t72.5 21zM65 172v26v88v110v65h-46v89h46v255h277v-40q0 -28 -0.5 -101t-0.5 -114h146v-89
h-146q0 -35 -0.5 -94.5t-0.5 -80.5h1v-88v-14q0 -88 54 -88q36 0 92 31v-119q-58 -10 -121 -10q-55 0 -104 8t-95.5 26t-74 54t-27.5 86z" />
    <glyph glyph-name="uni1E98" unicode="&#x1e98;" horiz-adv-x="985" 
d="M513 799q53 0 90.5 -26.5t37.5 -63.5t-37.5 -63.5t-90.5 -26.5t-90.5 26.5t-37.5 63.5t37.5 63.5t90.5 26.5zM514 776q-26 0 -44.5 -16.5t-18.5 -39.5t18.5 -39.5t44.5 -16.5t44.5 16.5t18.5 39.5t-18.5 39.5t-44.5 16.5zM440 4h-288l-133 546h271l65 -342l56 342h1h270
l66 -342l56 342h162l-133 -546h-288l-53 215z" />
    <glyph glyph-name="uni1E99" unicode="&#x1e99;" horiz-adv-x="660" 
d="M343 799q53 0 90.5 -26.5t37.5 -63.5t-37.5 -63.5t-90.5 -26.5t-90.5 26.5t-37.5 63.5t37.5 63.5t90.5 26.5zM344 776q-26 0 -44.5 -16.5t-18.5 -39.5t18.5 -39.5t44.5 -16.5t44.5 16.5t18.5 39.5t-18.5 39.5t-44.5 16.5zM359 27q-73 -27 -138 -27q-85 0 -137.5 48.5
t-59.5 143.5v358h222l3 -397q0 -13 15.5 -25t37.5 -12q30 0 58 23v411h275v-474q-9 -135 -99.5 -201t-232.5 -66q-117 0 -244 49l1 157q104 -77 183 -77q99 0 116 89z" />
    <glyph glyph-name="uni1EA0" unicode="&#x1ea0;" horiz-adv-x="736" 
d="M324 -39q31 0 53 -18.5t22 -44.5t-22 -44.5t-53 -18.5t-52.5 18.5t-21.5 44.5t21.5 44.5t52.5 18.5zM360 202l-40 166l-41 -166h81zM248 73l-18 -73h-211l195 802h308l195 -802h-309l-17 73h-143z" />
    <glyph glyph-name="uni1EA1" unicode="&#x1ea1;" horiz-adv-x="674" 
d="M324 -39q31 0 53 -18.5t22 -44.5t-22 -44.5t-53 -18.5t-52.5 18.5t-21.5 44.5t21.5 44.5t52.5 18.5zM344 550q126 0 216 -41t90 -99v-407h-272v13q-46 -13 -91 -13q-110 0 -188.5 63.5t-78.5 153.5q0 53 21 92.5t57 61t77 31.5t87 10q62 0 115 -15v31q0 28 -70 28
q-36 0 -87 -7t-97 -15.5t-47 -8.5l2 104q24 4 129.5 11t136.5 7zM377 276v82q-26 6 -58 6q-111 0 -111 -51q0 -42 109 -42q40 0 60 5z" />
    <glyph glyph-name="uni1EA2" unicode="&#x1ea2;" horiz-adv-x="736" 
d="M305 812v81q62 -14 90 6q17 13 -6 23q-40 17 -148 0l-2 32q128 33 206 -12q49 -28 44 -67q-7 -42 -76 -58q-45 -10 -108 -5zM360 202l-40 166l-41 -166h81zM248 73l-18 -73h-211l195 802h308l195 -802h-309l-17 73h-143z" />
    <glyph glyph-name="uni1EA3" unicode="&#x1ea3;" horiz-adv-x="674" 
d="M263 602v112q60 -14 88 8q20 16 -2 30q-38 23 -150 5l-2 32q124 32 202 -21q52 -36 48 -84q-4 -51 -70 -72q-46 -15 -114 -10zM344 550q126 0 216 -41t90 -99v-407h-272v13q-46 -13 -91 -13q-110 0 -188.5 63.5t-78.5 153.5q0 53 21 92.5t57 61t77 31.5t87 10
q62 0 115 -15v31q0 28 -70 28q-36 0 -87 -7t-97 -15.5t-47 -8.5l2 104q24 4 129.5 11t136.5 7zM377 276v82q-26 6 -58 6q-46 0 -78.5 -12t-32.5 -39q0 -15 17.5 -25t40.5 -13.5t51 -3.5q40 0 60 5z" />
    <glyph glyph-name="uni1EA4" unicode="&#x1ea4;" horiz-adv-x="736" 
d="M631 957h155l-129 -138h-86zM175 819l133 137h116l133 -137h-128l-63 55l-63 -55h-128zM360 202l-40 166l-41 -166h81zM248 73l-18 -73h-211l195 802h308l195 -802h-309l-17 73h-143z" />
    <glyph glyph-name="uni1EA5" unicode="&#x1ea5;" horiz-adv-x="674" 
d="M340 802h163l-101 -107h-103zM164 565l133 105h116l133 -105h-128l-63 44l-63 -44h-128zM344 550q126 0 216 -41t90 -99v-407h-272v13q-46 -13 -91 -13q-110 0 -188.5 63.5t-78.5 153.5q0 53 21 92.5t57 61t77 31.5t87 10q62 0 115 -15v31q0 28 -70 28q-36 0 -87 -7
t-97 -15.5t-47 -8.5l2 104q24 4 129.5 11t136.5 7zM377 276v82q-26 6 -58 6q-111 0 -111 -51q0 -42 109 -42q40 0 60 5z" />
    <glyph glyph-name="uni1EA6" unicode="&#x1ea6;" horiz-adv-x="736" 
d="M102 957l60 -138h-86l-129 138h155zM175 819l133 137h116l133 -137h-128l-63 55l-63 -55h-128zM360 202l-40 166l-41 -166h81zM248 73l-18 -73h-211l195 802h308l195 -802h-309l-17 73h-143z" />
    <glyph glyph-name="uni1EA7" unicode="&#x1ea7;" horiz-adv-x="674" 
d="M361 802l41 -107h-103l-101 107h163zM164 565l133 105h116l133 -105h-128l-63 44l-63 -44h-128zM344 550q126 0 216 -41t90 -99v-407h-272v13q-46 -13 -91 -13q-110 0 -188.5 63.5t-78.5 153.5q0 53 21 92.5t57 61t77 31.5t87 10q62 0 115 -15v31q0 28 -70 28
q-36 0 -87 -7t-97 -15.5t-47 -8.5l2 104q24 4 129.5 11t136.5 7zM377 276v82q-26 6 -58 6q-111 0 -111 -51q0 -42 109 -42q40 0 60 5z" />
    <glyph glyph-name="uni1EA8" unicode="&#x1ea8;" horiz-adv-x="736" 
d="M543 803v91q62 -14 90 6q17 13 -6 23q-39 17 -148 0l-2 32q119 33 182 -16q42 -32 30 -75q-12 -47 -77 -59q-31 -6 -69 -2zM183 819l133 137q18 -5 37 -2.5t32 2.5l133 -137h-128l-44 55l-35 -55h-128zM360 202l-40 166l-41 -166h81zM248 73l-18 -73h-211l195 802h308
l195 -802h-309l-17 73h-143z" />
    <glyph glyph-name="uni1EA9" unicode="&#x1ea9;" horiz-adv-x="674" 
d="M281 674v70q62 -14 90 3q17 11 -4 20q-39 16 -150 -2l-2 23q130 33 208 -6q48 -23 41 -56q-7 -38 -83 -50q-43 -7 -100 -2zM164 565l133 96h116l133 -96h-128l-63 44l-63 -44h-128zM344 550q126 0 216 -41t90 -99v-407h-272v13q-46 -13 -91 -13q-110 0 -188.5 63.5
t-78.5 153.5q0 53 21 92.5t57 61t77 31.5t87 10q62 0 115 -15v31q0 28 -70 28q-36 0 -87 -7t-97 -15.5t-47 -8.5l2 104q24 4 129.5 11t136.5 7zM377 276v82q-26 6 -58 6q-46 0 -78.5 -12t-32.5 -39q0 -15 17.5 -25t40.5 -13.5t51 -3.5q40 0 60 5z" />
    <glyph glyph-name="uni1EAA" unicode="&#x1eaa;" horiz-adv-x="736" 
d="M212 927l-7 1q0 41 15 53.5t46 12.5q25 0 79 -14.5t71 -14.5h4.5h5t4.5 0.5t4 1t3 2t3 3t2 4t1.5 6.5t0.5 8h104q-17 -74 -83 -74q-27 0 -76 19.5t-62 19.5q-21 0 -21 -27zM175 819l133 97q24 -1 60.5 0t55.5 0l133 -97h-128l-63 37l-63 -37h-128zM360 202l-40 166
l-41 -166h81zM248 73l-18 -73h-211l195 802h308l195 -802h-309l-17 73h-143z" />
    <glyph glyph-name="uni1EAB" unicode="&#x1eab;" horiz-adv-x="674" 
d="M164 565l133 105h116l133 -105h-128l-63 44l-63 -44h-128zM165 705v10q0 49 18.5 68t51.5 19q30 0 93 -28.5t82 -28.5q14 0 23 18.5t10 37.5h117q-12 -53 -36.5 -81.5t-54.5 -28.5q-32 0 -89.5 27.5t-72.5 27.5q-11 0 -18 -11.5t-7 -29.5h-117zM344 550q126 0 216 -41
t90 -99v-407h-272v13q-46 -13 -91 -13q-110 0 -188.5 63.5t-78.5 153.5q0 53 21 92.5t57 61t77 31.5t87 10q62 0 115 -15v31q0 28 -70 28q-36 0 -87 -7t-97 -15.5t-47 -8.5l2 104q24 4 129.5 11t136.5 7zM377 276v82q-26 6 -58 6q-111 0 -111 -51q0 -42 109 -42q40 0 60 5z
" />
    <glyph glyph-name="uni1EAC" unicode="&#x1eac;" horiz-adv-x="736" 
d="M159 819l133 137h116l133 -137h-128l-63 55l-63 -55h-128zM324 -39q31 0 53 -18.5t22 -44.5t-22 -44.5t-53 -18.5t-52.5 18.5t-21.5 44.5t21.5 44.5t52.5 18.5zM360 202l-40 166l-41 -166h81zM248 73l-18 -73h-211l195 802h308l195 -802h-309l-17 73h-143z" />
    <glyph glyph-name="uni1EAD" unicode="&#x1ead;" horiz-adv-x="674" 
d="M171 619l133 181h116l133 -181h-128l-63 99l-63 -99h-128zM324 -39q31 0 53 -18.5t22 -44.5t-22 -44.5t-53 -18.5t-52.5 18.5t-21.5 44.5t21.5 44.5t52.5 18.5zM344 550q126 0 216 -41t90 -99v-407h-272v13q-46 -13 -91 -13q-110 0 -188.5 63.5t-78.5 153.5q0 53 21 92.5
t57 61t77 31.5t87 10q62 0 115 -15v31q0 28 -70 28q-36 0 -87 -7t-97 -15.5t-47 -8.5l2 104q24 4 129.5 11t136.5 7zM377 276v82q-26 6 -58 6q-111 0 -111 -51q0 -42 109 -42q40 0 60 5z" />
    <glyph glyph-name="uni1EAE" unicode="&#x1eae;" horiz-adv-x="736" 
d="M363 969h119l-105 -108h-74zM583 909h-2q-1 -28 -31 -49.5t-72 -31t-74 -13.5t-51 -4q-27 0 -59 4t-70.5 13.5t-63.5 31t-26 50.5h107q1 -23 16 -39t36.5 -22t37 -8.5t28.5 -2.5q12 0 27.5 2.5t37.5 9t37 22t15 37.5h107zM360 202l-40 166l-41 -166h81zM248 73l-18 -73
h-211l195 802h308l195 -802h-309l-17 73h-143z" />
    <glyph glyph-name="uni1EAF" unicode="&#x1eaf;" horiz-adv-x="674" 
d="M340 802h163l-101 -107h-103zM583 678h-2q-1 -28 -31.5 -51t-71.5 -34.5t-74 -17t-51 -5.5q-25 0 -59 5.5t-71 17t-62.5 34.5t-26.5 52h107q2 -30 26.5 -50t47 -26t39.5 -6q15 0 40.5 6t53.5 26t28 49h107zM344 550q126 0 216 -41t90 -99v-407h-272v13q-46 -13 -91 -13
q-110 0 -188.5 63.5t-78.5 153.5q0 53 21 92.5t57 61t77 31.5t87 10q62 0 115 -15v31q0 28 -70 28q-36 0 -87 -7t-97 -15.5t-47 -8.5l2 104q24 4 129.5 11t136.5 7zM377 276v82q-26 6 -58 6q-111 0 -111 -51q0 -42 109 -42q40 0 60 5z" />
    <glyph glyph-name="uni1EB0" unicode="&#x1eb0;" horiz-adv-x="736" 
d="M340 969l60 -108h-74l-105 108h119zM583 909h-2q-1 -28 -31 -49.5t-72 -31t-74 -13.5t-51 -4q-27 0 -59 4t-70.5 13.5t-63.5 31t-26 50.5h107q1 -23 16 -39t36.5 -22t37 -8.5t28.5 -2.5q12 0 27.5 2.5t37.5 9t37 22t15 37.5h107zM360 202l-40 166l-41 -166h81zM248 73
l-18 -73h-211l195 802h308l195 -802h-309l-17 73h-143z" />
    <glyph glyph-name="uni1EB1" unicode="&#x1eb1;" horiz-adv-x="674" 
d="M375 802l41 -107h-103l-101 107h163zM583 678h-2q-1 -28 -31.5 -51t-71.5 -34.5t-74 -17t-51 -5.5q-25 0 -59 5.5t-71 17t-62.5 34.5t-26.5 52h107q2 -30 26.5 -50t47 -26t39.5 -6q15 0 40.5 6t53.5 26t28 49h107zM344 550q126 0 216 -41t90 -99v-407h-272v13
q-46 -13 -91 -13q-110 0 -188.5 63.5t-78.5 153.5q0 53 21 92.5t57 61t77 31.5t87 10q62 0 115 -15v31q0 28 -70 28q-36 0 -87 -7t-97 -15.5t-47 -8.5l2 104q24 4 129.5 11t136.5 7zM377 276v82q-26 6 -58 6q-111 0 -111 -51q0 -42 109 -42q40 0 60 5z" />
    <glyph glyph-name="uni1EB2" unicode="&#x1eb2;" horiz-adv-x="736" 
d="M281 864v59q62 -14 90 3q17 10 -4 18q-39 16 -150 -2l-2 32q131 33 209 -5q47 -23 40 -55q-7 -37 -85 -49q-42 -6 -98 -1zM596 909h-15q-1 -28 -31 -49.5t-72 -31t-74 -13.5t-51 -4q-28 0 -62.5 4t-77 13.5t-71 31t-29.5 50.5h107q1 -19 14 -33t29.5 -21t37.5 -11.5
t34.5 -5.5t23.5 -1q12 0 29.5 2.5t42 9t41.5 22t17 37.5h107zM360 202l-40 166l-41 -166h81zM248 73l-18 -73h-211l195 802h308l195 -802h-309l-17 73h-143z" />
    <glyph glyph-name="uni1EB3" unicode="&#x1eb3;" horiz-adv-x="674" 
d="M583 663h-2q-1 -28 -31 -48.5t-72.5 -29t-73 -12t-51.5 -3.5q-29 0 -59.5 3t-69.5 12t-64 29.5t-26 49.5h107q4 -67 113 -67q14 0 28.5 1.5t38.5 7t39.5 20.5t15.5 37h107zM281 674v70q62 -14 90 3q17 11 -4 20q-39 16 -150 -2l-2 23q130 33 208 -6q48 -23 41 -56
q-7 -38 -83 -50q-43 -7 -100 -2zM344 550q126 0 216 -41t90 -99v-407h-272v13q-46 -13 -91 -13q-110 0 -188.5 63.5t-78.5 153.5q0 53 21 92.5t57 61t77 31.5t87 10q62 0 115 -15v31q0 28 -70 28q-36 0 -87 -7t-97 -15.5t-47 -8.5l2 104q24 4 129.5 11t136.5 7zM377 276v82
q-26 6 -58 6q-46 0 -78.5 -12t-32.5 -39q0 -15 17.5 -25t40.5 -13.5t51 -3.5q40 0 60 5z" />
    <glyph glyph-name="uni1EB4" unicode="&#x1eb4;" horiz-adv-x="736" 
d="M212 927l-7 1q0 41 14.5 51.5t46.5 10.5q25 0 79 -18t71 -18q13 0 20 6.5t8 25.5h104q-10 -42 -31 -56t-52 -14q-27 0 -76 19.5t-62 19.5q-21 0 -21 -27zM583 909h-2q-1 -28 -31 -49.5t-72 -31t-74 -13.5t-51 -4q-21 0 -45.5 2t-56 8.5t-56.5 17t-42.5 29t-18.5 42.5h107
q1 -23 16 -39t36.5 -22t37 -8.5t28.5 -2.5q12 0 27.5 2.5t37.5 9t37 22t15 37.5h107zM360 202l-40 166l-41 -166h81zM248 73l-18 -73h-211l195 802h308l195 -802h-309l-17 73h-143z" />
    <glyph glyph-name="uni1EB5" unicode="&#x1eb5;" horiz-adv-x="674" 
d="M165 705v10q0 49 18.5 68t51.5 19q30 0 93 -28t82 -28q9 0 16.5 9.5t12 21.5t4.5 24h117q-12 -53 -36.5 -81.5t-54.5 -28.5q-32 0 -89.5 27.5t-72.5 27.5q-11 0 -18 -11.5t-7 -29.5h-117zM583 668h-2q-1 -28 -31 -49.5t-72 -31t-74 -13.5t-51 -4q-27 0 -59 4t-70.5 13.5
t-63.5 31t-26 50.5h107q1 -23 16 -39t36.5 -22t37 -8.5t28.5 -2.5q12 0 27.5 2.5t37.5 9t37 22t15 37.5h107zM344 550q126 0 216 -41t90 -99v-407h-272v13q-46 -13 -91 -13q-110 0 -188.5 63.5t-78.5 153.5q0 53 21 92.5t57 61t77 31.5t87 10q62 0 115 -15v31q0 28 -70 28
q-36 0 -87 -7t-97 -15.5t-47 -8.5l2 104q24 4 129.5 11t136.5 7zM377 276v82q-26 6 -58 6q-111 0 -111 -51q0 -42 109 -42q40 0 60 5z" />
    <glyph glyph-name="uni1EB6" unicode="&#x1eb6;" horiz-adv-x="736" 
d="M583 909h-2q-1 -28 -31 -49.5t-72 -31t-74 -13.5t-51 -4q-27 0 -59 4t-70.5 13.5t-63.5 31t-26 50.5h107q1 -23 16 -39t36.5 -22t37 -8.5t28.5 -2.5q12 0 27.5 2.5t37.5 9t37 22t15 37.5h107zM324 -39q31 0 53 -18.5t22 -44.5t-22 -44.5t-53 -18.5t-52.5 18.5t-21.5 44.5
t21.5 44.5t52.5 18.5zM360 202l-40 166l-41 -166h81zM248 73l-18 -73h-211l195 802h308l195 -802h-309l-17 73h-143z" />
    <glyph glyph-name="uni1EB7" unicode="&#x1eb7;" horiz-adv-x="674" 
d="M583 668h-2q-1 -28 -31 -49.5t-72 -31t-74 -13.5t-51 -4q-27 0 -59 4t-70.5 13.5t-63.5 31t-26 50.5h107q1 -23 16 -39t36.5 -22t37 -8.5t28.5 -2.5q12 0 27.5 2.5t37.5 9t37 22t15 37.5h107zM324 -39q31 0 53 -18.5t22 -44.5t-22 -44.5t-53 -18.5t-52.5 18.5t-21.5 44.5
t21.5 44.5t52.5 18.5zM344 550q126 0 216 -41t90 -99v-407h-272v13q-46 -13 -91 -13q-110 0 -188.5 63.5t-78.5 153.5q0 53 21 92.5t57 61t77 31.5t87 10q62 0 115 -15v31q0 28 -70 28q-36 0 -87 -7t-97 -15.5t-47 -8.5l2 104q24 4 129.5 11t136.5 7zM377 276v82
q-26 6 -58 6q-111 0 -111 -51q0 -42 109 -42q40 0 60 5z" />
    <glyph glyph-name="uni1EB8" unicode="&#x1eb8;" horiz-adv-x="742" 
d="M25 0v800h690v-189h-386v-44h386v-189h-386v-79h386v-299h-690zM375 -39q31 0 53 -18.5t22 -44.5t-22 -44.5t-53 -18.5t-52.5 18.5t-21.5 44.5t21.5 44.5t52.5 18.5z" />
    <glyph glyph-name="uni1EB9" unicode="&#x1eb9;" horiz-adv-x="630" 
d="M322 -39q31 0 53 -18.5t22 -44.5t-22 -44.5t-53 -18.5t-52.5 18.5t-21.5 44.5t21.5 44.5t52.5 18.5zM320 550q106 0 187 -61t104 -154h-424q1 -45 53 -68.5t132 -23.5q121 0 229 46l1 -254q-136 -34 -245 -34q-153 0 -244.5 66t-91.5 207q0 114 87.5 195t211.5 81z
M394 422q-38 49 -101 49q-64 0 -98 -49h199z" />
    <glyph glyph-name="uni1EBA" unicode="&#x1eba;" horiz-adv-x="739" 
d="M25 0v800h690v-189h-386v-44h386v-189h-386v-79h386v-299h-690zM305 812v81q62 -14 90 6q17 13 -6 23q-40 17 -148 0l-2 32q128 33 206 -12q49 -28 44 -67q-7 -42 -76 -58q-45 -10 -108 -5z" />
    <glyph glyph-name="uni1EBB" unicode="&#x1ebb;" horiz-adv-x="630" 
d="M248 602v112q60 -14 88 8q20 16 -2 30q-38 23 -150 5l-2 32q124 32 202 -21q52 -36 48 -84q-4 -51 -70 -72q-46 -15 -114 -10zM320 550q106 0 187 -61t104 -154h-424q1 -45 53 -68.5t132 -23.5q121 0 229 46l1 -254q-136 -34 -245 -34q-58 0 -108 9t-92.5 30t-72 52.5
t-46.5 77.5t-17 104q0 114 87.5 195t211.5 81zM394 422q-38 49 -101 49q-64 0 -98 -49h199z" />
    <glyph glyph-name="uni1EBC" unicode="&#x1ebc;" horiz-adv-x="742" 
d="M25 0v800h690v-189h-386v-44h386v-189h-386v-79h386v-299h-690zM97 842l-1 1q1 129 101 129q42 0 132 -29t118 -29q44 0 47 43h167q-31 -134 -131 -134q-46 0 -128 32.5t-103 32.5q-35 0 -35 -45z" />
    <glyph glyph-name="uni1EBD" unicode="&#x1ebd;" horiz-adv-x="630" 
d="M49 637l-1 1q9 161 131 161q39 0 118.5 -37.5t104.5 -37.5q21 0 35.5 23.5t16.5 52.5h158q-1 -45 -14 -78.5t-34 -51t-43 -25.5t-45 -8q-40 0 -114.5 42t-104.5 42q-23 0 -38.5 -23t-18.5 -60zM320 550q106 0 187 -61t104 -154h-424q1 -45 53 -68.5t132 -23.5
q121 0 229 46l1 -254q-136 -34 -245 -34q-153 0 -244.5 66t-91.5 207q0 114 87.5 195t211.5 81zM394 422q-38 49 -101 49q-64 0 -98 -49h199z" />
    <glyph glyph-name="uni1EBE" unicode="&#x1ebe;" horiz-adv-x="740" 
d="M25 0v800h690v-189h-386v-44h386v-189h-386v-79h386v-299h-690zM551 957h155l-129 -138h-86zM95 819l133 137h116l133 -137h-128l-63 55l-63 -55h-128z" />
    <glyph glyph-name="uni1EBF" unicode="&#x1ebf;" horiz-adv-x="630" 
d="M340 802h163l-101 -107h-103zM164 565l133 105h116l133 -105h-128l-63 44l-63 -44h-128zM320 550q106 0 187 -61t104 -154h-424q1 -45 53 -68.5t132 -23.5q121 0 229 46l1 -254q-136 -34 -245 -34q-153 0 -244.5 66t-91.5 207q0 114 87.5 195t211.5 81zM394 422
q-38 49 -101 49q-64 0 -98 -49h199z" />
    <glyph glyph-name="uni1EC0" unicode="&#x1ec0;" horiz-adv-x="743" 
d="M25 0v800h690v-189h-386v-44h386v-189h-386v-79h386v-299h-690zM186 957l60 -138h-86l-129 138h155zM268 819l133 137h116l133 -137h-128l-63 55l-63 -55h-128z" />
    <glyph glyph-name="uni1EC1" unicode="&#x1ec1;" horiz-adv-x="630" 
d="M314 802l41 -107h-103l-101 107h163zM117 565l133 105h116l133 -105h-128l-63 44l-63 -44h-128zM320 550q106 0 187 -61t104 -154h-424q1 -45 53 -68.5t132 -23.5q121 0 229 46l1 -254q-136 -34 -245 -34q-153 0 -244.5 66t-91.5 207q0 114 87.5 195t211.5 81zM394 422
q-38 49 -101 49q-64 0 -98 -49h199z" />
    <glyph glyph-name="uni1EC2" unicode="&#x1ec2;" horiz-adv-x="739" 
d="M25 0v800h690v-189h-386v-44h386v-189h-386v-79h386v-299h-690zM494 816v78q62 -14 90 6q17 13 -6 23q-39 17 -148 0l-2 32q120 33 183 -13q41 -30 29 -70q-13 -44 -80 -55q-29 -5 -66 -1zM134 819l133 137q18 -5 37 -2.5t32 2.5l133 -137h-128l-44 55l-35 -55h-128z" />
    <glyph glyph-name="uni1EC3" unicode="&#x1ec3;" horiz-adv-x="630" 
d="M236 674v70q62 -14 90 3q17 11 -4 20q-39 16 -150 -2l-2 23q130 33 208 -6q48 -23 41 -56q-7 -38 -83 -50q-43 -7 -100 -2zM119 565l133 96h116l133 -96h-128l-63 44l-63 -44h-128zM320 550q106 0 187 -61t104 -154h-424q1 -45 53 -68.5t132 -23.5q121 0 229 46l1 -254
q-136 -34 -245 -34q-58 0 -108 9t-92.5 30t-72 52.5t-46.5 77.5t-17 104q0 114 87.5 195t211.5 81zM394 422q-38 49 -101 49q-64 0 -98 -49h199z" />
    <glyph glyph-name="uni1EC4" unicode="&#x1ec4;" horiz-adv-x="740" 
d="M25 0v800h690v-189h-386v-44h386v-189h-386v-79h386v-299h-690zM212 927l-7 1q0 41 15 53.5t46 12.5q25 0 79 -14.5t71 -14.5h4.5h5t4.5 0.5t4 1t3 2t3 3t2 4t1.5 6.5t0.5 8h104q-17 -74 -83 -74q-27 0 -76 19.5t-62 19.5q-21 0 -21 -27zM175 819l133 97q24 -1 60.5 0
t55.5 0l133 -97h-128l-63 37l-63 -37h-128z" />
    <glyph glyph-name="uni1EC5" unicode="&#x1ec5;" horiz-adv-x="630" 
d="M116 565l133 105h116l133 -105h-128l-63 44l-63 -44h-128zM117 705v10q0 49 18.5 68t51.5 19q30 0 93 -28.5t82 -28.5q14 0 23 18.5t10 37.5h117q-12 -53 -36.5 -81.5t-54.5 -28.5q-32 0 -89.5 27.5t-72.5 27.5q-11 0 -18 -11.5t-7 -29.5h-117zM320 550q106 0 187 -61
t104 -154h-424q1 -45 53 -68.5t132 -23.5q121 0 229 46l1 -254q-136 -34 -245 -34q-153 0 -244.5 66t-91.5 207q0 114 87.5 195t211.5 81zM394 422q-38 49 -101 49q-64 0 -98 -49h199z" />
    <glyph glyph-name="uni1EC6" unicode="&#x1ec6;" horiz-adv-x="740" 
d="M25 0v800h690v-189h-386v-44h386v-189h-386v-79h386v-299h-690zM192 819l133 137h116l133 -137h-128l-63 55l-63 -55h-128zM375 -39q31 0 53 -18.5t22 -44.5t-22 -44.5t-53 -18.5t-52.5 18.5t-21.5 44.5t21.5 44.5t52.5 18.5z" />
    <glyph glyph-name="uni1EC7" unicode="&#x1ec7;" horiz-adv-x="630" 
d="M109 620l133 181h116l133 -181h-128l-63 99l-63 -99h-128zM324 -39q31 0 53 -18.5t22 -44.5t-22 -44.5t-53 -18.5t-52.5 18.5t-21.5 44.5t21.5 44.5t52.5 18.5zM320 550q106 0 187 -61t104 -154h-424q1 -45 53 -68.5t132 -23.5q121 0 229 46l1 -254q-136 -34 -245 -34
q-153 0 -244.5 66t-91.5 207q0 114 87.5 195t211.5 81zM394 422q-38 49 -101 49q-64 0 -98 -49h199z" />
    <glyph glyph-name="uni1EC8" unicode="&#x1ec8;" horiz-adv-x="354" 
d="M108 812v81q62 -14 90 6q17 13 -6 23q-39 17 -148 0l-2 32q128 33 206 -12q49 -28 44 -67q-7 -42 -76 -58q-45 -10 -108 -5zM25 0v800h304v-800h-304z" />
    <glyph glyph-name="uni1EC9" unicode="&#x1ec9;" horiz-adv-x="323" 
d="M91 602v112q60 -14 88 8q20 16 -2 30q-38 23 -150 5l-2 32q124 32 202 -21q52 -36 48 -84q-4 -51 -70 -72q-46 -15 -114 -10zM25 550h274v-553h-274v553z" />
    <glyph glyph-name="uni1ECA" unicode="&#x1eca;" horiz-adv-x="354" 
d="M178 -39q31 0 53 -18.5t22 -44.5t-22 -44.5t-53 -18.5t-52.5 18.5t-21.5 44.5t21.5 44.5t52.5 18.5zM25 0v800h304v-800h-304z" />
    <glyph glyph-name="uni1ECB" unicode="&#x1ecb;" horiz-adv-x="323" 
d="M165 -39q31 0 53 -18.5t22 -44.5t-22 -44.5t-53 -18.5t-52.5 18.5t-21.5 44.5t21.5 44.5t52.5 18.5zM162 749q57 0 97 -23t40 -55t-40 -55t-97 -23t-97 23t-40 55t40 55t97 23zM25 550h274v-553h-274v553z" />
    <glyph glyph-name="uni1ECC" unicode="&#x1ecc;" horiz-adv-x="914" 
d="M459 -39q31 0 53 -18.5t22 -44.5t-22 -44.5t-53 -18.5t-52.5 18.5t-21.5 44.5t21.5 44.5t52.5 18.5zM468 567q-52 0 -89 -39t-37 -95t37 -95t89 -39q53 0 90 39.5t37 94.5t-37 94.5t-90 39.5zM466 800q177 0 302.5 -117t125.5 -283t-125.5 -283t-302.5 -117t-302 117
t-125 283t125 283t302 117z" />
    <glyph glyph-name="uni1ECD" unicode="&#x1ecd;" horiz-adv-x="624" 
d="M311 -39q31 0 53 -18.5t22 -44.5t-22 -44.5t-53 -18.5t-52.5 18.5t-21.5 44.5t21.5 44.5t52.5 18.5zM311 453q-36 0 -61.5 -27t-25.5 -65t25.5 -65.5t61.5 -27.5t61.5 27.5t25.5 65.5t-25.5 65t-61.5 27zM311 550q122 0 208 -80.5t86 -194.5t-86 -195t-208 -81t-208.5 81
t-86.5 195t86.5 194.5t208.5 80.5z" />
    <glyph glyph-name="uni1ECE" unicode="&#x1ece;" horiz-adv-x="914" 
d="M398 812v81q62 -14 90 6q17 13 -6 23q-39 17 -148 0l-2 32q128 33 206 -12q49 -28 44 -67q-7 -42 -76 -58q-45 -10 -108 -5zM468 567q-34 0 -63 -18t-46 -49t-17 -67q0 -56 37 -95t89.5 -39t89.5 39.5t37 94.5t-37 94.5t-90 39.5zM466 800q87 0 166 -31.5t136.5 -85
t91.5 -128t34 -155.5q0 -109 -57.5 -201t-156 -145.5t-214.5 -53.5q-87 0 -166 31.5t-136 85t-91 128t-34 155.5q0 109 57 201t155.5 145.5t214.5 53.5z" />
    <glyph glyph-name="uni1ECF" unicode="&#x1ecf;" horiz-adv-x="624" 
d="M257 602v112q60 -14 88 8q20 16 -2 30q-38 23 -150 5l-2 32q124 32 202 -21q52 -36 48 -84q-4 -51 -70 -72q-46 -15 -114 -10zM311 453q-36 0 -61.5 -27t-25.5 -65q0 -25 11.5 -46.5t31.5 -34t44 -12.5q36 0 61.5 27.5t25.5 65.5q0 25 -11.5 46t-31.5 33.5t-44 12.5z
M311 550q122 0 208 -80.5t86 -194.5t-86 -195t-208 -81t-208.5 81t-86.5 195t86.5 194.5t208.5 80.5z" />
    <glyph glyph-name="uni1ED0" unicode="&#x1ed0;" horiz-adv-x="914" 
d="M726 957h155l-129 -138h-86zM270 819l133 137h116l133 -137h-128l-63 55l-63 -55h-128zM468 567q-52 0 -89 -39t-37 -95t37 -95t89 -39q53 0 90 39.5t37 94.5t-37 94.5t-90 39.5zM466 800q177 0 302.5 -117t125.5 -283t-125.5 -283t-302.5 -117t-302 117t-125 283
t125 283t302 117z" />
    <glyph glyph-name="uni1ED1" unicode="&#x1ed1;" horiz-adv-x="624" 
d="M295 802h163l-101 -107h-103zM119 565l133 105h116l133 -105h-128l-63 44l-63 -44h-128zM311 453q-36 0 -61.5 -27t-25.5 -65t25.5 -65.5t61.5 -27.5t61.5 27.5t25.5 65.5t-25.5 65t-61.5 27zM311 550q122 0 208 -80.5t86 -194.5t-86 -195t-208 -81t-208.5 81t-86.5 195
t86.5 194.5t208.5 80.5z" />
    <glyph glyph-name="uni1ED2" unicode="&#x1ed2;" horiz-adv-x="914" 
d="M191 957l60 -138h-86l-129 138h155zM273 819l133 137h116l133 -137h-128l-63 55l-63 -55h-128zM468 567q-52 0 -89 -39t-37 -95t37 -95t89 -39q53 0 90 39.5t37 94.5t-37 94.5t-90 39.5zM466 800q177 0 302.5 -117t125.5 -283t-125.5 -283t-302.5 -117t-302 117t-125 283
t125 283t302 117z" />
    <glyph glyph-name="uni1ED3" unicode="&#x1ed3;" horiz-adv-x="624" 
d="M314 802l41 -107h-103l-101 107h163zM117 565l133 105h116l133 -105h-128l-63 44l-63 -44h-128zM311 453q-36 0 -61.5 -27t-25.5 -65t25.5 -65.5t61.5 -27.5t61.5 27.5t25.5 65.5t-25.5 65t-61.5 27zM311 550q122 0 208 -80.5t86 -194.5t-86 -195t-208 -81t-208.5 81
t-86.5 195t86.5 194.5t208.5 80.5z" />
    </font>
</defs>
</svg>
