<svg xmlns="http://www.w3.org/2000/svg" viewBox="0 0 133.24 200.04"><defs><style>.cls-1{fill:#ffc31a;}.cls-2{fill:#221e1f;}.cls-3{fill:#403f41;}.cls-4{fill:#ffcd55;}</style></defs><title>Ресурс 1</title><g id="Слой_2" data-name="Слой 2"><g id="Слой_1-2" data-name="Слой 1"><path class="cls-1" d="M7.5,186.65a4.21,4.21,0,0,1-1.63,3.66,1.56,1.56,0,0,1,1.3.92,5.13,5.13,0,0,1,.37,2v1.41a2.41,2.41,0,0,0,.07.7.4.4,0,0,0,.22.29.61.61,0,0,0,.36,0l.51-.13.13,0,0,2.28-1,.26A2.1,2.1,0,0,1,6,197.9a1.74,1.74,0,0,1-.69-1.5v-2.61c0-.75-.18-1.23-.51-1.45a1.7,1.7,0,0,0-1.36-.1l-.86.22,0,6.93L0,200V184l2.48-.61,0,6.76,1-.25a2.64,2.64,0,0,0,1.22-.68,1.93,1.93,0,0,0,.51-1.45l0-2.73a2.85,2.85,0,0,1,.67-1.85,3.23,3.23,0,0,1,1.83-1.09l1-.27,0,2.28-.11,0-.51.13a.71.71,0,0,0-.36.2.82.82,0,0,0-.22.39,3.47,3.47,0,0,0-.06.74Z"/><path class="cls-1" d="M13.71,180.61a3.26,3.26,0,0,1,2.82.19,3.11,3.11,0,0,1,.89,2.53v.56a5.34,5.34,0,0,1-.37,2.13,3.49,3.49,0,0,1-1.21,1.49,1.79,1.79,0,0,1,1.44.9,4.24,4.24,0,0,1,.43,2v1.3a4.76,4.76,0,0,1-.93,3.05A5,5,0,0,1,14,196.49l-3.92,1L10,181.58Zm-1.25,2.6,0,4.21,1-.25a2,2,0,0,0,1.1-.65,2.17,2.17,0,0,0,.39-1.42v-.88a1.72,1.72,0,0,0-.31-1.18,1,1,0,0,0-1-.14Zm0,6.49,0,4.89,1.42-.37a1.74,1.74,0,0,0,1-.59,2.13,2.13,0,0,0,.32-1.31v-1.39a1.91,1.91,0,0,0-.38-1.43,1.38,1.38,0,0,0-1.24-.09Z"/><polygon class="cls-1" points="20.7 194.8 18.9 195.25 18.8 179.41 21.02 178.84 21.08 188.31 24.89 177.85 26.7 177.39 26.8 193.25 24.55 193.82 24.5 184.81 20.7 194.8"/><path class="cls-1" d="M32.85,179.73c0-.7-.12-1.15-.36-1.33a1,1,0,0,0-.94-.13,1.74,1.74,0,0,0-.94.58,2,2,0,0,0-.34,1.28v1.68l-2.35.6v-1.52a5.1,5.1,0,0,1,.92-3.16A4.73,4.73,0,0,1,31.6,176a3,3,0,0,1,2.78.32,3.34,3.34,0,0,1,1,2.68v.4a4,4,0,0,1-1.72,3.66A1.8,1.8,0,0,1,35,184a4.06,4.06,0,0,1,.41,1.95v1.23a5.1,5.1,0,0,1-.92,3.16A4.76,4.76,0,0,1,31.7,192a3,3,0,0,1-2.77-.31A3.35,3.35,0,0,1,28,189v-2l2.35-.6v2.13a1.39,1.39,0,0,0,.36,1.11,1.09,1.09,0,0,0,.94.1,1.61,1.61,0,0,0,.94-.59,2.44,2.44,0,0,0,.34-1.5v-1.23A1.94,1.94,0,0,0,32.5,185a1.33,1.33,0,0,0-1.25-.14l-.38.1,0-2.24.52-.13a1.79,1.79,0,0,0,1.49-2Z"/><polygon class="cls-2" points="0 123.42 7.42 121.54 7.42 176.13 0 177.98 0 123.42"/><path class="cls-2" d="M11.75,132a14.86,14.86,0,0,1,2.84-9.32,14.24,14.24,0,0,1,8.18-5q5.34-1.33,8.18,1t2.84,7.91V158a15.66,15.66,0,0,1-1.39,6.81c.18.4.41.61.7.65a4.09,4.09,0,0,0,1.35-.17l.94-.25v6.46l-1.27.34a7.91,7.91,0,0,1-4,.17,3.57,3.57,0,0,1-2.28-1.77,20.27,20.27,0,0,1-2.37,1.21,16.57,16.57,0,0,1-2.71.91q-5.34,1.33-8.18-1c-1.9-1.53-2.84-4.17-2.84-7.91ZM19,162.09c0,1.68.34,2.77,1,3.28a3.15,3.15,0,0,0,2.74.34A4.92,4.92,0,0,0,25.51,164a6,6,0,0,0,1-3.78V127.85q0-2.5-1-3.27a3.12,3.12,0,0,0-2.74-.34,4.9,4.9,0,0,0-2.74,1.7,6,6,0,0,0-1,3.79Z"/><path class="cls-2" d="M51.63,147.06q-.1-.34-.21-.63a4.22,4.22,0,0,1-.18-.74,8.4,8.4,0,0,1-.1-1.18q0-.73,0-1.83v-5.77c0-1.71-.3-2.84-.89-3.39a3,3,0,0,0-2.88-.33l-2,.5v14.95l-5.76,1.46V113.37l8.7-2.17c3-.74,5.18-.59,6.52.47s2,3,2,5.84v2.89q0,5.66-3.77,8.38a3.67,3.67,0,0,1,3,2.16,11.6,11.6,0,0,1,.81,4.7v5.66a22.62,22.62,0,0,0,.11,2.35,6.35,6.35,0,0,0,.52,1.94Zm-6.29-29.88v11.27l2.26-.57a4.76,4.76,0,0,0,2.54-1.47,4.93,4.93,0,0,0,.92-3.27v-3.61a3.9,3.9,0,0,0-.71-2.71,2.2,2.2,0,0,0-2.23-.33Z"/><path class="cls-2" d="M80.79,139.66,75,141.14l-1-6.44-7.07,1.77-1,7-5.29,1.34,5.88-38.23,8.44-2.11Zm-13.16-8.35,5.56-1.39-2.78-17.86Z"/><path class="cls-2" d="M55.94,169.78a4,4,0,0,0-3.23-2,8,8,0,0,0,2.75-3.34,11.89,11.89,0,0,0,.86-4.75V158.4a12.72,12.72,0,0,0-.21-2.43,5.21,5.21,0,0,0-1.75-3.23c-1.3-1-3.41-1.17-6.33-.42l-8.45,2.14V190.1l8.8-2.24a11.43,11.43,0,0,0,6.37-3.78,9.51,9.51,0,0,0,1.4-2.49,12.08,12.08,0,0,0,.73-4.34v-2.9a9.48,9.48,0,0,0-.94-4.57M45.18,158.13l2.69-.68a3.08,3.08,0,0,1,1.35-.09,1.42,1.42,0,0,1,.82.4,3.76,3.76,0,0,1,.68,2.63v2a4.75,4.75,0,0,1-.89,3.18A4.65,4.65,0,0,1,47.37,167l-2.19.56Zm6.1,17.28v3.11a4.77,4.77,0,0,1-.73,2.93,3.83,3.83,0,0,1-2.17,1.32l-3.2.81V172.64l2.49-.64a3.12,3.12,0,0,1,2.77.22c.56.46.84,1.53.84,3.19"/><polygon class="cls-2" points="64.88 178.58 64.88 148.04 59.28 149.46 59.28 185.09 74.09 181.33 74.09 176.24 64.88 178.58"/><path class="cls-2" d="M93.59,167.56,90.5,149l-1.2-7.21-8.2,2.08L80,151.16,76.48,174l-1.08,7,5.14-1.31,1-6.71,6.87-1.75,1,6.22L95,176Zm-8.67-18.3.14.88,2.56,16.45L82.22,168l2.57-17.77Z"/><path class="cls-2" d="M110.21,138.86c-1.41-1.18-3.49-1.43-6.24-.73a10.74,10.74,0,0,0-6.24,3.9,11.44,11.44,0,0,0-2.09,6.4c0,.25,0,.51,0,.78v17.66c0,2.88.71,4.92,2.11,6.1s3.49,1.43,6.24.74a10.77,10.77,0,0,0,6.24-3.88,11.69,11.69,0,0,0,2.11-7.15v-4.74l-5.3,1.35v5.09a4.56,4.56,0,0,1-.78,2.9,4,4,0,0,1-2.12,1.3,2.46,2.46,0,0,1-2.11-.23c-.53-.38-.79-1.21-.79-2.5V147.31a4.51,4.51,0,0,1,.79-2.8,3.81,3.81,0,0,1,2.11-1.33,2.45,2.45,0,0,1,2.12.25A3.11,3.11,0,0,1,107,146v3.81l5.3-1.34V145c0-2.89-.71-4.92-2.11-6.11"/><polygon class="cls-2" points="125.45 148.53 128.57 141.37 133.24 130.67 127.74 132.07 123.32 142.43 120.31 149.48 120.31 133.95 114.71 135.38 114.71 171.01 120.31 169.59 120.31 158.64 120.93 157.31 122.04 154.95 122.75 156.63 127.49 167.77 133.24 166.3 128.12 154.62 125.45 148.53"/><polygon class="cls-3" points="0 132.69 0 163.61 7.42 160.12 7.42 131.26 0 132.69"/><path class="cls-3" d="M11.81,130.42c0,.51-.06,1-.06,1.58v26.08L19,154.67V129.73c0-.24,0-.47,0-.7Zm14.71-2.83a2.26,2.26,0,0,1,0,.26v23.28l7.26-3.41V126.19Z"/><path class="cls-3" d="M56.06,130.94a3.67,3.67,0,0,0-3-2.16,9.15,9.15,0,0,0,3.71-7l-5.7,1.1v.27a4.93,4.93,0,0,1-.92,3.27,4.76,4.76,0,0,1-2.54,1.47l-2.26.57V124l-5.76,1.1V145l5.76-2.7v-8.6l2-.5a3,3,0,0,1,2.88.33c.59.55.89,1.68.89,3.4v2.65l5.76-2.71v-1.22a11.6,11.6,0,0,0-.81-4.7"/><path class="cls-3" d="M77.15,117.84l-5.67,1.1,1.6,10.3,5.54-2.61Zm-7.79,1.5-5,1-2.16,14,7.66-3.6-2.23.56Z"/><path class="cls-3" d="M55.94,169.78a4,4,0,0,0-3.23-2,8,8,0,0,0,2.75-3.34,11.89,11.89,0,0,0,.86-4.75V158.4c0-.29,0-.58,0-.85l-5.78,1.12a6,6,0,0,1,.2,1.72v2a4.75,4.75,0,0,1-.89,3.18A4.65,4.65,0,0,1,47.37,167l-2.19.56V159.7l-5.6,1.08V183l5.6-1.8v-8.55l2.49-.64a3.12,3.12,0,0,1,2.77.22c.56.46.84,1.53.84,3.19v3.11c0,.26,0,.5,0,.73l5.63-1.8v-3.1a9.48,9.48,0,0,0-.94-4.57"/><polygon class="cls-3" points="59.28 156.97 59.28 176.68 64.88 174.88 64.88 155.89 59.28 156.97"/><polygon class="cls-3" points="90.81 150.87 85.34 151.93 87.62 166.59 82.22 167.96 84.52 152.09 79.7 153.02 76.93 171.02 93.29 165.78 90.81 150.87"/><path class="cls-3" d="M107,159.29v2.09l5.3-1.69v-1.75Zm-11.4-9.35V165l5.6-1.8V148.85Zm11.4-2.21v2l5.3-1.34V146.7Z"/><polygon class="cls-3" points="125.45 148.53 127.53 143.76 122.32 144.77 120.31 149.48 120.31 145.16 114.71 146.24 114.71 158.92 121.14 156.86 122.04 154.95 122.64 156.38 128.12 154.63 128.12 154.62 125.45 148.53"/><path class="cls-2" d="M4.84,62.94A1.15,1.15,0,1,1,3.7,61.8a1.14,1.14,0,0,1,1.14,1.14"/><path class="cls-3" d="M73.11,60.31a2.62,2.62,0,0,0-2.62,2.63h0a2.63,2.63,0,1,0,5.25,0h0a2.63,2.63,0,0,0-2.63-2.63"/><path class="cls-2" d="M23.22,62.94a2.63,2.63,0,1,1-2.63-2.62,2.62,2.62,0,0,1,2.63,2.62"/><path class="cls-3" d="M36.35,56.7a2.63,2.63,0,1,1-2.63-2.63,2.63,2.63,0,0,1,2.63,2.63"/><path class="cls-3" d="M62.61,53.43A2.63,2.63,0,1,1,60,50.8a2.63,2.63,0,0,1,2.63,2.63"/><path class="cls-2" d="M29.79,76.48a2.63,2.63,0,1,0-2.63,2.63,2.63,2.63,0,0,0,2.63-2.63"/><path class="cls-2" d="M42.92,79.76a2.63,2.63,0,1,0-5.26,0h0a2.63,2.63,0,0,0,5.26,0Z"/><path class="cls-3" d="M53.42,83.7a2.63,2.63,0,1,0,2.63,2.62,2.62,2.62,0,0,0-2.63-2.62"/><path class="cls-2" d="M69.18,73.19a2.63,2.63,0,1,0-2.63,2.63,2.62,2.62,0,0,0,2.63-2.63Z"/><path class="cls-2" d="M49.48,59.66A2.63,2.63,0,1,1,46.85,57a2.63,2.63,0,0,1,2.63,2.63"/><path class="cls-2" d="M76.4,42.75l0,0V33A2.12,2.12,0,0,0,76.12,32a2.47,2.47,0,0,1,.28,1.11Z"/><path class="cls-2" d="M17.59,32A2.12,2.12,0,0,0,17.28,33v9.76l0,0V33.06A2.47,2.47,0,0,1,17.59,32"/><path class="cls-1" d="M46.85,36.09c14.51,0,26.34,2.79,29.55,6.66V33.06A2.47,2.47,0,0,0,76.12,32c-2-3.5-13.23-6.88-29.27-6.88S19.56,28.45,17.59,32a2.47,2.47,0,0,0-.28,1.11v9.69c3.21-3.87,15-6.66,29.54-6.66"/><path class="cls-2" d="M76.4,62.94Z"/><path class="cls-2" d="M91.65,28.59,49.3.73A4.41,4.41,0,0,0,47.38,0h-.06L47,0h-.37l-.3,0h-.06a4.41,4.41,0,0,0-1.92.69L2,28.59A4.5,4.5,0,0,0,.22,33.74l1.72-1.15L44.29,4.73a4.45,4.45,0,0,1,5.09,0L91.73,32.59l1.72,1.15a4.51,4.51,0,0,0-1.8-5.15"/><path class="cls-2" d="M49,5.39a3.9,3.9,0,0,0-1.18-.53,3.19,3.19,0,0,0-1.87,0,3.79,3.79,0,0,0-1.18.53L2.37,33.25.53,34.46a4.8,4.8,0,0,0,1.88,1.87l.51.27V59.32a3.7,3.7,0,1,0,1.55,0V37.41l11.94,6.24V33c0-4.83,12.88-8.64,29.49-8.77h1.87c16.61.13,29.49,3.94,29.49,8.77V43.65l14-7.32a4.8,4.8,0,0,0,1.88-1.87l-1.85-1.21ZM5.83,62.93A2.14,2.14,0,1,1,3.7,60.79a2.13,2.13,0,0,1,2.13,2.14"/><path class="cls-2" d="M46.85,36.91c-16.63,0-28.12,3.64-29.44,7.27a2.07,2.07,0,0,0-.1.33V62.26h.07a3.29,3.29,0,0,1,6.5.68h0V75.79H24a3.28,3.28,0,0,1,6.42,0h.07V56.71a3.29,3.29,0,1,1,6.57,0v22.4h.06a3.29,3.29,0,0,1,6.44,0h.06V59.66a3.29,3.29,0,0,1,6.57,0v26h.07a3.28,3.28,0,0,1,6.42,0h.07V53.42h0a3.29,3.29,0,0,1,6.57,0V72.51h.07a3.28,3.28,0,0,1,6.42,0h.07V62.94h0a3.28,3.28,0,0,1,6.49-.69h.08V44.51a2.47,2.47,0,0,0-.11-.36c-1.35-3.62-12.84-7.24-29.44-7.24"/><path class="cls-3" d="M40.24,96.07a.88.88,0,0,0,1.1-.14s0-.05.07,0l.3-.3s0,0,0-.06a3.06,3.06,0,0,0,.59-1.77,1.57,1.57,0,0,0-.71-1.38,1.31,1.31,0,0,1-.58-.77,1.26,1.26,0,0,0-.3-.48l-.43-.47a.56.56,0,0,1-.1-.74,1.42,1.42,0,0,1,.32-.41l.62-.51a1,1,0,0,0,.23-1.26,1.4,1.4,0,0,0-.26-.33l-.67-.68a.6.6,0,0,1-.08-.88l.21-.32.06-.05c-.07-.08-.07,0-.11,0v0l-.16.16-.07.07,0,0c0,.08-.09.13-.13.21a.84.84,0,0,0,.07.85,5.2,5.2,0,0,0,.48.65,1.48,1.48,0,0,1,.3.55.43.43,0,0,1-.2.49l-.51.28a2.17,2.17,0,0,0-.83.73,1.25,1.25,0,0,0,0,1.33,4.58,4.58,0,0,0,.5.74c.29.35.15.52-.1.73l-.07,0A1.53,1.53,0,0,0,39,93.91a3.48,3.48,0,0,0,.54,1.5s.06.07.05.12L40,96c.08,0,.13.07.2.1"/><path class="cls-2" d="M26.74,92a.88.88,0,0,0,1.1-.14s0,0,.07,0l.3-.3s0,0,0-.06a3,3,0,0,0,.59-1.77,1.57,1.57,0,0,0-.71-1.38,1.35,1.35,0,0,1-.58-.77,1.24,1.24,0,0,0-.29-.48l-.44-.47a.56.56,0,0,1-.09-.74,1.27,1.27,0,0,1,.32-.41l.62-.51a1,1,0,0,0,.23-1.26,1.4,1.4,0,0,0-.26-.33L27,82.7a.6.6,0,0,1-.08-.88l.21-.32.05,0c-.06-.08-.06,0-.1,0l0,0-.16.16-.07.07,0,0c0,.08-.1.13-.13.21a.86.86,0,0,0,.06.85,4.43,4.43,0,0,0,.49.65,1.43,1.43,0,0,1,.29.56.41.41,0,0,1-.2.48c-.16.1-.34.19-.51.28a2.24,2.24,0,0,0-.83.73,1.27,1.27,0,0,0,0,1.33,4.58,4.58,0,0,0,.5.74c.28.35.15.52-.1.73l-.07,0a1.53,1.53,0,0,0-.76,1.49,3.48,3.48,0,0,0,.54,1.5s.06.07.05.12l.44.44c.08,0,.13.07.2.1"/><path class="cls-3" d="M46.6,76.19a.91.91,0,0,0,1.1-.14s0-.06.07,0l.3-.3s0,0,0-.06a3,3,0,0,0,.59-1.77A1.57,1.57,0,0,0,48,72.5a1.32,1.32,0,0,1-.58-.77,1.32,1.32,0,0,0-.29-.48l-.44-.46a.57.57,0,0,1-.09-.75,1.27,1.27,0,0,1,.32-.41l.62-.51a1,1,0,0,0,.23-1.26,1.4,1.4,0,0,0-.26-.33l-.68-.68a.6.6,0,0,1-.07-.88l.21-.32L47,65.6c-.06-.07-.06,0-.1,0h0l-.16.16-.07.07,0,0a1.53,1.53,0,0,1-.14.21.89.89,0,0,0,.07.85,5.12,5.12,0,0,0,.49.66,1.39,1.39,0,0,1,.29.55.41.41,0,0,1-.2.48,5.05,5.05,0,0,1-.51.28,2.24,2.24,0,0,0-.83.73,1.27,1.27,0,0,0,0,1.33,4.58,4.58,0,0,0,.5.74c.28.36.15.52-.1.73l-.07,0A1.53,1.53,0,0,0,45.37,74a3.48,3.48,0,0,0,.54,1.5s.06.07.05.12l.44.44c.08,0,.13.07.2.11"/><path class="cls-2" d="M33.3,71.86a.88.88,0,0,0,1.1-.14s0,0,.07,0l.3-.3s0,0,0-.06a3.06,3.06,0,0,0,.59-1.77,1.57,1.57,0,0,0-.71-1.38,1.28,1.28,0,0,1-.58-.77,1.26,1.26,0,0,0-.3-.48c-.15-.15-.29-.31-.43-.47a.56.56,0,0,1-.1-.74,1.42,1.42,0,0,1,.32-.41l.62-.51a1,1,0,0,0,.23-1.26,1.4,1.4,0,0,0-.26-.33l-.67-.68a.6.6,0,0,1-.08-.88l.21-.32.06,0c-.06-.07-.07,0-.11,0h0l-.16.16-.07.07,0,0a.92.92,0,0,1-.13.21.84.84,0,0,0,.07.85,6.17,6.17,0,0,0,.48.66,1.34,1.34,0,0,1,.3.55.42.42,0,0,1-.2.48l-.51.28a2.17,2.17,0,0,0-.83.73,1.27,1.27,0,0,0,0,1.33,4.58,4.58,0,0,0,.5.74c.29.36.15.52-.1.73l-.07,0a1.53,1.53,0,0,0-.76,1.49,3.48,3.48,0,0,0,.54,1.5s.07.07,0,.12l.44.44c.08,0,.13.07.2.1"/><path class="cls-3" d="M20.43,79a.91.91,0,0,0,1.1-.14s0-.06.07,0l.3-.3s0,0,0-.06a3.06,3.06,0,0,0,.59-1.77,1.57,1.57,0,0,0-.71-1.38,1.28,1.28,0,0,1-.58-.77,1.34,1.34,0,0,0-.3-.48c-.15-.15-.29-.31-.43-.46a.57.57,0,0,1-.1-.75,1.42,1.42,0,0,1,.32-.41l.62-.51a1,1,0,0,0,.23-1.26,1.4,1.4,0,0,0-.26-.33l-.67-.68a.6.6,0,0,1-.08-.88l.21-.32.06,0c-.07-.07-.07,0-.11,0h0l-.16.16-.07.07,0,0a.92.92,0,0,1-.13.21.84.84,0,0,0,.07.85,6.17,6.17,0,0,0,.48.66,1.41,1.41,0,0,1,.3.55.42.42,0,0,1-.2.48l-.51.28a2.17,2.17,0,0,0-.83.73,1.27,1.27,0,0,0,0,1.33,4.58,4.58,0,0,0,.5.74c.29.36.15.52-.1.73l-.07,0a1.53,1.53,0,0,0-.76,1.49,3.48,3.48,0,0,0,.54,1.5s.06.07.05.12l.44.44c.08,0,.13.07.2.11"/><path class="cls-2" d="M53,101.45a.91.91,0,0,0,1.1-.14s0-.06.07,0l.3-.3s0,0,0-.06a3,3,0,0,0,.59-1.77,1.57,1.57,0,0,0-.71-1.38,1.32,1.32,0,0,1-.58-.77,1.32,1.32,0,0,0-.29-.48l-.44-.46A.57.57,0,0,1,53,95.3a1.27,1.27,0,0,1,.32-.41l.62-.51a1,1,0,0,0,.23-1.26,1.4,1.4,0,0,0-.26-.33c-.23-.23-.46-.45-.68-.68a.6.6,0,0,1-.07-.88l.21-.32,0,0c-.06-.07-.06,0-.1,0h0l-.16.16-.07.07,0,0a1.53,1.53,0,0,1-.14.21.89.89,0,0,0,.07.85,5.12,5.12,0,0,0,.49.66,1.39,1.39,0,0,1,.29.55.41.41,0,0,1-.2.48,5.05,5.05,0,0,1-.51.28,2.24,2.24,0,0,0-.83.73,1.27,1.27,0,0,0,0,1.33,4.58,4.58,0,0,0,.5.74c.28.36.15.52-.1.73l-.07.05a1.53,1.53,0,0,0-.76,1.49,3.48,3.48,0,0,0,.54,1.5s.06.07,0,.12l.44.44c.08,0,.13.07.2.11"/><path class="cls-3" d="M66.13,90.13a.91.91,0,0,0,1.1-.14s0,0,.07,0l.3-.3s0,0,0-.06a3,3,0,0,0,.59-1.77,1.57,1.57,0,0,0-.71-1.38,1.32,1.32,0,0,1-.58-.77,1.22,1.22,0,0,0-.3-.48c-.14-.15-.28-.31-.43-.46A.57.57,0,0,1,66.1,84a1.27,1.27,0,0,1,.32-.41l.62-.51a1,1,0,0,0,.23-1.26,1.4,1.4,0,0,0-.26-.33l-.68-.68a.6.6,0,0,1-.07-.88l.21-.32a.12.12,0,0,0,0,0c-.06-.07-.07,0-.1,0l0,0-.16.15-.07.07,0,0a1.53,1.53,0,0,1-.14.21.89.89,0,0,0,.07.85,5.12,5.12,0,0,0,.49.66,1.46,1.46,0,0,1,.29.55.42.42,0,0,1-.2.49c-.16.1-.34.18-.51.27a2.24,2.24,0,0,0-.83.73,1.27,1.27,0,0,0,0,1.33,4.23,4.23,0,0,0,.51.74c.28.36.14.52-.1.73l-.07,0a1.56,1.56,0,0,0-.77,1.5,3.64,3.64,0,0,0,.55,1.49s.06.07,0,.12l.44.44c.08,0,.13.07.2.11"/><path class="cls-2" d="M73.1,79.92a.91.91,0,0,0,1.1-.14s0-.06.07,0l.3-.3s0,0,0-.06a3,3,0,0,0,.6-1.77,1.56,1.56,0,0,0-.72-1.38,1.36,1.36,0,0,1-.58-.77A1.19,1.19,0,0,0,73.6,75c-.15-.15-.29-.31-.43-.46a.56.56,0,0,1-.1-.75,1.42,1.42,0,0,1,.32-.41l.62-.51a1,1,0,0,0,.23-1.26,1.4,1.4,0,0,0-.26-.33l-.67-.68a.6.6,0,0,1-.08-.88l.21-.32.06,0c-.07-.07-.07,0-.11,0h0l-.15.16-.07.07,0,0a.92.92,0,0,1-.13.21.84.84,0,0,0,.07.85,5,5,0,0,0,.48.66,1.41,1.41,0,0,1,.3.55.41.41,0,0,1-.21.48c-.16.1-.33.19-.5.28a2.1,2.1,0,0,0-.83.73,1.25,1.25,0,0,0,0,1.33,4.58,4.58,0,0,0,.5.74c.29.36.15.52-.1.73l-.07.05a1.53,1.53,0,0,0-.76,1.49,3.48,3.48,0,0,0,.54,1.5s.06.07,0,.12l.44.44c.08,0,.13.07.2.11"/><path class="cls-2" d="M59.78,70.81a.91.91,0,0,0,1.11-.14s0,0,.07,0l.29-.3s0,0,0-.06a3.06,3.06,0,0,0,.59-1.77,1.57,1.57,0,0,0-.71-1.38,1.32,1.32,0,0,1-.58-.77,1.22,1.22,0,0,0-.3-.48l-.43-.46a.57.57,0,0,1-.1-.75,1.42,1.42,0,0,1,.32-.41l.62-.51a1,1,0,0,0,.24-1.26,1.44,1.44,0,0,0-.27-.33L60,61.47a.6.6,0,0,1-.07-.88l.21-.32,0-.05c-.06-.07-.07,0-.1,0l0,0-.16.15-.07.07,0,0a.92.92,0,0,1-.13.21.84.84,0,0,0,.07.85,6.17,6.17,0,0,0,.48.66,1.48,1.48,0,0,1,.3.55.42.42,0,0,1-.2.49l-.51.28a2.23,2.23,0,0,0-.83.72,1.29,1.29,0,0,0,0,1.34,4.56,4.56,0,0,0,.51.73c.28.36.14.52-.1.73l-.08.05a1.57,1.57,0,0,0-.76,1.5,3.62,3.62,0,0,0,.54,1.49s.07.07,0,.12l.44.44a.49.49,0,0,1,.2.11"/><path class="cls-4" d="M76.4,33.06v9.69c-2.79-3.37-12.14-5.92-24.09-6.52h0a5.12,5.12,0,0,1-.56,0,5.52,5.52,0,0,1,.2-11l1.3.06c12.61.76,21.2,3.68,22.9,6.7a2.47,2.47,0,0,1,.28,1.11"/><path class="cls-3" d="M93.45,33.74l-1.72-1.15-4.42-2.91L49.39,4.73a4.94,4.94,0,0,0-2.55-.8h-.09V0H47l.3,0h.06A4.37,4.37,0,0,1,49.3.73L91.65,28.59a.67.67,0,0,1,.14.11,4.49,4.49,0,0,1,1.66,5"/><path class="cls-3" d="M93.14,34.46a4.8,4.8,0,0,1-1.88,1.87l-14,7.32V33A2.81,2.81,0,0,0,77,31.94c-1.54-3.51-10.43-6.31-22-7.3a9.08,9.08,0,0,1-8.26-9l0-10.88h.09a4.36,4.36,0,0,1,.94.14A3.84,3.84,0,0,1,49,5.39L86.23,29.92l5.07,3.33,1.84,1.21"/><path class="cls-3" d="M76.29,44.15c-1-2.75-8-5.5-18.51-6.66a10,10,0,0,0-11,9.93v9h.1a3.28,3.28,0,0,1,3.29,3.28v26h.07a3.28,3.28,0,0,1,6.42,0h.07V53.43h0a3.2,3.2,0,0,1,1.87-3,3.31,3.31,0,0,1,4.7,3V72.51h.07a3.28,3.28,0,0,1,6.42,0h.07V62.94h0a3,3,0,0,1,1.52-2.82,3.33,3.33,0,0,1,5,2.13h.08V44.51a2.47,2.47,0,0,0-.11-.36"/></g></g></svg>