<svg xmlns="http://www.w3.org/2000/svg" viewBox="0 0 116.9 207.97"><defs><style>.cls-1{fill:#e65024;}.cls-2{fill:#e5342a;}.cls-3{fill:#28245c;}.cls-4{fill:#ee4028;}.cls-5{fill:#2e2b67;}.cls-6{fill:#262161;}.cls-7{fill:#f1901f;}.cls-8{fill:#faaf3f;}</style></defs><title>Ресурс 2</title><g id="Слой_2" data-name="Слой 2"><g id="Слой_1-2" data-name="Слой 1"><path class="cls-1" d="M27.92,93.19A2.23,2.23,0,1,1,25.7,91a2.22,2.22,0,0,1,2.22,2.22"/><path class="cls-1" d="M6,78.55a1.43,1.43,0,1,1-1.43-1.43A1.43,1.43,0,0,1,6,78.55"/><path class="cls-1" d="M36.46,109.67a2.57,2.57,0,1,1-2.57-2.57,2.57,2.57,0,0,1,2.57,2.57"/><path class="cls-1" d="M44.53,85a2.45,2.45,0,1,1-2.45-2.45A2.45,2.45,0,0,1,44.53,85"/><path class="cls-1" d="M52.57,113.77a2.3,2.3,0,1,1-2.29-2.3,2.3,2.3,0,0,1,2.29,2.3"/><path class="cls-1" d="M60.75,88.68a2.28,2.28,0,1,1-2.28-2.28,2.29,2.29,0,0,1,2.28,2.28"/><path class="cls-1" d="M69.18,122a2.52,2.52,0,1,1-2.52-2.52A2.51,2.51,0,0,1,69.18,122"/><path class="cls-1" d="M77.21,80.9a2.36,2.36,0,1,1-2.36-2.35,2.36,2.36,0,0,1,2.36,2.35"/><path class="cls-1" d="M85.44,105.57a2.4,2.4,0,1,1-2.39-2.4,2.39,2.39,0,0,1,2.39,2.4"/><path class="cls-1" d="M93.83,93.19a2.59,2.59,0,1,1-2.59-2.59,2.59,2.59,0,0,1,2.59,2.59"/><path class="cls-2" d="M91.24,75.26A3.28,3.28,0,0,0,88,78.54h0a3.28,3.28,0,0,0,6.56,0h0a3.28,3.28,0,0,0-3.28-3.28"/><path class="cls-2" d="M29,78.55a3.28,3.28,0,1,1-3.28-3.28A3.28,3.28,0,0,1,29,78.55"/><path class="cls-2" d="M45.36,70.76a3.28,3.28,0,1,1-3.28-3.28,3.28,3.28,0,0,1,3.28,3.28"/><path class="cls-2" d="M78.13,66.67a3.28,3.28,0,1,1-3.28-3.28,3.28,3.28,0,0,1,3.28,3.28"/><circle class="cls-2" cx="33.89" cy="95.44" r="3.28"/><path class="cls-2" d="M53.56,99.53a3.29,3.29,0,1,0-3.28,3.28A3.28,3.28,0,0,0,53.56,99.53Z"/><path class="cls-2" d="M66.66,104.44a3.28,3.28,0,0,0-3.28,3.28h0a3.28,3.28,0,1,0,3.28-3.29"/><path class="cls-2" d="M86.33,91.34a3.28,3.28,0,1,0-3.28,3.28,3.28,3.28,0,0,0,3.28-3.28Z"/><path class="cls-2" d="M61.75,74.45a3.28,3.28,0,1,1-3.28-3.29,3.28,3.28,0,0,1,3.28,3.29"/><path class="cls-2" d="M95.34,53.35l0,0V41.22A2.74,2.74,0,0,0,95,39.86a3.21,3.21,0,0,1,.35,1.39Z"/><path class="cls-2" d="M21.94,39.86a2.83,2.83,0,0,0-.38,1.36V53.4l0,0V41.25a3.2,3.2,0,0,1,.34-1.39"/><path class="cls-2" d="M58.47,45c18.1,0,32.87,3.49,36.87,8.32V41.25A3.21,3.21,0,0,0,95,39.86c-2.46-4.36-16.51-8.57-36.52-8.57S24.4,35.5,21.94,39.86a3.2,3.2,0,0,0-.34,1.39v12.1C25.6,48.52,40.36,45,58.47,45"/><path class="cls-3" d="M95.34,78.55h0Z"/><path class="cls-3" d="M114.37,35.68,61.52.91A5.54,5.54,0,0,0,59.13,0H59l-.37,0h-.45l-.38,0h-.08a5.54,5.54,0,0,0-2.39.87L2.52,35.68A5.62,5.62,0,0,0,.27,42.11l2.15-1.44L55.26,5.9a5.56,5.56,0,0,1,6.36,0l52.85,34.77,2.15,1.44a5.62,5.62,0,0,0-2.25-6.43"/><path class="cls-3" d="M61.09,6.72a5,5,0,0,0-1.47-.66,4.15,4.15,0,0,0-2.35,0,5,5,0,0,0-1.47.66L3,41.49.66,43A6.16,6.16,0,0,0,3,45.34l17.47,9.13V41.22c0-6,16.07-10.78,36.79-10.95h2.35c20.72.17,36.79,4.91,36.79,11V54.47l17.47-9.13A6.16,6.16,0,0,0,116.23,43l-2.3-1.52Z"/><path class="cls-3" d="M5.58,74V44.15H3.64V74a4.61,4.61,0,1,0,1.94,0m-1,7.17a2.67,2.67,0,1,1,2.67-2.67A2.68,2.68,0,0,1,4.61,81.2"/><path class="cls-3" d="M95.21,55.1c-1.69-4.52-16-9-36.74-9s-35.1,4.54-36.75,9.07a3.31,3.31,0,0,0-.12.42V77.69h.09a4.1,4.1,0,0,1,8.1.86h0v16h.09a4.1,4.1,0,0,1,8,0H38V70.76a4.1,4.1,0,0,1,8.19,0v28h.08a4.1,4.1,0,0,1,8,0h.08V74.45a4.1,4.1,0,1,1,8.19,0v32.42h.1a4.1,4.1,0,0,1,8,0h.09V66.67h0a4.1,4.1,0,1,1,8.19,0V90.49H79a4.09,4.09,0,0,1,8,0h.09V78.55h0a4.1,4.1,0,0,1,8.11-.85h.09V55.55a2.54,2.54,0,0,0-.13-.45"/><path class="cls-4" d="M58.48,45c18.1,0,32.87,3.49,36.87,8.32l0,0V41.22A2.74,2.74,0,0,0,95,39.86c-2.46-4.36-16.51-8.57-36.52-8.57h0V45Z"/><path class="cls-4" d="M95.35,78.55h0Z"/><path class="cls-5" d="M61.63,5.9l52.85,34.77,2.15,1.44a5.62,5.62,0,0,0-2.26-6.43L61.53.91A5.54,5.54,0,0,0,59.14,0h-.09l-.37,0h-.24V4.9h0a6,6,0,0,1,3.18,1"/><path class="cls-5" d="M58.45,30.26h1.18c20.72.17,36.79,4.92,36.79,11V54.47l17.47-9.13A6.16,6.16,0,0,0,116.24,43l-2.3-1.52L61.09,6.72a5.17,5.17,0,0,0-1.46-.66,5.25,5.25,0,0,0-1.18-.17h0V30.26h0"/><path class="cls-5" d="M58.48,70.35a4.1,4.1,0,0,1,4.09,4.1v32.42h.09a4.1,4.1,0,0,1,8,0h.09V66.67h0a4.1,4.1,0,1,1,8.19,0V90.49h.09a4.09,4.09,0,0,1,8,0h.09V78.55h0a4.09,4.09,0,0,1,8.1-.85h.1V55.55a3.81,3.81,0,0,0-.13-.45c-1.7-4.52-16-9-36.74-9h0v24.3h0"/><path class="cls-6" d="M75.25,181.68A3.78,3.78,0,0,1,73.77,185a1.44,1.44,0,0,1,1.19.85,4.41,4.41,0,0,1,.33,1.85V189a1.94,1.94,0,0,0,.07.63.36.36,0,0,0,.19.26.52.52,0,0,0,.33,0l.46-.12.13,0v2.07l-.94.24a1.94,1.94,0,0,1-1.67-.14,1.56,1.56,0,0,1-.63-1.36v-2.38c0-.67-.16-1.11-.46-1.31a1.54,1.54,0,0,0-1.24-.09l-.78.2,0,6.3-2.26.58-.09-14.53,2.26-.57,0,6.15.88-.23a2.34,2.34,0,0,0,1.11-.61,1.71,1.71,0,0,0,.46-1.32v-2.48a2.53,2.53,0,0,1,.61-1.68,2.94,2.94,0,0,1,1.66-1l.92-.23v2.06l-.1,0-.46.12a.67.67,0,0,0-.33.18.69.69,0,0,0-.19.36,2.73,2.73,0,0,0-.06.66Z"/><path class="cls-6" d="M80.82,176.22a3,3,0,0,1,2.56.16,2.84,2.84,0,0,1,.81,2.3v.52a4.88,4.88,0,0,1-.34,1.92,3.16,3.16,0,0,1-1.1,1.36,1.62,1.62,0,0,1,1.31.82,3.77,3.77,0,0,1,.39,1.85v1.18a4.32,4.32,0,0,1-.85,2.77,4.54,4.54,0,0,1-2.56,1.54l-3.55.91-.09-14.46Zm-1.14,2.36,0,3.82.89-.23a1.89,1.89,0,0,0,1-.58,1.94,1.94,0,0,0,.35-1.3v-.8a1.57,1.57,0,0,0-.29-1.07.86.86,0,0,0-.87-.12Zm0,5.88,0,4.45,1.3-.34a1.54,1.54,0,0,0,.87-.53,2,2,0,0,0,.29-1.19v-1.26a1.71,1.71,0,0,0-.35-1.3,1.23,1.23,0,0,0-1.12-.08Z"/><polygon class="cls-6" points="87.11 189.19 85.51 189.59 85.42 175.13 87.43 174.62 87.48 183.22 90.94 173.72 92.58 173.3 92.67 187.8 90.64 188.31 90.59 180.04 87.11 189.19"/><path class="cls-6" d="M98,175.57c0-.64-.11-1-.33-1.21a.93.93,0,0,0-.85-.12,1.54,1.54,0,0,0-.85.53,1.78,1.78,0,0,0-.31,1.17v1.52l-2.14.54v-1.38a4.59,4.59,0,0,1,.84-2.87,4.29,4.29,0,0,1,2.51-1.56,2.77,2.77,0,0,1,2.52.29,3,3,0,0,1,.87,2.44v.36a3.68,3.68,0,0,1-1.56,3.33,1.63,1.63,0,0,1,1.23.81,3.88,3.88,0,0,1,.37,1.77v1.12a4.68,4.68,0,0,1-.84,2.86A4.29,4.29,0,0,1,97,186.73a2.74,2.74,0,0,1-2.52-.28A3,3,0,0,1,93.6,184v-1.78l2.13-.55,0,1.93a1.23,1.23,0,0,0,.32,1,1,1,0,0,0,.86.1,1.57,1.57,0,0,0,.85-.54,2.25,2.25,0,0,0,.31-1.36V181.7a1.8,1.8,0,0,0-.36-1.31,1.21,1.21,0,0,0-1.13-.12l-.35.09v-2l.47-.12a1.89,1.89,0,0,0,1-.58,1.85,1.85,0,0,0,.35-1.27Z"/><polygon class="cls-7" points="11.69 146.26 21.38 143.85 21.38 205.55 11.69 207.97 11.69 146.26"/><path class="cls-7" d="M27,157.58a19.46,19.46,0,0,1,3.71-12.17,18.57,18.57,0,0,1,10.69-6.59q7-1.74,10.69,1.26t3.71,10.33v31.38a20.5,20.5,0,0,1-1.81,8.9c.23.52.53.81.91.85a5,5,0,0,0,1.76-.22l.87-.21v8.45l-1.3.32a10.41,10.41,0,0,1-5.22.22,4.67,4.67,0,0,1-3-2.32,25.8,25.8,0,0,1-3.1,1.59,23,23,0,0,1-3.54,1.19q-7,1.74-10.69-1.26T27,189Zm9.49,29.63c0,2.19.44,3.61,1.33,4.28a4.06,4.06,0,0,0,3.58.44A6.4,6.4,0,0,0,45,189.71a7.83,7.83,0,0,0,1.34-5V152.17c0-2.19-.45-3.61-1.34-4.28a4.09,4.09,0,0,0-3.58-.45,6.45,6.45,0,0,0-3.58,2.23,7.79,7.79,0,0,0-1.33,5Z"/><path class="cls-7" d="M76.1,168.71c-.07-.24-.14-.46-.22-.66a5.58,5.58,0,0,1-.19-.78,10.94,10.94,0,0,1-.11-1.24c0-.5,0-1.14,0-1.91v-6.05c0-1.8-.31-3-.93-3.56s-1.63-.69-3-.35l-2.09.52v15.67l-6.05,1.51V133.38l9.13-2.28c3.15-.78,5.43-.62,6.84.5s2.12,3.15,2.12,6.12v3q0,5.94-4,8.8a3.85,3.85,0,0,1,3.16,2.26,12.12,12.12,0,0,1,.85,4.93v5.93c0,1,0,1.78.11,2.48a6.74,6.74,0,0,0,.55,2Zm-6.59-31.34v11.82l2.36-.59a5,5,0,0,0,2.67-1.55,5.15,5.15,0,0,0,1-3.42v-3.8a4.1,4.1,0,0,0-.74-2.84,2.35,2.35,0,0,0-2.34-.35Z"/><path class="cls-7" d="M105.35,161.42l-6.1,1.52-1-6.72-7.42,1.85-1,7.24-5.56,1.38,6.16-40,8.85-2.21Zm-13.8-8.77,5.83-1.45-2.92-18.73Z"/><polygon class="cls-8" points="11.69 158.97 11.69 187.51 21.38 183.28 21.38 156.54 11.69 158.97"/><path class="cls-8" d="M55.71,147.94l-9.5,2.38a11.25,11.25,0,0,1,.14,1.85v20.2l9.48-4.14V150.41a24.19,24.19,0,0,0-.12-2.47"/><path class="cls-8" d="M36.52,154.62a12.5,12.5,0,0,1,.14-1.91l-9.51,2.38q-.12,1.22-.12,2.49v23.23l9.49-4.14Z"/><path class="cls-8" d="M80.75,151.8a3.85,3.85,0,0,0-3.16-2.26q3.7-2.68,3.94-8.07l-6,1.51v.65a5.15,5.15,0,0,1-1,3.42,5,5,0,0,1-2.67,1.55l-2.36.59v-4.71L63.46,146v18.9l6.05-2.65v-7.56l2.09-.53c1.39-.34,2.4-.23,3,.35s.93,1.77.93,3.56v1.54l6-2.64v-.24a12.12,12.12,0,0,0-.85-4.93"/><polygon class="cls-8" points="93.6 138.45 88.33 139.77 85.97 155.06 91.56 152.62 93.6 138.45"/><polygon class="cls-8" points="95.33 138.01 97.22 150.15 103.05 147.6 101.2 136.54 95.33 138.01"/></g></g></svg>