<svg xmlns="http://www.w3.org/2000/svg" viewBox="0 0 93.66 101.58"><defs><style>.cls-1{fill:#221e1f;}.cls-2{fill:#403f41;}.cls-3{fill:#ffc31a;}.cls-4{fill:#ffcd55;}</style></defs><title>Ресурс 3</title><g id="Слой_2" data-name="Слой 2"><g id="Слой_1-2" data-name="Слой 1"><path class="cls-1" d="M4.84,62.94A1.15,1.15,0,1,1,3.69,61.8a1.14,1.14,0,0,1,1.15,1.14"/><path class="cls-2" d="M73.11,60.31a2.63,2.63,0,0,0-2.63,2.63h0a2.63,2.63,0,1,0,5.26,0h0a2.63,2.63,0,0,0-2.63-2.63"/><path class="cls-1" d="M23.22,62.94a2.63,2.63,0,1,1-2.63-2.62,2.63,2.63,0,0,1,2.63,2.62"/><path class="cls-2" d="M36.35,56.7a2.63,2.63,0,1,1-2.63-2.63,2.63,2.63,0,0,1,2.63,2.63"/><path class="cls-2" d="M62.61,53.43A2.63,2.63,0,1,1,60,50.8a2.63,2.63,0,0,1,2.63,2.63"/><path class="cls-1" d="M29.79,76.48a2.63,2.63,0,1,0-2.63,2.63,2.63,2.63,0,0,0,2.63-2.63"/><path class="cls-1" d="M42.91,79.76a2.63,2.63,0,1,0-5.25,0h0a2.63,2.63,0,1,0,5.25,0Z"/><path class="cls-2" d="M53.42,83.7A2.63,2.63,0,1,0,56,86.32a2.62,2.62,0,0,0-2.62-2.62"/><path class="cls-1" d="M69.17,73.19a2.63,2.63,0,1,0-2.62,2.63,2.62,2.62,0,0,0,2.62-2.63Z"/><path class="cls-1" d="M49.48,59.66A2.63,2.63,0,1,1,46.85,57a2.63,2.63,0,0,1,2.63,2.63"/><path class="cls-1" d="M76.39,42.75l0,0V33A2.22,2.22,0,0,0,76.12,32a2.59,2.59,0,0,1,.27,1.11Z"/><path class="cls-1" d="M17.58,32A2.22,2.22,0,0,0,17.27,33v9.76l0,0V33.06A2.59,2.59,0,0,1,17.58,32"/><path class="cls-3" d="M46.85,36.09c14.51,0,26.34,2.79,29.54,6.66V33.06A2.59,2.59,0,0,0,76.12,32c-2-3.5-13.24-6.88-29.27-6.88S19.56,28.45,17.58,32a2.59,2.59,0,0,0-.27,1.11v9.69c3.2-3.87,15-6.66,29.54-6.66"/><path class="cls-1" d="M76.39,62.94Z"/><path class="cls-1" d="M91.64,28.59,49.3.73A4.41,4.41,0,0,0,47.38,0h-.07L47,0h-.36l-.3,0h-.07a4.33,4.33,0,0,0-1.91.69L2,28.59a4.51,4.51,0,0,0-1.8,5.15S1.34,33,1.94,32.59L44.28,4.73a4.46,4.46,0,0,1,5.1,0L91.72,32.59c.6.39,1.72,1.15,1.72,1.15a4.48,4.48,0,0,0-1.8-5.15"/><path class="cls-1" d="M49,5.39a3.9,3.9,0,0,0-1.18-.53,3.23,3.23,0,0,0-1.88,0,3.9,3.9,0,0,0-1.18.53L2.37,33.25.53,34.46a4.74,4.74,0,0,0,1.88,1.87l.5.27V59.32a3.7,3.7,0,1,0,1.56,0V37.41l11.94,6.24V33c0-4.83,12.88-8.64,29.48-8.77h1.88c16.6.13,29.48,3.94,29.48,8.77V43.65l14-7.32a4.74,4.74,0,0,0,1.88-1.87l-1.84-1.21ZM5.83,62.93a2.14,2.14,0,1,1-2.14-2.14,2.14,2.14,0,0,1,2.14,2.14"/><path class="cls-1" d="M46.85,36.91c-16.63,0-28.13,3.64-29.45,7.27a2,2,0,0,0-.09.33V62.26h.07a3.28,3.28,0,0,1,6.49.68h0V75.79H24a3.28,3.28,0,0,1,6.42,0h.07V56.71a3.28,3.28,0,1,1,6.56,0v22.4h.07a3.28,3.28,0,0,1,6.43,0h.07V59.66a3.28,3.28,0,0,1,6.56,0v26h.08a3.28,3.28,0,0,1,6.41,0h.08V53.42h0a3.28,3.28,0,0,1,6.56,0V72.51h.08a3.28,3.28,0,0,1,6.41,0h.08V62.94h0a3.28,3.28,0,0,1,6.49-.69h.07V44.51a1.61,1.61,0,0,0-.1-.36c-1.36-3.62-12.84-7.24-29.44-7.24"/><path class="cls-2" d="M40.24,96.07a.88.88,0,0,0,1.1-.14s0-.05.07,0l.3-.3s0,0,0-.06a3,3,0,0,0,.59-1.77,1.57,1.57,0,0,0-.71-1.38,1.35,1.35,0,0,1-.58-.77,1.15,1.15,0,0,0-.3-.48l-.43-.47a.56.56,0,0,1-.09-.74,1.27,1.27,0,0,1,.32-.41l.62-.51a1,1,0,0,0,.23-1.26,1.4,1.4,0,0,0-.26-.33c-.23-.23-.46-.45-.68-.68a.6.6,0,0,1-.07-.88l.21-.32.05-.05c-.06-.08-.06,0-.1,0l0,0-.16.16-.07.07,0,0c0,.08-.1.13-.14.21a.89.89,0,0,0,.07.85,4.43,4.43,0,0,0,.49.65,1.46,1.46,0,0,1,.29.55.42.42,0,0,1-.2.49c-.16.1-.34.19-.51.28a2.24,2.24,0,0,0-.83.73,1.27,1.27,0,0,0,0,1.33,4.58,4.58,0,0,0,.5.74c.28.35.14.52-.1.73l-.07,0A1.54,1.54,0,0,0,39,93.91a3.63,3.63,0,0,0,.55,1.5s.06.07.05.12.29.29.44.44.13.07.2.1"/><path class="cls-1" d="M26.73,92a.89.89,0,0,0,1.11-.14s0,0,.07,0l.29-.3s0,0,0-.06a3.06,3.06,0,0,0,.59-1.77,1.57,1.57,0,0,0-.71-1.38,1.35,1.35,0,0,1-.58-.77,1.15,1.15,0,0,0-.3-.48l-.43-.47a.56.56,0,0,1-.1-.74,1.42,1.42,0,0,1,.32-.41l.62-.51a1,1,0,0,0,.24-1.26,1.44,1.44,0,0,0-.27-.33l-.67-.68a.6.6,0,0,1-.07-.88l.21-.32.05,0c-.06-.08-.07,0-.1,0l0,0-.16.16-.07.07,0,0c0,.08-.09.13-.13.21a.84.84,0,0,0,.07.85,5.2,5.2,0,0,0,.48.65,1.45,1.45,0,0,1,.3.56.41.41,0,0,1-.2.48l-.51.28a2.17,2.17,0,0,0-.83.73,1.27,1.27,0,0,0,0,1.33,4.64,4.64,0,0,0,.51.74c.28.35.14.52-.1.73l-.08,0a1.55,1.55,0,0,0-.76,1.49,3.61,3.61,0,0,0,.54,1.5s.07.07.05.12l.44.44a.63.63,0,0,1,.2.1"/><path class="cls-2" d="M46.59,76.19a.92.92,0,0,0,1.11-.14s0-.06.06,0l.3-.3s0,0,0-.06a3.06,3.06,0,0,0,.59-1.77A1.57,1.57,0,0,0,48,72.5a1.32,1.32,0,0,1-.58-.77,1.22,1.22,0,0,0-.3-.48l-.43-.46a.57.57,0,0,1-.1-.75,1.42,1.42,0,0,1,.32-.41l.62-.51a1,1,0,0,0,.24-1.26,1.44,1.44,0,0,0-.27-.33l-.67-.68a.6.6,0,0,1-.07-.88c.07-.1.13-.21.21-.32L47,65.6c-.06-.07-.07,0-.1,0h0l-.16.16-.07.07,0,0a.92.92,0,0,1-.13.21.84.84,0,0,0,.07.85,6.17,6.17,0,0,0,.48.66,1.41,1.41,0,0,1,.3.55.41.41,0,0,1-.2.48c-.17.11-.34.19-.51.28a2.17,2.17,0,0,0-.83.73,1.27,1.27,0,0,0,0,1.33,4.64,4.64,0,0,0,.51.74c.28.36.14.52-.1.73l-.08,0A1.55,1.55,0,0,0,45.36,74a3.61,3.61,0,0,0,.54,1.5s.07.07.05.12l.44.44a.49.49,0,0,1,.2.11"/><path class="cls-1" d="M33.3,71.86a.88.88,0,0,0,1.1-.14s0,0,.07,0l.3-.3s0,0,0-.06a3,3,0,0,0,.59-1.77,1.55,1.55,0,0,0-.71-1.38,1.32,1.32,0,0,1-.58-.77,1.24,1.24,0,0,0-.29-.48c-.15-.15-.29-.31-.44-.47a.56.56,0,0,1-.09-.74,1.27,1.27,0,0,1,.32-.41l.62-.51a1,1,0,0,0,.23-1.26,1.4,1.4,0,0,0-.26-.33l-.67-.68a.6.6,0,0,1-.08-.88l.21-.32.06,0c-.07-.07-.07,0-.11,0h0l-.16.16-.07.07,0,0c0,.08-.1.14-.13.21a.86.86,0,0,0,.06.85,5.12,5.12,0,0,0,.49.66,1.22,1.22,0,0,1,.29.55.41.41,0,0,1-.2.48c-.16.1-.34.19-.51.28a2.24,2.24,0,0,0-.83.73,1.27,1.27,0,0,0,0,1.33,4.58,4.58,0,0,0,.5.74c.28.36.15.52-.1.73l-.07,0a1.53,1.53,0,0,0-.76,1.49,3.48,3.48,0,0,0,.54,1.5s.06.07,0,.12l.44.44c.08,0,.13.07.2.1"/><path class="cls-2" d="M20.43,79a.91.91,0,0,0,1.1-.14s0-.06.07,0l.3-.3s0,0,0-.06a3,3,0,0,0,.59-1.77,1.57,1.57,0,0,0-.71-1.38,1.32,1.32,0,0,1-.58-.77,1.22,1.22,0,0,0-.3-.48c-.14-.15-.28-.31-.43-.46a.57.57,0,0,1-.09-.75,1.27,1.27,0,0,1,.32-.41l.62-.51a1,1,0,0,0,.23-1.26,1.4,1.4,0,0,0-.26-.33c-.23-.23-.46-.45-.68-.68a.6.6,0,0,1-.07-.88l.21-.32.05,0c-.06-.07-.06,0-.1,0h0l-.16.16-.07.07,0,0a1.53,1.53,0,0,1-.14.21.89.89,0,0,0,.07.85,5.12,5.12,0,0,0,.49.66,1.39,1.39,0,0,1,.29.55.41.41,0,0,1-.2.48c-.16.1-.34.19-.51.28a2.24,2.24,0,0,0-.83.73,1.27,1.27,0,0,0,0,1.33,4.58,4.58,0,0,0,.5.74c.28.36.14.52-.1.73l-.07,0a1.54,1.54,0,0,0-.77,1.49,3.63,3.63,0,0,0,.55,1.5s.06.07.05.12l.44.44c.08,0,.13.07.2.11"/><path class="cls-1" d="M53,101.45a.92.92,0,0,0,1.11-.14s0-.06.06,0l.3-.3s0,0,0-.06a3.06,3.06,0,0,0,.59-1.77,1.57,1.57,0,0,0-.71-1.38,1.32,1.32,0,0,1-.58-.77,1.22,1.22,0,0,0-.3-.48l-.43-.46a.57.57,0,0,1-.1-.75,1.42,1.42,0,0,1,.32-.41l.62-.51a1,1,0,0,0,.24-1.26,1.44,1.44,0,0,0-.27-.33l-.67-.68a.6.6,0,0,1-.07-.88c.07-.1.13-.21.21-.32l0,0c-.06-.07-.07,0-.1,0h0l-.16.16-.07.07,0,0a.92.92,0,0,1-.13.21.84.84,0,0,0,.07.85,6.17,6.17,0,0,0,.48.66,1.41,1.41,0,0,1,.3.55.41.41,0,0,1-.2.48c-.17.11-.34.19-.51.28a2.17,2.17,0,0,0-.83.73,1.27,1.27,0,0,0,0,1.33,4.64,4.64,0,0,0,.51.74c.28.36.14.52-.1.73l-.08.05a1.55,1.55,0,0,0-.76,1.49,3.61,3.61,0,0,0,.54,1.5s.07.07.05.12l.44.44a.49.49,0,0,1,.2.11"/><path class="cls-2" d="M66.12,90.13A.92.92,0,0,0,67.23,90s0,0,.06,0l.3-.3s0,0,0-.06a3.06,3.06,0,0,0,.59-1.77,1.57,1.57,0,0,0-.71-1.38,1.32,1.32,0,0,1-.58-.77,1.22,1.22,0,0,0-.3-.48c-.15-.15-.29-.31-.43-.46a.57.57,0,0,1-.1-.75,1.42,1.42,0,0,1,.32-.41l.62-.51a1,1,0,0,0,.24-1.26,1.44,1.44,0,0,0-.27-.33l-.67-.68a.6.6,0,0,1-.07-.88c.07-.1.13-.21.21-.32l0,0c-.06-.07-.07,0-.1,0l0,0-.16.15-.07.07,0,0a.92.92,0,0,1-.13.21.84.84,0,0,0,.07.85,6.17,6.17,0,0,0,.48.66,1.48,1.48,0,0,1,.3.55.42.42,0,0,1-.2.49l-.51.27a2.17,2.17,0,0,0-.83.73,1.27,1.27,0,0,0,0,1.33,4.23,4.23,0,0,0,.51.74c.28.36.14.52-.11.73l-.07,0a1.57,1.57,0,0,0-.76,1.5,3.62,3.62,0,0,0,.54,1.49s.07.07,0,.12l.44.44c.08,0,.13.07.2.11"/><path class="cls-1" d="M73.09,79.92a.92.92,0,0,0,1.11-.14s0-.06.07,0l.3-.3s0,0,0-.06a3.06,3.06,0,0,0,.59-1.77,1.57,1.57,0,0,0-.71-1.38,1.32,1.32,0,0,1-.58-.77,1.22,1.22,0,0,0-.3-.48l-.43-.46a.57.57,0,0,1-.09-.75,1.27,1.27,0,0,1,.32-.41l.62-.51a1,1,0,0,0,.23-1.26,1.4,1.4,0,0,0-.26-.33c-.23-.23-.46-.45-.68-.68a.6.6,0,0,1-.07-.88l.21-.32s0,0,0,0-.07,0-.1,0h0l-.16.16-.07.07,0,0a1.53,1.53,0,0,1-.14.21.89.89,0,0,0,.07.85,5.12,5.12,0,0,0,.49.66,1.39,1.39,0,0,1,.29.55.41.41,0,0,1-.2.48c-.16.1-.34.19-.51.28a2.17,2.17,0,0,0-.83.73,1.27,1.27,0,0,0,0,1.33,4.64,4.64,0,0,0,.51.74c.28.36.14.52-.1.73l-.07.05a1.54,1.54,0,0,0-.77,1.49,3.63,3.63,0,0,0,.55,1.5s.06.07,0,.12l.44.44a.45.45,0,0,1,.19.11"/><path class="cls-1" d="M59.78,70.81a.89.89,0,0,0,1.1-.14s0,0,.07,0l.3-.3s0,0,0-.06a3,3,0,0,0,.6-1.77,1.56,1.56,0,0,0-.72-1.38,1.36,1.36,0,0,1-.58-.77,1.19,1.19,0,0,0-.29-.48c-.15-.15-.29-.31-.43-.46a.56.56,0,0,1-.1-.75,1.42,1.42,0,0,1,.32-.41l.62-.51a1,1,0,0,0,.23-1.26,1.4,1.4,0,0,0-.26-.33L60,61.47a.6.6,0,0,1-.08-.88l.21-.32.06-.05c-.07-.07-.07,0-.11,0l0,0-.15.15-.07.07,0,0a.92.92,0,0,1-.13.21.84.84,0,0,0,.07.85,4.26,4.26,0,0,0,.48.66,1.48,1.48,0,0,1,.3.55.42.42,0,0,1-.21.49c-.16.1-.34.18-.5.28a2.26,2.26,0,0,0-.84.72,1.29,1.29,0,0,0,0,1.34,4.49,4.49,0,0,0,.5.73c.28.36.15.52-.1.73l-.07.05a1.55,1.55,0,0,0-.76,1.5,3.48,3.48,0,0,0,.54,1.49s.06.07,0,.12l.44.44c.08,0,.13.07.2.11"/><path class="cls-4" d="M76.4,33.06v9.69c-2.79-3.37-12.15-5.92-24.1-6.52h0a5.3,5.3,0,0,1-.57,0,5.53,5.53,0,0,1,.21-11l1.29.06C65.83,26,74.42,28.93,76.12,32a2.61,2.61,0,0,1,.28,1.11"/><path class="cls-2" d="M93.45,33.74l-1.73-1.15L87.3,29.68,49.38,4.73a4.91,4.91,0,0,0-2.54-.8h-.09V0H47l.31,0h.06A4.41,4.41,0,0,1,49.3.73L91.65,28.59a.67.67,0,0,1,.14.11,4.51,4.51,0,0,1,1.66,5"/><path class="cls-2" d="M93.13,34.46a4.74,4.74,0,0,1-1.88,1.87l-14,7.32V33A3,3,0,0,0,77,31.94c-1.54-3.51-10.44-6.31-22-7.3a9.09,9.09,0,0,1-8.26-9l0-10.88h.09a4.45,4.45,0,0,1,1,.14A4.07,4.07,0,0,1,49,5.39L86.22,29.92l5.07,3.33,1.84,1.21"/><path class="cls-2" d="M76.29,44.15c-1-2.75-8-5.5-18.52-6.66a10,10,0,0,0-11,9.93v9h.1a3.28,3.28,0,0,1,3.28,3.28v26h.08a3.28,3.28,0,0,1,6.42,0h.07V53.43h0a3.2,3.2,0,0,1,1.87-3,3.3,3.3,0,0,1,4.69,3V72.51h.08a3.28,3.28,0,0,1,6.41,0h.08V62.94h0a3,3,0,0,1,1.52-2.82,3.33,3.33,0,0,1,5,2.13h.07V44.51a1.61,1.61,0,0,0-.1-.36"/></g></g></svg>