<svg xmlns="http://www.w3.org/2000/svg" viewBox="0 0 93.66 99.73"><defs><style>.cls-1{fill:#e65024;}.cls-2{fill:#e5342a;}.cls-3{fill:#28245c;}.cls-4{fill:#ee4028;}.cls-5{fill:#2e2b67;}</style></defs><title>Ресурс 4</title><g id="Слой_2" data-name="Слой 2"><g id="Слой_1-2" data-name="Слой 1"><path class="cls-1" d="M22.37,74.67a1.78,1.78,0,1,1-1.78-1.78,1.78,1.78,0,0,1,1.78,1.78"/><path class="cls-1" d="M4.84,62.94a1.15,1.15,0,1,1-1.15-1.15,1.14,1.14,0,0,1,1.15,1.15"/><path class="cls-1" d="M29.22,87.87a2.07,2.07,0,1,1-2.07-2.06,2.07,2.07,0,0,1,2.07,2.06"/><path class="cls-1" d="M35.68,68.1a2,2,0,1,1-2-2,2,2,0,0,1,2,2"/><path class="cls-1" d="M42.12,91.15a1.84,1.84,0,1,1-1.84-1.84,1.84,1.84,0,0,1,1.84,1.84"/><path class="cls-1" d="M48.68,71.06a1.83,1.83,0,1,1-1.83-1.83,1.83,1.83,0,0,1,1.83,1.83"/><path class="cls-1" d="M55.43,97.72a2,2,0,1,1-2-2,2,2,0,0,1,2,2"/><path class="cls-1" d="M61.86,64.82A1.89,1.89,0,1,1,60,62.93a1.89,1.89,0,0,1,1.88,1.89"/><path class="cls-1" d="M68.46,84.59a1.92,1.92,0,1,1-1.92-1.92,1.92,1.92,0,0,1,1.92,1.92"/><path class="cls-1" d="M75.18,74.67a2.08,2.08,0,1,1-2.08-2.08,2.08,2.08,0,0,1,2.08,2.08"/><path class="cls-2" d="M73.1,60.3a2.62,2.62,0,0,0-2.62,2.63h0a2.63,2.63,0,1,0,5.25,0h0A2.63,2.63,0,0,0,73.1,60.3"/><path class="cls-2" d="M23.22,62.94a2.63,2.63,0,1,1-2.63-2.63,2.63,2.63,0,0,1,2.63,2.63"/><path class="cls-2" d="M36.35,56.69a2.63,2.63,0,1,1-2.63-2.62,2.63,2.63,0,0,1,2.63,2.62"/><path class="cls-2" d="M62.6,53.42A2.63,2.63,0,1,1,60,50.79a2.62,2.62,0,0,1,2.62,2.63"/><circle class="cls-2" cx="27.15" cy="76.47" r="2.63"/><path class="cls-2" d="M42.91,79.75a2.63,2.63,0,1,0-2.63,2.63A2.63,2.63,0,0,0,42.91,79.75Z"/><path class="cls-2" d="M53.41,83.69a2.62,2.62,0,0,0-2.63,2.62h0a2.63,2.63,0,1,0,2.63-2.62"/><path class="cls-2" d="M69.17,73.18a2.63,2.63,0,1,0-2.63,2.63,2.62,2.62,0,0,0,2.63-2.63Z"/><path class="cls-2" d="M49.48,59.65A2.63,2.63,0,1,1,46.85,57a2.63,2.63,0,0,1,2.63,2.63"/><path class="cls-2" d="M76.39,42.74l0,0V33a2.15,2.15,0,0,0-.31-1.09,2.5,2.5,0,0,1,.28,1.11Z"/><path class="cls-2" d="M17.58,31.94A2.26,2.26,0,0,0,17.27,33v9.75l0,0V33.05a2.63,2.63,0,0,1,.27-1.11"/><path class="cls-2" d="M46.85,36.08c14.5,0,26.33,2.8,29.54,6.66V33.05a2.5,2.5,0,0,0-.28-1.11c-2-3.49-13.23-6.87-29.26-6.87s-27.3,3.38-29.27,6.87a2.63,2.63,0,0,0-.27,1.11v9.69c3.2-3.86,15-6.66,29.54-6.66"/><path class="cls-3" d="M76.39,62.93Z"/><path class="cls-3" d="M91.63,28.59,49.29.73A4.39,4.39,0,0,0,47.38,0h-.07L47,0h-.36l-.3,0h-.07a4.43,4.43,0,0,0-1.92.7L2,28.59a4.5,4.5,0,0,0-1.8,5.15S1.34,33,1.94,32.59L44.28,4.73a4.46,4.46,0,0,1,5.1,0L91.72,32.59l1.72,1.15a4.5,4.5,0,0,0-1.81-5.15"/><path class="cls-3" d="M48.94,5.38a4,4,0,0,0-1.17-.52,4.36,4.36,0,0,0-.94-.14,4.27,4.27,0,0,0-.94.14,4.13,4.13,0,0,0-1.18.52L2.37,33.24.53,34.46a4.94,4.94,0,0,0,1.88,1.87l14,7.32V33c0-4.84,12.88-8.64,29.48-8.78h1.88c16.6.14,29.48,3.94,29.48,8.78V43.65l14-7.32a4.94,4.94,0,0,0,1.88-1.87l-1.85-1.22Z"/><path class="cls-3" d="M4.47,59.32V35.38H2.92V59.32a3.7,3.7,0,1,0,1.55,0m-.78,5.74a2.14,2.14,0,1,1,2.14-2.14,2.13,2.13,0,0,1-2.14,2.14"/><path class="cls-3" d="M76.29,44.15c-1.36-3.62-12.85-7.24-29.44-7.24S18.72,40.54,17.4,44.17a1.89,1.89,0,0,0-.09.34V62.25h.07a3.28,3.28,0,0,1,6.49.69h0V75.78h.07a3.28,3.28,0,0,1,6.42,0h.08V56.7a3.28,3.28,0,0,1,6.56,0V79.1h.07a3.28,3.28,0,0,1,6.43,0h.06V59.65a3.29,3.29,0,0,1,6.57,0v26h.07a3.28,3.28,0,0,1,6.42,0h.07V53.42h0a3.29,3.29,0,1,1,6.57,0V72.5h.07a3.28,3.28,0,0,1,6.42,0h.07V62.93h0a3.28,3.28,0,0,1,6.49-.69h.08V44.51c0-.12-.06-.24-.1-.36"/><path class="cls-4" d="M46.85,36.08c14.51,0,26.34,2.8,29.54,6.66l0,0V33a2.26,2.26,0,0,0-.31-1.09c-2-3.49-13.23-6.87-29.27-6.87h0v11Z"/><path class="cls-4" d="M76.39,62.93Z"/><path class="cls-5" d="M49.38,4.73,91.72,32.59c.6.39,1.72,1.15,1.72,1.15a4.48,4.48,0,0,0-1.8-5.15L49.3.73A4.43,4.43,0,0,0,47.38,0h-.06L47,0h-.19V3.93h0a4.73,4.73,0,0,1,2.54.8"/><path class="cls-5" d="M46.84,24.25h.93c16.61.14,29.48,3.94,29.48,8.78V43.65l14-7.32a4.87,4.87,0,0,0,1.88-1.87l-1.84-1.22L49,5.38a4,4,0,0,0-1.18-.52,3.67,3.67,0,0,0-.93-.14h0V24.25h0"/><path class="cls-5" d="M46.85,56.37a3.28,3.28,0,0,1,3.29,3.28v26h.07a3.28,3.28,0,0,1,6.42,0h.07V53.42h0a3.29,3.29,0,1,1,6.57,0V72.5h.07a3.28,3.28,0,0,1,6.42,0h.07V62.93h0a3.28,3.28,0,0,1,6.49-.68h.07V44.5a1.69,1.69,0,0,0-.1-.35c-1.35-3.62-12.84-7.24-29.44-7.24h0V56.37h0"/></g></g></svg>